%TF.GenerationSoftware,KiCad,Pcbnew,7.0.9-1.fc39*%
%TF.CreationDate,2023-12-29T10:15:17-08:00*%
%TF.ProjectId,aekii-m3501,61656b69-692d-46d3-9335-30312e6b6963,rev?*%
%TF.SameCoordinates,Original*%
%TF.FileFunction,Drillmap*%
%TF.FilePolarity,Positive*%
%FSLAX45Y45*%
G04 Gerber Fmt 4.5, Leading zero omitted, Abs format (unit mm)*
G04 Created by KiCad (PCBNEW 7.0.9-1.fc39) date 2023-12-29 10:15:17*
%MOMM*%
%LPD*%
G01*
G04 APERTURE LIST*
%ADD10C,0.100000*%
%ADD11C,0.200000*%
G04 APERTURE END LIST*
D10*
X10000000Y-10000000D02*
X12100000Y-10000000D01*
X12100000Y-12100000D01*
X10000000Y-12100000D01*
X10000000Y-10000000D01*
D11*
X10255777Y-12416484D02*
X10255777Y-12216484D01*
X10255777Y-12216484D02*
X10303396Y-12216484D01*
X10303396Y-12216484D02*
X10331967Y-12226008D01*
X10331967Y-12226008D02*
X10351015Y-12245055D01*
X10351015Y-12245055D02*
X10360539Y-12264103D01*
X10360539Y-12264103D02*
X10370063Y-12302198D01*
X10370063Y-12302198D02*
X10370063Y-12330769D01*
X10370063Y-12330769D02*
X10360539Y-12368865D01*
X10360539Y-12368865D02*
X10351015Y-12387912D01*
X10351015Y-12387912D02*
X10331967Y-12406960D01*
X10331967Y-12406960D02*
X10303396Y-12416484D01*
X10303396Y-12416484D02*
X10255777Y-12416484D01*
X10455777Y-12416484D02*
X10455777Y-12283150D01*
X10455777Y-12321246D02*
X10465301Y-12302198D01*
X10465301Y-12302198D02*
X10474824Y-12292674D01*
X10474824Y-12292674D02*
X10493872Y-12283150D01*
X10493872Y-12283150D02*
X10512920Y-12283150D01*
X10579586Y-12416484D02*
X10579586Y-12283150D01*
X10579586Y-12216484D02*
X10570063Y-12226008D01*
X10570063Y-12226008D02*
X10579586Y-12235531D01*
X10579586Y-12235531D02*
X10589110Y-12226008D01*
X10589110Y-12226008D02*
X10579586Y-12216484D01*
X10579586Y-12216484D02*
X10579586Y-12235531D01*
X10703396Y-12416484D02*
X10684348Y-12406960D01*
X10684348Y-12406960D02*
X10674824Y-12387912D01*
X10674824Y-12387912D02*
X10674824Y-12216484D01*
X10808158Y-12416484D02*
X10789110Y-12406960D01*
X10789110Y-12406960D02*
X10779586Y-12387912D01*
X10779586Y-12387912D02*
X10779586Y-12216484D01*
X11036729Y-12416484D02*
X11036729Y-12216484D01*
X11036729Y-12216484D02*
X11103396Y-12359341D01*
X11103396Y-12359341D02*
X11170063Y-12216484D01*
X11170063Y-12216484D02*
X11170063Y-12416484D01*
X11351015Y-12416484D02*
X11351015Y-12311722D01*
X11351015Y-12311722D02*
X11341491Y-12292674D01*
X11341491Y-12292674D02*
X11322443Y-12283150D01*
X11322443Y-12283150D02*
X11284348Y-12283150D01*
X11284348Y-12283150D02*
X11265301Y-12292674D01*
X11351015Y-12406960D02*
X11331967Y-12416484D01*
X11331967Y-12416484D02*
X11284348Y-12416484D01*
X11284348Y-12416484D02*
X11265301Y-12406960D01*
X11265301Y-12406960D02*
X11255777Y-12387912D01*
X11255777Y-12387912D02*
X11255777Y-12368865D01*
X11255777Y-12368865D02*
X11265301Y-12349817D01*
X11265301Y-12349817D02*
X11284348Y-12340293D01*
X11284348Y-12340293D02*
X11331967Y-12340293D01*
X11331967Y-12340293D02*
X11351015Y-12330769D01*
X11446253Y-12283150D02*
X11446253Y-12483150D01*
X11446253Y-12292674D02*
X11465301Y-12283150D01*
X11465301Y-12283150D02*
X11503396Y-12283150D01*
X11503396Y-12283150D02*
X11522443Y-12292674D01*
X11522443Y-12292674D02*
X11531967Y-12302198D01*
X11531967Y-12302198D02*
X11541491Y-12321246D01*
X11541491Y-12321246D02*
X11541491Y-12378388D01*
X11541491Y-12378388D02*
X11531967Y-12397436D01*
X11531967Y-12397436D02*
X11522443Y-12406960D01*
X11522443Y-12406960D02*
X11503396Y-12416484D01*
X11503396Y-12416484D02*
X11465301Y-12416484D01*
X11465301Y-12416484D02*
X11446253Y-12406960D01*
X11627205Y-12397436D02*
X11636729Y-12406960D01*
X11636729Y-12406960D02*
X11627205Y-12416484D01*
X11627205Y-12416484D02*
X11617682Y-12406960D01*
X11617682Y-12406960D02*
X11627205Y-12397436D01*
X11627205Y-12397436D02*
X11627205Y-12416484D01*
X11627205Y-12292674D02*
X11636729Y-12302198D01*
X11636729Y-12302198D02*
X11627205Y-12311722D01*
X11627205Y-12311722D02*
X11617682Y-12302198D01*
X11617682Y-12302198D02*
X11627205Y-12292674D01*
X11627205Y-12292674D02*
X11627205Y-12311722D01*
M02*
