%TF.GenerationSoftware,KiCad,Pcbnew,7.0.9-1.fc39*%
%TF.CreationDate,2023-12-29T10:15:15-08:00*%
%TF.ProjectId,aekii-m3501,61656b69-692d-46d3-9335-30312e6b6963,rev?*%
%TF.SameCoordinates,Original*%
%TF.FileFunction,Copper,L2,Bot*%
%TF.FilePolarity,Positive*%
%FSLAX46Y46*%
G04 Gerber Fmt 4.6, Leading zero omitted, Abs format (unit mm)*
G04 Created by KiCad (PCBNEW 7.0.9-1.fc39) date 2023-12-29 10:15:15*
%MOMM*%
%LPD*%
G01*
G04 APERTURE LIST*
%TA.AperFunction,ComponentPad*%
%ADD10R,1.398000X1.398000*%
%TD*%
%TA.AperFunction,ComponentPad*%
%ADD11C,1.398000*%
%TD*%
%TA.AperFunction,ComponentPad*%
%ADD12C,3.306000*%
%TD*%
%TA.AperFunction,ComponentPad*%
%ADD13R,1.350000X1.350000*%
%TD*%
%TA.AperFunction,ComponentPad*%
%ADD14O,1.350000X1.350000*%
%TD*%
%TA.AperFunction,Conductor*%
%ADD15C,0.500000*%
%TD*%
G04 APERTURE END LIST*
D10*
%TO.P,ADB-FEM1,1,1*%
%TO.N,JST-D+*%
X108510000Y-116110000D03*
D11*
%TO.P,ADB-FEM1,2,2*%
%TO.N,VBUS*%
X108510000Y-109410000D03*
%TO.P,ADB-FEM1,3,3*%
%TO.N,JST-D-*%
X111000000Y-116110000D03*
%TO.P,ADB-FEM1,4,4*%
%TO.N,GND*%
X111000000Y-109410000D03*
D12*
%TO.P,ADB-FEM1,5,SH*%
%TO.N,unconnected-(ADB-FEM1-SH-Pad5)*%
X104700000Y-112760000D03*
%TO.P,ADB-FEM1,6,SH*%
X105510000Y-106000000D03*
%TO.P,ADB-FEM1,7,SH*%
X105510000Y-119520000D03*
%TD*%
D13*
%TO.P,J2,1,Pin_1*%
%TO.N,GND*%
X119000000Y-113500000D03*
D14*
%TO.P,J2,2,Pin_2*%
%TO.N,JST-D-*%
X119000000Y-111500000D03*
%TO.P,J2,3,Pin_3*%
%TO.N,JST-D+*%
X119000000Y-109500000D03*
%TO.P,J2,4,Pin_4*%
%TO.N,VBUS*%
X119000000Y-107500000D03*
%TD*%
D15*
%TO.N,GND*%
X119000000Y-113500000D02*
X115090000Y-113500000D01*
X115090000Y-113500000D02*
X111000000Y-109410000D01*
%TD*%
%TA.AperFunction,NonConductor*%
G36*
X120942539Y-100020185D02*
G01*
X120988294Y-100072989D01*
X120999500Y-100124500D01*
X120999500Y-120875500D01*
X120979815Y-120942539D01*
X120927011Y-120988294D01*
X120875500Y-120999500D01*
X107340924Y-120999500D01*
X107273885Y-120979815D01*
X107228130Y-120927011D01*
X107218186Y-120857853D01*
X107239618Y-120803993D01*
X107354292Y-120641539D01*
X107489830Y-120379962D01*
X107588488Y-120102365D01*
X107648427Y-119813920D01*
X107668532Y-119520000D01*
X107648427Y-119226080D01*
X107588488Y-118937635D01*
X107489830Y-118660038D01*
X107354292Y-118398461D01*
X107184398Y-118157776D01*
X107184393Y-118157770D01*
X107117028Y-118085640D01*
X106983313Y-117942467D01*
X106754783Y-117756544D01*
X106754781Y-117756543D01*
X106754779Y-117756541D01*
X106503063Y-117603469D01*
X106503059Y-117603467D01*
X106232852Y-117486101D01*
X105949171Y-117406617D01*
X105949167Y-117406616D01*
X105949166Y-117406616D01*
X105803234Y-117386558D01*
X105657304Y-117366500D01*
X105657303Y-117366500D01*
X105362697Y-117366500D01*
X105362696Y-117366500D01*
X105070834Y-117406616D01*
X105070828Y-117406617D01*
X104787147Y-117486101D01*
X104516940Y-117603467D01*
X104516936Y-117603469D01*
X104265220Y-117756541D01*
X104036690Y-117942464D01*
X103835606Y-118157770D01*
X103835606Y-118157771D01*
X103665708Y-118398460D01*
X103530169Y-118660039D01*
X103431513Y-118937629D01*
X103431512Y-118937632D01*
X103371572Y-119226085D01*
X103351468Y-119520000D01*
X103371572Y-119813914D01*
X103431512Y-120102367D01*
X103431513Y-120102370D01*
X103530169Y-120379960D01*
X103530170Y-120379962D01*
X103665708Y-120641539D01*
X103780380Y-120803993D01*
X103802959Y-120870112D01*
X103786206Y-120937944D01*
X103735440Y-120985950D01*
X103679076Y-120999500D01*
X100124500Y-120999500D01*
X100057461Y-120979815D01*
X100011706Y-120927011D01*
X100000500Y-120875500D01*
X100000500Y-116856870D01*
X107310500Y-116856870D01*
X107310501Y-116856876D01*
X107316908Y-116916483D01*
X107367202Y-117051328D01*
X107367206Y-117051335D01*
X107453452Y-117166544D01*
X107453455Y-117166547D01*
X107568664Y-117252793D01*
X107568671Y-117252797D01*
X107703517Y-117303091D01*
X107703516Y-117303091D01*
X107710444Y-117303835D01*
X107763127Y-117309500D01*
X109256872Y-117309499D01*
X109316483Y-117303091D01*
X109451331Y-117252796D01*
X109566546Y-117166546D01*
X109652796Y-117051331D01*
X109703091Y-116916483D01*
X109709500Y-116856873D01*
X109709499Y-116736580D01*
X109729183Y-116669544D01*
X109781987Y-116623789D01*
X109851145Y-116613845D01*
X109914701Y-116642869D01*
X109944499Y-116681311D01*
X109975795Y-116744161D01*
X110109762Y-116921562D01*
X110251088Y-117050397D01*
X110274043Y-117071323D01*
X110463046Y-117188349D01*
X110463047Y-117188349D01*
X110463048Y-117188350D01*
X110532142Y-117215117D01*
X110670335Y-117268653D01*
X110888850Y-117309500D01*
X110888853Y-117309500D01*
X111111147Y-117309500D01*
X111111150Y-117309500D01*
X111329665Y-117268653D01*
X111536954Y-117188349D01*
X111725957Y-117071323D01*
X111890239Y-116921560D01*
X112024205Y-116744161D01*
X112123292Y-116545166D01*
X112184128Y-116331352D01*
X112204639Y-116110000D01*
X112184128Y-115888648D01*
X112123292Y-115674834D01*
X112024205Y-115475839D01*
X111890239Y-115298440D01*
X111890237Y-115298437D01*
X111725958Y-115148678D01*
X111725957Y-115148677D01*
X111536954Y-115031651D01*
X111536952Y-115031650D01*
X111536951Y-115031649D01*
X111329668Y-114951348D01*
X111329667Y-114951347D01*
X111329665Y-114951347D01*
X111111150Y-114910500D01*
X110888850Y-114910500D01*
X110670335Y-114951347D01*
X110670333Y-114951347D01*
X110670331Y-114951348D01*
X110463048Y-115031649D01*
X110463047Y-115031650D01*
X110274041Y-115148678D01*
X110109762Y-115298437D01*
X109975795Y-115475838D01*
X109944499Y-115538689D01*
X109896996Y-115589926D01*
X109829333Y-115607347D01*
X109762992Y-115585421D01*
X109719038Y-115531110D01*
X109709499Y-115483417D01*
X109709499Y-115363129D01*
X109709498Y-115363123D01*
X109709497Y-115363116D01*
X109703091Y-115303517D01*
X109701197Y-115298440D01*
X109652797Y-115168671D01*
X109652793Y-115168664D01*
X109566547Y-115053455D01*
X109566544Y-115053452D01*
X109451335Y-114967206D01*
X109451328Y-114967202D01*
X109316482Y-114916908D01*
X109316483Y-114916908D01*
X109256883Y-114910501D01*
X109256881Y-114910500D01*
X109256873Y-114910500D01*
X109256864Y-114910500D01*
X107763129Y-114910500D01*
X107763123Y-114910501D01*
X107703516Y-114916908D01*
X107568671Y-114967202D01*
X107568664Y-114967206D01*
X107453455Y-115053452D01*
X107453452Y-115053455D01*
X107367206Y-115168664D01*
X107367202Y-115168671D01*
X107316908Y-115303517D01*
X107310501Y-115363116D01*
X107310501Y-115363123D01*
X107310500Y-115363135D01*
X107310500Y-116856870D01*
X100000500Y-116856870D01*
X100000500Y-112760000D01*
X102541468Y-112760000D01*
X102561572Y-113053914D01*
X102621512Y-113342367D01*
X102621513Y-113342370D01*
X102720169Y-113619960D01*
X102720170Y-113619962D01*
X102855708Y-113881539D01*
X103025602Y-114122224D01*
X103025606Y-114122228D01*
X103025606Y-114122229D01*
X103041615Y-114139370D01*
X103226687Y-114337533D01*
X103455217Y-114523456D01*
X103455219Y-114523457D01*
X103455220Y-114523458D01*
X103706936Y-114676530D01*
X103706940Y-114676532D01*
X103977147Y-114793898D01*
X103977152Y-114793900D01*
X104260834Y-114873384D01*
X104517427Y-114908652D01*
X104552696Y-114913500D01*
X104552697Y-114913500D01*
X104847304Y-114913500D01*
X104878769Y-114909174D01*
X105139166Y-114873384D01*
X105422848Y-114793900D01*
X105530934Y-114746951D01*
X105693059Y-114676532D01*
X105693063Y-114676530D01*
X105694757Y-114675500D01*
X105944783Y-114523456D01*
X106173313Y-114337533D01*
X106374398Y-114122224D01*
X106544292Y-113881539D01*
X106679830Y-113619962D01*
X106778488Y-113342365D01*
X106838427Y-113053920D01*
X106858532Y-112760000D01*
X106838427Y-112466080D01*
X106778488Y-112177635D01*
X106679830Y-111900038D01*
X106544292Y-111638461D01*
X106374398Y-111397776D01*
X106374393Y-111397770D01*
X106267276Y-111283077D01*
X106173313Y-111182467D01*
X105944783Y-110996544D01*
X105944781Y-110996543D01*
X105944779Y-110996541D01*
X105693063Y-110843469D01*
X105693059Y-110843467D01*
X105422852Y-110726101D01*
X105139171Y-110646617D01*
X105139167Y-110646616D01*
X105139166Y-110646616D01*
X104993234Y-110626558D01*
X104847304Y-110606500D01*
X104847303Y-110606500D01*
X104552697Y-110606500D01*
X104552696Y-110606500D01*
X104260834Y-110646616D01*
X104260828Y-110646617D01*
X103977147Y-110726101D01*
X103706940Y-110843467D01*
X103706936Y-110843469D01*
X103455220Y-110996541D01*
X103226690Y-111182464D01*
X103025606Y-111397770D01*
X103025606Y-111397771D01*
X102855708Y-111638460D01*
X102720169Y-111900039D01*
X102621513Y-112177629D01*
X102621512Y-112177632D01*
X102561572Y-112466085D01*
X102541468Y-112760000D01*
X100000500Y-112760000D01*
X100000500Y-109410000D01*
X107305361Y-109410000D01*
X107325871Y-109631351D01*
X107386707Y-109845163D01*
X107386712Y-109845176D01*
X107485795Y-110044161D01*
X107619762Y-110221562D01*
X107700676Y-110295324D01*
X107784043Y-110371323D01*
X107973046Y-110488349D01*
X107973047Y-110488349D01*
X107973048Y-110488350D01*
X108042142Y-110515117D01*
X108180335Y-110568653D01*
X108398850Y-110609500D01*
X108398853Y-110609500D01*
X108621147Y-110609500D01*
X108621150Y-110609500D01*
X108839665Y-110568653D01*
X109046954Y-110488349D01*
X109235957Y-110371323D01*
X109400239Y-110221560D01*
X109534205Y-110044161D01*
X109633292Y-109845166D01*
X109635734Y-109836580D01*
X109673013Y-109777489D01*
X109736323Y-109747932D01*
X109805563Y-109757294D01*
X109858749Y-109802604D01*
X109874266Y-109836582D01*
X109876707Y-109845163D01*
X109876712Y-109845176D01*
X109975795Y-110044161D01*
X110109762Y-110221562D01*
X110190676Y-110295324D01*
X110274043Y-110371323D01*
X110463046Y-110488349D01*
X110463047Y-110488349D01*
X110463048Y-110488350D01*
X110532142Y-110515117D01*
X110670335Y-110568653D01*
X110888850Y-110609500D01*
X110888853Y-110609500D01*
X111086770Y-110609500D01*
X111153809Y-110629185D01*
X111174451Y-110645819D01*
X114514267Y-113985634D01*
X114526048Y-113999266D01*
X114540390Y-114018530D01*
X114580420Y-114052119D01*
X114584392Y-114055759D01*
X114590223Y-114061590D01*
X114615939Y-114081923D01*
X114674786Y-114131302D01*
X114674788Y-114131303D01*
X114680823Y-114135272D01*
X114680789Y-114135322D01*
X114687144Y-114139370D01*
X114687177Y-114139318D01*
X114693319Y-114143107D01*
X114693323Y-114143110D01*
X114762914Y-114175561D01*
X114831558Y-114210036D01*
X114831561Y-114210037D01*
X114831567Y-114210040D01*
X114831572Y-114210041D01*
X114838355Y-114212510D01*
X114838334Y-114212567D01*
X114845451Y-114215040D01*
X114845470Y-114214984D01*
X114852330Y-114217257D01*
X114927532Y-114232784D01*
X115002279Y-114250500D01*
X115002288Y-114250500D01*
X115009452Y-114251338D01*
X115009445Y-114251397D01*
X115016946Y-114252163D01*
X115016952Y-114252104D01*
X115024140Y-114252733D01*
X115024143Y-114252732D01*
X115024144Y-114252733D01*
X115100898Y-114250500D01*
X117732885Y-114250500D01*
X117799924Y-114270185D01*
X117845679Y-114322989D01*
X117849067Y-114331167D01*
X117881202Y-114417328D01*
X117881206Y-114417335D01*
X117967452Y-114532544D01*
X117967455Y-114532547D01*
X118082664Y-114618793D01*
X118082671Y-114618797D01*
X118217517Y-114669091D01*
X118217516Y-114669091D01*
X118224444Y-114669835D01*
X118277127Y-114675500D01*
X119722872Y-114675499D01*
X119782483Y-114669091D01*
X119917331Y-114618796D01*
X120032546Y-114532546D01*
X120118796Y-114417331D01*
X120169091Y-114282483D01*
X120175500Y-114222873D01*
X120175499Y-112777128D01*
X120169091Y-112717517D01*
X120150933Y-112668834D01*
X120118797Y-112582671D01*
X120118793Y-112582664D01*
X120032547Y-112467455D01*
X120032544Y-112467452D01*
X119946895Y-112403335D01*
X119905024Y-112347402D01*
X119900040Y-112277710D01*
X119922251Y-112229344D01*
X120003712Y-112121472D01*
X120100817Y-111926459D01*
X120160435Y-111716923D01*
X120180536Y-111500000D01*
X120160435Y-111283077D01*
X120100817Y-111073541D01*
X120003712Y-110878528D01*
X119872427Y-110704678D01*
X119748423Y-110591634D01*
X119712145Y-110531927D01*
X119713905Y-110462079D01*
X119748423Y-110408365D01*
X119872427Y-110295322D01*
X120003712Y-110121472D01*
X120100817Y-109926459D01*
X120160435Y-109716923D01*
X120180536Y-109500000D01*
X120160435Y-109283077D01*
X120100817Y-109073541D01*
X120003712Y-108878528D01*
X119872427Y-108704678D01*
X119748423Y-108591634D01*
X119712145Y-108531927D01*
X119713905Y-108462079D01*
X119748423Y-108408365D01*
X119872427Y-108295322D01*
X120003712Y-108121472D01*
X120100817Y-107926459D01*
X120160435Y-107716923D01*
X120180536Y-107500000D01*
X120160435Y-107283077D01*
X120100817Y-107073541D01*
X120003712Y-106878528D01*
X119872427Y-106704678D01*
X119711432Y-106557912D01*
X119711428Y-106557909D01*
X119711423Y-106557906D01*
X119526213Y-106443229D01*
X119526207Y-106443226D01*
X119441113Y-106410260D01*
X119323069Y-106364530D01*
X119108926Y-106324500D01*
X118891074Y-106324500D01*
X118676931Y-106364530D01*
X118628130Y-106383435D01*
X118473792Y-106443226D01*
X118473786Y-106443229D01*
X118288576Y-106557906D01*
X118288566Y-106557913D01*
X118127574Y-106704676D01*
X117996288Y-106878527D01*
X117899184Y-107073537D01*
X117839564Y-107283081D01*
X117819464Y-107499999D01*
X117819464Y-107500000D01*
X117839564Y-107716918D01*
X117839564Y-107716920D01*
X117839565Y-107716923D01*
X117896358Y-107916529D01*
X117899184Y-107926462D01*
X117996288Y-108121472D01*
X118127574Y-108295324D01*
X118251572Y-108408363D01*
X118287854Y-108468074D01*
X118286093Y-108537922D01*
X118251572Y-108591637D01*
X118127574Y-108704675D01*
X117996288Y-108878527D01*
X117899184Y-109073537D01*
X117839564Y-109283081D01*
X117819464Y-109499999D01*
X117819464Y-109500000D01*
X117839564Y-109716918D01*
X117839564Y-109716920D01*
X117839565Y-109716923D01*
X117876053Y-109845166D01*
X117899184Y-109926462D01*
X117996288Y-110121472D01*
X118127574Y-110295324D01*
X118251572Y-110408363D01*
X118287854Y-110468074D01*
X118286093Y-110537922D01*
X118251572Y-110591637D01*
X118127574Y-110704675D01*
X117996288Y-110878527D01*
X117899184Y-111073537D01*
X117839564Y-111283081D01*
X117819464Y-111499999D01*
X117819464Y-111500000D01*
X117839564Y-111716918D01*
X117899184Y-111926462D01*
X117996288Y-112121472D01*
X118077747Y-112229341D01*
X118102439Y-112294702D01*
X118087874Y-112363037D01*
X118053105Y-112403334D01*
X117967452Y-112467455D01*
X117881206Y-112582664D01*
X117881203Y-112582669D01*
X117849066Y-112668834D01*
X117807194Y-112724767D01*
X117741730Y-112749184D01*
X117732884Y-112749500D01*
X115452229Y-112749500D01*
X115385190Y-112729815D01*
X115364548Y-112713181D01*
X112233649Y-109582281D01*
X112200164Y-109520958D01*
X112197859Y-109483164D01*
X112204639Y-109410000D01*
X112184128Y-109188648D01*
X112123292Y-108974834D01*
X112024205Y-108775839D01*
X111890239Y-108598440D01*
X111890237Y-108598437D01*
X111725958Y-108448678D01*
X111725957Y-108448677D01*
X111536954Y-108331651D01*
X111536952Y-108331650D01*
X111536951Y-108331649D01*
X111329668Y-108251348D01*
X111329667Y-108251347D01*
X111329665Y-108251347D01*
X111111150Y-108210500D01*
X110888850Y-108210500D01*
X110670335Y-108251347D01*
X110670333Y-108251347D01*
X110670331Y-108251348D01*
X110463048Y-108331649D01*
X110463047Y-108331650D01*
X110274041Y-108448678D01*
X110109762Y-108598437D01*
X109975795Y-108775838D01*
X109876712Y-108974823D01*
X109876709Y-108974831D01*
X109876708Y-108974834D01*
X109874264Y-108983420D01*
X109836985Y-109042511D01*
X109773675Y-109072068D01*
X109704435Y-109062704D01*
X109651250Y-109017393D01*
X109635735Y-108983422D01*
X109633292Y-108974834D01*
X109534205Y-108775839D01*
X109400239Y-108598440D01*
X109400237Y-108598437D01*
X109235958Y-108448678D01*
X109235957Y-108448677D01*
X109046954Y-108331651D01*
X109046952Y-108331650D01*
X109046951Y-108331649D01*
X108839668Y-108251348D01*
X108839667Y-108251347D01*
X108839665Y-108251347D01*
X108621150Y-108210500D01*
X108398850Y-108210500D01*
X108180335Y-108251347D01*
X108180333Y-108251347D01*
X108180331Y-108251348D01*
X107973048Y-108331649D01*
X107973047Y-108331650D01*
X107784041Y-108448678D01*
X107619762Y-108598437D01*
X107485795Y-108775838D01*
X107386712Y-108974823D01*
X107386707Y-108974836D01*
X107325871Y-109188648D01*
X107305361Y-109409999D01*
X107305361Y-109410000D01*
X100000500Y-109410000D01*
X100000500Y-106000000D01*
X103351468Y-106000000D01*
X103371572Y-106293914D01*
X103431512Y-106582367D01*
X103431513Y-106582370D01*
X103530169Y-106859960D01*
X103530170Y-106859962D01*
X103665708Y-107121539D01*
X103835602Y-107362224D01*
X103835606Y-107362228D01*
X103835606Y-107362229D01*
X103910343Y-107442252D01*
X104036687Y-107577533D01*
X104265217Y-107763456D01*
X104265219Y-107763457D01*
X104265220Y-107763458D01*
X104516936Y-107916530D01*
X104516940Y-107916532D01*
X104787147Y-108033898D01*
X104787152Y-108033900D01*
X105070834Y-108113384D01*
X105327427Y-108148652D01*
X105362696Y-108153500D01*
X105362697Y-108153500D01*
X105657304Y-108153500D01*
X105688769Y-108149174D01*
X105949166Y-108113384D01*
X106232848Y-108033900D01*
X106340934Y-107986951D01*
X106503059Y-107916532D01*
X106503063Y-107916530D01*
X106503065Y-107916529D01*
X106754783Y-107763456D01*
X106983313Y-107577533D01*
X107184398Y-107362224D01*
X107354292Y-107121539D01*
X107489830Y-106859962D01*
X107588488Y-106582365D01*
X107648427Y-106293920D01*
X107668532Y-106000000D01*
X107648427Y-105706080D01*
X107588488Y-105417635D01*
X107489830Y-105140038D01*
X107354292Y-104878461D01*
X107184398Y-104637776D01*
X107184393Y-104637770D01*
X107117028Y-104565640D01*
X106983313Y-104422467D01*
X106754783Y-104236544D01*
X106754781Y-104236543D01*
X106754779Y-104236541D01*
X106503063Y-104083469D01*
X106503059Y-104083467D01*
X106232852Y-103966101D01*
X105949171Y-103886617D01*
X105949167Y-103886616D01*
X105949166Y-103886616D01*
X105803234Y-103866558D01*
X105657304Y-103846500D01*
X105657303Y-103846500D01*
X105362697Y-103846500D01*
X105362696Y-103846500D01*
X105070834Y-103886616D01*
X105070828Y-103886617D01*
X104787147Y-103966101D01*
X104516940Y-104083467D01*
X104516936Y-104083469D01*
X104265220Y-104236541D01*
X104036690Y-104422464D01*
X103835606Y-104637770D01*
X103835606Y-104637771D01*
X103665708Y-104878460D01*
X103530169Y-105140039D01*
X103431513Y-105417629D01*
X103431512Y-105417632D01*
X103371572Y-105706085D01*
X103351468Y-106000000D01*
X100000500Y-106000000D01*
X100000500Y-100124500D01*
X100020185Y-100057461D01*
X100072989Y-100011706D01*
X100124500Y-100000500D01*
X120875500Y-100000500D01*
X120942539Y-100020185D01*
G37*
%TD.AperFunction*%
M02*
