%TF.GenerationSoftware,KiCad,Pcbnew,7.0.7-2.fc38*%
%TF.CreationDate,2023-10-09T11:51:05-07:00*%
%TF.ProjectId,aekii-m3501,61656b69-692d-46d3-9335-30312e6b6963,rev?*%
%TF.SameCoordinates,Original*%
%TF.FileFunction,Copper,L2,Bot*%
%TF.FilePolarity,Positive*%
%FSLAX46Y46*%
G04 Gerber Fmt 4.6, Leading zero omitted, Abs format (unit mm)*
G04 Created by KiCad (PCBNEW 7.0.7-2.fc38) date 2023-10-09 11:51:05*
%MOMM*%
%LPD*%
G01*
G04 APERTURE LIST*
%TA.AperFunction,ComponentPad*%
%ADD10R,1.398000X1.398000*%
%TD*%
%TA.AperFunction,ComponentPad*%
%ADD11C,1.398000*%
%TD*%
%TA.AperFunction,ComponentPad*%
%ADD12C,3.306000*%
%TD*%
%TA.AperFunction,ComponentPad*%
%ADD13R,1.350000X1.350000*%
%TD*%
%TA.AperFunction,ComponentPad*%
%ADD14O,1.350000X1.350000*%
%TD*%
G04 APERTURE END LIST*
D10*
%TO.P,ADB-FEM1,1,1*%
%TO.N,JST-D+*%
X108510000Y-116110000D03*
D11*
%TO.P,ADB-FEM1,2,2*%
%TO.N,VBUS*%
X108510000Y-109410000D03*
%TO.P,ADB-FEM1,3,3*%
%TO.N,JST-D-*%
X111000000Y-116110000D03*
%TO.P,ADB-FEM1,4,4*%
%TO.N,GND*%
X111000000Y-109410000D03*
D12*
%TO.P,ADB-FEM1,5,SH*%
X104700000Y-112760000D03*
%TO.P,ADB-FEM1,6,SH*%
X105510000Y-106000000D03*
%TO.P,ADB-FEM1,7,SH*%
X105510000Y-119520000D03*
%TD*%
D13*
%TO.P,J2,1,Pin_1*%
%TO.N,GND*%
X119000000Y-113500000D03*
D14*
%TO.P,J2,2,Pin_2*%
%TO.N,JST-D-*%
X119000000Y-111500000D03*
%TO.P,J2,3,Pin_3*%
%TO.N,JST-D+*%
X119000000Y-109500000D03*
%TO.P,J2,4,Pin_4*%
%TO.N,VBUS*%
X119000000Y-107500000D03*
%TD*%
%TA.AperFunction,Conductor*%
%TO.N,GND*%
G36*
X120942539Y-100020185D02*
G01*
X120988294Y-100072989D01*
X120999500Y-100124500D01*
X120999500Y-120875500D01*
X120979815Y-120942539D01*
X120927011Y-120988294D01*
X120875500Y-120999500D01*
X107340312Y-120999500D01*
X107273273Y-120979815D01*
X107227518Y-120927011D01*
X107217574Y-120857853D01*
X107239008Y-120803991D01*
X107353863Y-120641278D01*
X107489370Y-120379760D01*
X107588003Y-120102235D01*
X107588008Y-120102218D01*
X107647930Y-119813854D01*
X107647931Y-119813852D01*
X107668030Y-119520000D01*
X107647931Y-119226147D01*
X107647930Y-119226145D01*
X107588008Y-118937781D01*
X107588003Y-118937764D01*
X107489370Y-118660239D01*
X107353863Y-118398721D01*
X107201160Y-118182392D01*
X106580933Y-118802618D01*
X106519610Y-118836103D01*
X106449918Y-118831119D01*
X106401615Y-118798475D01*
X106284687Y-118670210D01*
X106239754Y-118636278D01*
X106198119Y-118580169D01*
X106193428Y-118510457D01*
X106226801Y-118449644D01*
X106845474Y-117830971D01*
X106754493Y-117756953D01*
X106502827Y-117603911D01*
X106232685Y-117486573D01*
X105949069Y-117407107D01*
X105949063Y-117407106D01*
X105657270Y-117367000D01*
X105362730Y-117367000D01*
X105070936Y-117407106D01*
X105070930Y-117407107D01*
X104787314Y-117486573D01*
X104517172Y-117603911D01*
X104265506Y-117756953D01*
X104265505Y-117756954D01*
X104174525Y-117830971D01*
X104793198Y-118449645D01*
X104826683Y-118510968D01*
X104821699Y-118580660D01*
X104780244Y-118636280D01*
X104735314Y-118670209D01*
X104618383Y-118798476D01*
X104558671Y-118834757D01*
X104488824Y-118832996D01*
X104439065Y-118802618D01*
X103818838Y-118182391D01*
X103818837Y-118182391D01*
X103666140Y-118398714D01*
X103666136Y-118398720D01*
X103530629Y-118660239D01*
X103431996Y-118937764D01*
X103431991Y-118937781D01*
X103372069Y-119226145D01*
X103372068Y-119226147D01*
X103351969Y-119519999D01*
X103372068Y-119813852D01*
X103372069Y-119813854D01*
X103431991Y-120102218D01*
X103431996Y-120102235D01*
X103530629Y-120379760D01*
X103666136Y-120641278D01*
X103780992Y-120803991D01*
X103803571Y-120870112D01*
X103786818Y-120937944D01*
X103736052Y-120985950D01*
X103679688Y-120999500D01*
X100124500Y-120999500D01*
X100057461Y-120979815D01*
X100011706Y-120927011D01*
X100000500Y-120875500D01*
X100000500Y-116856870D01*
X107310500Y-116856870D01*
X107310501Y-116856876D01*
X107316908Y-116916483D01*
X107367202Y-117051328D01*
X107367206Y-117051335D01*
X107453452Y-117166544D01*
X107453455Y-117166547D01*
X107568664Y-117252793D01*
X107568671Y-117252797D01*
X107703517Y-117303091D01*
X107703516Y-117303091D01*
X107710444Y-117303835D01*
X107763127Y-117309500D01*
X109256872Y-117309499D01*
X109316483Y-117303091D01*
X109451331Y-117252796D01*
X109566546Y-117166546D01*
X109652796Y-117051331D01*
X109703091Y-116916483D01*
X109709500Y-116856873D01*
X109709499Y-116736580D01*
X109729183Y-116669544D01*
X109781987Y-116623789D01*
X109851145Y-116613845D01*
X109914701Y-116642869D01*
X109944499Y-116681311D01*
X109975795Y-116744161D01*
X110109762Y-116921562D01*
X110251088Y-117050397D01*
X110274043Y-117071323D01*
X110463046Y-117188349D01*
X110463047Y-117188349D01*
X110463048Y-117188350D01*
X110532142Y-117215116D01*
X110670335Y-117268653D01*
X110888850Y-117309500D01*
X110888853Y-117309500D01*
X111111147Y-117309500D01*
X111111150Y-117309500D01*
X111329665Y-117268653D01*
X111536954Y-117188349D01*
X111725957Y-117071323D01*
X111890239Y-116921560D01*
X112024205Y-116744161D01*
X112123292Y-116545166D01*
X112184128Y-116331352D01*
X112204639Y-116110000D01*
X112184128Y-115888648D01*
X112123292Y-115674834D01*
X112024205Y-115475839D01*
X111890239Y-115298440D01*
X111890237Y-115298437D01*
X111725958Y-115148678D01*
X111725957Y-115148677D01*
X111536954Y-115031651D01*
X111536952Y-115031650D01*
X111536951Y-115031649D01*
X111329668Y-114951348D01*
X111329667Y-114951347D01*
X111329665Y-114951347D01*
X111111150Y-114910500D01*
X110888850Y-114910500D01*
X110670335Y-114951347D01*
X110670333Y-114951347D01*
X110670331Y-114951348D01*
X110463048Y-115031649D01*
X110463047Y-115031650D01*
X110274041Y-115148678D01*
X110109762Y-115298437D01*
X109975795Y-115475838D01*
X109944499Y-115538689D01*
X109896996Y-115589926D01*
X109829333Y-115607347D01*
X109762992Y-115585421D01*
X109719038Y-115531110D01*
X109709499Y-115483417D01*
X109709499Y-115363129D01*
X109709498Y-115363123D01*
X109709497Y-115363116D01*
X109703091Y-115303517D01*
X109701197Y-115298440D01*
X109652797Y-115168671D01*
X109652793Y-115168664D01*
X109566547Y-115053455D01*
X109566544Y-115053452D01*
X109451335Y-114967206D01*
X109451328Y-114967202D01*
X109316482Y-114916908D01*
X109316483Y-114916908D01*
X109256883Y-114910501D01*
X109256881Y-114910500D01*
X109256873Y-114910500D01*
X109256864Y-114910500D01*
X107763129Y-114910500D01*
X107763123Y-114910501D01*
X107703516Y-114916908D01*
X107568671Y-114967202D01*
X107568664Y-114967206D01*
X107453455Y-115053452D01*
X107453452Y-115053455D01*
X107367206Y-115168664D01*
X107367202Y-115168671D01*
X107316908Y-115303517D01*
X107310501Y-115363116D01*
X107310501Y-115363123D01*
X107310500Y-115363135D01*
X107310500Y-116856870D01*
X100000500Y-116856870D01*
X100000500Y-112759999D01*
X102541969Y-112759999D01*
X102562068Y-113053852D01*
X102562069Y-113053854D01*
X102621991Y-113342218D01*
X102621996Y-113342235D01*
X102720629Y-113619760D01*
X102856136Y-113881278D01*
X103008838Y-114097606D01*
X103629065Y-113477380D01*
X103690388Y-113443895D01*
X103760080Y-113448879D01*
X103808383Y-113481523D01*
X103922408Y-113606603D01*
X103925314Y-113609790D01*
X103959101Y-113635305D01*
X103970243Y-113643719D01*
X104011879Y-113699828D01*
X104016570Y-113769540D01*
X103983197Y-113830354D01*
X103364524Y-114449027D01*
X103364524Y-114449028D01*
X103455499Y-114523041D01*
X103455503Y-114523044D01*
X103707172Y-114676088D01*
X103977314Y-114793426D01*
X104260930Y-114872892D01*
X104260936Y-114872893D01*
X104552730Y-114913000D01*
X104847270Y-114913000D01*
X105139063Y-114872893D01*
X105139069Y-114872892D01*
X105422685Y-114793426D01*
X105692827Y-114676088D01*
X105944493Y-114523046D01*
X106035474Y-114449027D01*
X105416801Y-113830354D01*
X105383316Y-113769031D01*
X105388300Y-113699339D01*
X105429753Y-113643721D01*
X105474686Y-113609790D01*
X105477592Y-113606603D01*
X105591616Y-113481524D01*
X105651327Y-113445242D01*
X105721174Y-113447003D01*
X105770934Y-113477381D01*
X106391160Y-114097606D01*
X106391161Y-114097606D01*
X106543863Y-113881278D01*
X106679370Y-113619760D01*
X106778003Y-113342235D01*
X106778008Y-113342218D01*
X106837930Y-113053854D01*
X106837931Y-113053852D01*
X106858030Y-112760000D01*
X106837931Y-112466147D01*
X106837930Y-112466145D01*
X106778008Y-112177781D01*
X106778003Y-112177764D01*
X106679370Y-111900239D01*
X106543863Y-111638721D01*
X106445942Y-111500000D01*
X117819464Y-111500000D01*
X117839564Y-111716918D01*
X117839564Y-111716920D01*
X117839565Y-111716923D01*
X117894560Y-111910210D01*
X117899184Y-111926462D01*
X117971215Y-112071119D01*
X117996288Y-112121472D01*
X118038810Y-112177781D01*
X118078049Y-112229741D01*
X118102741Y-112295102D01*
X118088176Y-112363437D01*
X118053406Y-112403735D01*
X117967809Y-112467813D01*
X117881649Y-112582906D01*
X117881645Y-112582913D01*
X117831403Y-112717620D01*
X117831401Y-112717627D01*
X117825000Y-112777155D01*
X117825000Y-113250000D01*
X118489424Y-113250000D01*
X118556463Y-113269685D01*
X118602218Y-113322489D01*
X118612162Y-113391647D01*
X118611897Y-113393397D01*
X118595014Y-113499996D01*
X118595014Y-113500003D01*
X118611897Y-113606603D01*
X118602942Y-113675896D01*
X118557946Y-113729348D01*
X118491194Y-113749987D01*
X118489424Y-113750000D01*
X117825000Y-113750000D01*
X117825000Y-114222844D01*
X117831401Y-114282372D01*
X117831403Y-114282379D01*
X117881645Y-114417086D01*
X117881649Y-114417093D01*
X117967809Y-114532187D01*
X117967812Y-114532190D01*
X118082906Y-114618350D01*
X118082913Y-114618354D01*
X118217620Y-114668596D01*
X118217627Y-114668598D01*
X118277155Y-114674999D01*
X118277172Y-114675000D01*
X118749999Y-114675000D01*
X118750000Y-114010575D01*
X118769685Y-113943536D01*
X118822489Y-113897781D01*
X118891647Y-113887837D01*
X118893331Y-113888091D01*
X118925699Y-113893218D01*
X118968515Y-113900000D01*
X118968519Y-113900000D01*
X119031485Y-113900000D01*
X119074300Y-113893218D01*
X119106602Y-113888102D01*
X119175894Y-113897056D01*
X119229347Y-113942052D01*
X119249987Y-114008803D01*
X119250000Y-114010575D01*
X119250000Y-114675000D01*
X119722828Y-114675000D01*
X119722844Y-114674999D01*
X119782372Y-114668598D01*
X119782379Y-114668596D01*
X119917086Y-114618354D01*
X119917093Y-114618350D01*
X120032187Y-114532190D01*
X120032190Y-114532187D01*
X120118350Y-114417093D01*
X120118354Y-114417086D01*
X120168596Y-114282379D01*
X120168598Y-114282372D01*
X120174999Y-114222844D01*
X120175000Y-114222827D01*
X120175000Y-113750000D01*
X119510576Y-113750000D01*
X119443537Y-113730315D01*
X119397782Y-113677511D01*
X119387838Y-113608353D01*
X119388103Y-113606603D01*
X119404986Y-113500003D01*
X119404986Y-113499996D01*
X119388103Y-113393397D01*
X119397058Y-113324104D01*
X119442054Y-113270652D01*
X119508806Y-113250013D01*
X119510576Y-113250000D01*
X120175000Y-113250000D01*
X120175000Y-112777172D01*
X120174999Y-112777155D01*
X120168598Y-112717627D01*
X120168596Y-112717620D01*
X120118354Y-112582913D01*
X120118350Y-112582906D01*
X120032190Y-112467812D01*
X119946593Y-112403733D01*
X119904723Y-112347799D01*
X119899739Y-112278107D01*
X119921951Y-112229741D01*
X120003712Y-112121472D01*
X120100817Y-111926459D01*
X120160435Y-111716923D01*
X120180536Y-111500000D01*
X120160435Y-111283077D01*
X120100817Y-111073541D01*
X120003712Y-110878528D01*
X119872427Y-110704678D01*
X119872425Y-110704675D01*
X119748427Y-110591637D01*
X119712145Y-110531926D01*
X119713906Y-110462079D01*
X119748427Y-110408363D01*
X119872425Y-110295324D01*
X119872427Y-110295322D01*
X120003712Y-110121472D01*
X120100817Y-109926459D01*
X120160435Y-109716923D01*
X120180536Y-109500000D01*
X120160435Y-109283077D01*
X120100817Y-109073541D01*
X120003712Y-108878528D01*
X119926370Y-108776110D01*
X119872425Y-108704675D01*
X119748427Y-108591637D01*
X119712145Y-108531926D01*
X119713906Y-108462079D01*
X119748427Y-108408363D01*
X119872425Y-108295324D01*
X119872427Y-108295322D01*
X120003712Y-108121472D01*
X120100817Y-107926459D01*
X120160435Y-107716923D01*
X120180536Y-107500000D01*
X120160435Y-107283077D01*
X120100817Y-107073541D01*
X120003712Y-106878528D01*
X119872427Y-106704678D01*
X119853038Y-106687003D01*
X119711433Y-106557913D01*
X119711423Y-106557906D01*
X119526213Y-106443229D01*
X119526207Y-106443226D01*
X119441113Y-106410260D01*
X119323069Y-106364530D01*
X119108926Y-106324500D01*
X118891074Y-106324500D01*
X118676931Y-106364530D01*
X118628130Y-106383435D01*
X118473792Y-106443226D01*
X118473786Y-106443229D01*
X118288576Y-106557906D01*
X118288566Y-106557913D01*
X118127574Y-106704676D01*
X117996288Y-106878527D01*
X117899184Y-107073537D01*
X117839564Y-107283081D01*
X117819464Y-107499999D01*
X117819464Y-107500000D01*
X117839564Y-107716918D01*
X117899184Y-107926462D01*
X117996288Y-108121472D01*
X118127574Y-108295324D01*
X118251572Y-108408363D01*
X118287854Y-108468074D01*
X118286093Y-108537922D01*
X118251572Y-108591637D01*
X118127574Y-108704675D01*
X117996288Y-108878527D01*
X117899184Y-109073537D01*
X117839564Y-109283081D01*
X117819464Y-109499999D01*
X117819464Y-109500000D01*
X117839564Y-109716918D01*
X117839564Y-109716920D01*
X117839565Y-109716923D01*
X117878851Y-109855000D01*
X117899184Y-109926462D01*
X117996288Y-110121472D01*
X118127574Y-110295324D01*
X118251572Y-110408363D01*
X118287854Y-110468074D01*
X118286093Y-110537922D01*
X118251572Y-110591637D01*
X118127574Y-110704675D01*
X117996288Y-110878527D01*
X117899184Y-111073537D01*
X117839564Y-111283081D01*
X117819464Y-111499999D01*
X117819464Y-111500000D01*
X106445942Y-111500000D01*
X106391160Y-111422392D01*
X105770933Y-112042618D01*
X105709610Y-112076103D01*
X105639918Y-112071119D01*
X105591615Y-112038475D01*
X105474687Y-111910210D01*
X105429754Y-111876278D01*
X105388119Y-111820169D01*
X105383428Y-111750457D01*
X105416801Y-111689644D01*
X106035474Y-111070971D01*
X105944493Y-110996953D01*
X105692827Y-110843911D01*
X105422685Y-110726573D01*
X105139069Y-110647107D01*
X105139063Y-110647106D01*
X104847270Y-110607000D01*
X104552730Y-110607000D01*
X104260936Y-110647106D01*
X104260930Y-110647107D01*
X103977314Y-110726573D01*
X103707172Y-110843911D01*
X103455506Y-110996953D01*
X103455505Y-110996954D01*
X103364525Y-111070971D01*
X103983198Y-111689645D01*
X104016683Y-111750968D01*
X104011699Y-111820660D01*
X103970244Y-111876280D01*
X103925314Y-111910209D01*
X103808383Y-112038476D01*
X103748671Y-112074757D01*
X103678824Y-112072996D01*
X103629065Y-112042618D01*
X103008838Y-111422391D01*
X103008837Y-111422391D01*
X102856140Y-111638714D01*
X102856136Y-111638720D01*
X102720629Y-111900239D01*
X102621996Y-112177764D01*
X102621991Y-112177781D01*
X102562069Y-112466145D01*
X102562068Y-112466147D01*
X102541969Y-112759999D01*
X100000500Y-112759999D01*
X100000500Y-109410000D01*
X107305360Y-109410000D01*
X107325871Y-109631351D01*
X107386707Y-109845163D01*
X107386712Y-109845176D01*
X107485795Y-110044161D01*
X107619762Y-110221562D01*
X107700676Y-110295324D01*
X107784043Y-110371323D01*
X107973046Y-110488349D01*
X107973047Y-110488349D01*
X107973048Y-110488350D01*
X108042142Y-110515117D01*
X108180335Y-110568653D01*
X108398850Y-110609500D01*
X108398853Y-110609500D01*
X108621147Y-110609500D01*
X108621150Y-110609500D01*
X108839665Y-110568653D01*
X109046954Y-110488349D01*
X109235957Y-110371323D01*
X109400239Y-110221560D01*
X109534205Y-110044161D01*
X109633292Y-109845166D01*
X109635993Y-109835672D01*
X109673266Y-109776580D01*
X109736574Y-109747019D01*
X109805814Y-109756377D01*
X109859003Y-109801683D01*
X109874524Y-109835663D01*
X109877176Y-109844983D01*
X109877180Y-109844994D01*
X109976224Y-110043900D01*
X109991851Y-110064594D01*
X110428372Y-109628073D01*
X110489695Y-109594588D01*
X110559386Y-109599572D01*
X110612999Y-109638440D01*
X110693905Y-109739892D01*
X110766322Y-109789265D01*
X110810624Y-109843294D01*
X110818682Y-109912698D01*
X110787940Y-109975440D01*
X110784151Y-109979400D01*
X110347397Y-110416153D01*
X110463268Y-110487898D01*
X110463270Y-110487899D01*
X110670473Y-110568169D01*
X110888899Y-110609000D01*
X111111101Y-110609000D01*
X111329525Y-110568169D01*
X111329535Y-110568166D01*
X111536729Y-110487899D01*
X111536731Y-110487898D01*
X111652601Y-110416153D01*
X111218311Y-109981864D01*
X111184826Y-109920541D01*
X111189810Y-109850850D01*
X111231681Y-109794916D01*
X111252192Y-109782463D01*
X111253509Y-109781829D01*
X111351844Y-109690587D01*
X111374372Y-109651566D01*
X111424936Y-109603352D01*
X111493543Y-109590128D01*
X111558408Y-109616095D01*
X111569439Y-109625886D01*
X112008147Y-110064594D01*
X112023776Y-110043898D01*
X112023783Y-110043886D01*
X112122817Y-109844999D01*
X112122825Y-109844979D01*
X112183633Y-109631261D01*
X112183634Y-109631259D01*
X112204136Y-109410000D01*
X112204136Y-109409999D01*
X112183634Y-109188740D01*
X112183633Y-109188738D01*
X112122825Y-108975020D01*
X112122819Y-108975005D01*
X112023781Y-108776110D01*
X112023776Y-108776103D01*
X112008146Y-108755404D01*
X111571626Y-109191924D01*
X111510303Y-109225409D01*
X111440611Y-109220425D01*
X111386998Y-109181556D01*
X111376020Y-109167790D01*
X111306095Y-109080108D01*
X111233674Y-109030732D01*
X111189375Y-108976705D01*
X111181315Y-108907302D01*
X111212058Y-108844559D01*
X111215847Y-108840599D01*
X111652601Y-108403845D01*
X111652600Y-108403844D01*
X111536733Y-108332102D01*
X111536727Y-108332099D01*
X111329526Y-108251830D01*
X111111101Y-108211000D01*
X110888899Y-108211000D01*
X110670474Y-108251830D01*
X110670473Y-108251830D01*
X110463272Y-108332099D01*
X110463266Y-108332103D01*
X110347398Y-108403844D01*
X110347397Y-108403845D01*
X110781688Y-108838135D01*
X110815173Y-108899458D01*
X110810189Y-108969149D01*
X110768318Y-109025083D01*
X110747814Y-109037534D01*
X110746489Y-109038171D01*
X110648156Y-109129412D01*
X110625628Y-109168433D01*
X110575060Y-109216648D01*
X110506453Y-109229870D01*
X110441589Y-109203902D01*
X110430560Y-109194113D01*
X109991852Y-108755404D01*
X109976223Y-108776101D01*
X109877180Y-108975005D01*
X109877174Y-108975022D01*
X109874523Y-108984338D01*
X109837240Y-109043429D01*
X109773928Y-109072983D01*
X109704689Y-109063616D01*
X109651506Y-109018302D01*
X109635994Y-108984333D01*
X109633292Y-108974834D01*
X109630461Y-108969149D01*
X109565224Y-108838135D01*
X109534205Y-108775839D01*
X109400239Y-108598440D01*
X109400237Y-108598437D01*
X109235958Y-108448678D01*
X109235957Y-108448677D01*
X109046954Y-108331651D01*
X109046952Y-108331650D01*
X109046951Y-108331649D01*
X108839668Y-108251348D01*
X108839667Y-108251347D01*
X108839665Y-108251347D01*
X108621150Y-108210500D01*
X108398850Y-108210500D01*
X108180335Y-108251347D01*
X108180333Y-108251347D01*
X108180331Y-108251348D01*
X107973048Y-108331649D01*
X107973047Y-108331650D01*
X107784041Y-108448678D01*
X107619762Y-108598437D01*
X107485795Y-108775838D01*
X107386712Y-108974823D01*
X107386707Y-108974836D01*
X107325871Y-109188648D01*
X107305360Y-109409999D01*
X107305360Y-109410000D01*
X100000500Y-109410000D01*
X100000500Y-105999999D01*
X103351969Y-105999999D01*
X103372068Y-106293852D01*
X103372069Y-106293854D01*
X103431991Y-106582218D01*
X103431996Y-106582235D01*
X103530629Y-106859760D01*
X103666136Y-107121278D01*
X103818838Y-107337606D01*
X104439065Y-106717380D01*
X104500388Y-106683895D01*
X104570080Y-106688879D01*
X104618382Y-106721522D01*
X104735314Y-106849790D01*
X104769101Y-106875305D01*
X104780243Y-106883719D01*
X104821879Y-106939828D01*
X104826570Y-107009540D01*
X104793197Y-107070354D01*
X104174524Y-107689027D01*
X104174524Y-107689028D01*
X104265499Y-107763041D01*
X104265503Y-107763044D01*
X104517172Y-107916088D01*
X104787314Y-108033426D01*
X105070930Y-108112892D01*
X105070936Y-108112893D01*
X105362730Y-108153000D01*
X105657270Y-108153000D01*
X105949063Y-108112893D01*
X105949069Y-108112892D01*
X106232685Y-108033426D01*
X106502827Y-107916088D01*
X106754493Y-107763046D01*
X106845474Y-107689027D01*
X106226801Y-107070354D01*
X106193316Y-107009031D01*
X106198300Y-106939339D01*
X106239753Y-106883721D01*
X106284686Y-106849790D01*
X106401616Y-106721523D01*
X106461327Y-106685242D01*
X106531174Y-106687003D01*
X106580934Y-106717381D01*
X107201160Y-107337606D01*
X107201161Y-107337606D01*
X107353863Y-107121278D01*
X107489370Y-106859760D01*
X107588003Y-106582235D01*
X107588008Y-106582218D01*
X107647930Y-106293854D01*
X107647931Y-106293852D01*
X107668030Y-106000000D01*
X107647931Y-105706147D01*
X107647930Y-105706145D01*
X107588008Y-105417781D01*
X107588003Y-105417764D01*
X107489370Y-105140239D01*
X107353863Y-104878721D01*
X107201160Y-104662392D01*
X106580933Y-105282618D01*
X106519610Y-105316103D01*
X106449918Y-105311119D01*
X106401615Y-105278475D01*
X106284687Y-105150210D01*
X106239754Y-105116278D01*
X106198119Y-105060169D01*
X106193428Y-104990457D01*
X106226801Y-104929644D01*
X106845474Y-104310971D01*
X106754493Y-104236953D01*
X106502827Y-104083911D01*
X106232685Y-103966573D01*
X105949069Y-103887107D01*
X105949063Y-103887106D01*
X105657270Y-103847000D01*
X105362730Y-103847000D01*
X105070936Y-103887106D01*
X105070930Y-103887107D01*
X104787314Y-103966573D01*
X104517172Y-104083911D01*
X104265506Y-104236953D01*
X104265505Y-104236954D01*
X104174525Y-104310971D01*
X104793198Y-104929645D01*
X104826683Y-104990968D01*
X104821699Y-105060660D01*
X104780244Y-105116280D01*
X104735314Y-105150209D01*
X104618383Y-105278476D01*
X104558671Y-105314757D01*
X104488824Y-105312996D01*
X104439065Y-105282618D01*
X103818838Y-104662391D01*
X103818837Y-104662391D01*
X103666140Y-104878714D01*
X103666136Y-104878720D01*
X103530629Y-105140239D01*
X103431996Y-105417764D01*
X103431991Y-105417781D01*
X103372069Y-105706145D01*
X103372068Y-105706147D01*
X103351969Y-105999999D01*
X100000500Y-105999999D01*
X100000500Y-100124500D01*
X100020185Y-100057461D01*
X100072989Y-100011706D01*
X100124500Y-100000500D01*
X120875500Y-100000500D01*
X120942539Y-100020185D01*
G37*
%TD.AperFunction*%
%TD*%
M02*
