%TF.GenerationSoftware,KiCad,Pcbnew,7.0.7-2.fc38*%
%TF.CreationDate,2023-10-09T11:51:05-07:00*%
%TF.ProjectId,aekii-m3501,61656b69-692d-46d3-9335-30312e6b6963,rev?*%
%TF.SameCoordinates,Original*%
%TF.FileFunction,Legend,Top*%
%TF.FilePolarity,Positive*%
%FSLAX46Y46*%
G04 Gerber Fmt 4.6, Leading zero omitted, Abs format (unit mm)*
G04 Created by KiCad (PCBNEW 7.0.7-2.fc38) date 2023-10-09 11:51:05*
%MOMM*%
%LPD*%
G01*
G04 APERTURE LIST*
%ADD10C,0.150000*%
%ADD11C,0.127000*%
%ADD12C,0.200000*%
%ADD13C,0.120000*%
G04 APERTURE END LIST*
D10*
X115336779Y-109869819D02*
X115336779Y-108869819D01*
X115336779Y-108869819D02*
X115574874Y-108869819D01*
X115574874Y-108869819D02*
X115717731Y-108917438D01*
X115717731Y-108917438D02*
X115812969Y-109012676D01*
X115812969Y-109012676D02*
X115860588Y-109107914D01*
X115860588Y-109107914D02*
X115908207Y-109298390D01*
X115908207Y-109298390D02*
X115908207Y-109441247D01*
X115908207Y-109441247D02*
X115860588Y-109631723D01*
X115860588Y-109631723D02*
X115812969Y-109726961D01*
X115812969Y-109726961D02*
X115717731Y-109822200D01*
X115717731Y-109822200D02*
X115574874Y-109869819D01*
X115574874Y-109869819D02*
X115336779Y-109869819D01*
X116336779Y-109488866D02*
X117098684Y-109488866D01*
X116717731Y-109869819D02*
X116717731Y-109107914D01*
X115336779Y-111869819D02*
X115336779Y-110869819D01*
X115336779Y-110869819D02*
X115574874Y-110869819D01*
X115574874Y-110869819D02*
X115717731Y-110917438D01*
X115717731Y-110917438D02*
X115812969Y-111012676D01*
X115812969Y-111012676D02*
X115860588Y-111107914D01*
X115860588Y-111107914D02*
X115908207Y-111298390D01*
X115908207Y-111298390D02*
X115908207Y-111441247D01*
X115908207Y-111441247D02*
X115860588Y-111631723D01*
X115860588Y-111631723D02*
X115812969Y-111726961D01*
X115812969Y-111726961D02*
X115717731Y-111822200D01*
X115717731Y-111822200D02*
X115574874Y-111869819D01*
X115574874Y-111869819D02*
X115336779Y-111869819D01*
X116336779Y-111488866D02*
X117098684Y-111488866D01*
X114860588Y-112917438D02*
X114765350Y-112869819D01*
X114765350Y-112869819D02*
X114622493Y-112869819D01*
X114622493Y-112869819D02*
X114479636Y-112917438D01*
X114479636Y-112917438D02*
X114384398Y-113012676D01*
X114384398Y-113012676D02*
X114336779Y-113107914D01*
X114336779Y-113107914D02*
X114289160Y-113298390D01*
X114289160Y-113298390D02*
X114289160Y-113441247D01*
X114289160Y-113441247D02*
X114336779Y-113631723D01*
X114336779Y-113631723D02*
X114384398Y-113726961D01*
X114384398Y-113726961D02*
X114479636Y-113822200D01*
X114479636Y-113822200D02*
X114622493Y-113869819D01*
X114622493Y-113869819D02*
X114717731Y-113869819D01*
X114717731Y-113869819D02*
X114860588Y-113822200D01*
X114860588Y-113822200D02*
X114908207Y-113774580D01*
X114908207Y-113774580D02*
X114908207Y-113441247D01*
X114908207Y-113441247D02*
X114717731Y-113441247D01*
X115336779Y-113869819D02*
X115336779Y-112869819D01*
X115336779Y-112869819D02*
X115908207Y-113869819D01*
X115908207Y-113869819D02*
X115908207Y-112869819D01*
X116384398Y-113869819D02*
X116384398Y-112869819D01*
X116384398Y-112869819D02*
X116622493Y-112869819D01*
X116622493Y-112869819D02*
X116765350Y-112917438D01*
X116765350Y-112917438D02*
X116860588Y-113012676D01*
X116860588Y-113012676D02*
X116908207Y-113107914D01*
X116908207Y-113107914D02*
X116955826Y-113298390D01*
X116955826Y-113298390D02*
X116955826Y-113441247D01*
X116955826Y-113441247D02*
X116908207Y-113631723D01*
X116908207Y-113631723D02*
X116860588Y-113726961D01*
X116860588Y-113726961D02*
X116765350Y-113822200D01*
X116765350Y-113822200D02*
X116622493Y-113869819D01*
X116622493Y-113869819D02*
X116384398Y-113869819D01*
X114193922Y-106869819D02*
X114527255Y-107869819D01*
X114527255Y-107869819D02*
X114860588Y-106869819D01*
X115527255Y-107346009D02*
X115670112Y-107393628D01*
X115670112Y-107393628D02*
X115717731Y-107441247D01*
X115717731Y-107441247D02*
X115765350Y-107536485D01*
X115765350Y-107536485D02*
X115765350Y-107679342D01*
X115765350Y-107679342D02*
X115717731Y-107774580D01*
X115717731Y-107774580D02*
X115670112Y-107822200D01*
X115670112Y-107822200D02*
X115574874Y-107869819D01*
X115574874Y-107869819D02*
X115193922Y-107869819D01*
X115193922Y-107869819D02*
X115193922Y-106869819D01*
X115193922Y-106869819D02*
X115527255Y-106869819D01*
X115527255Y-106869819D02*
X115622493Y-106917438D01*
X115622493Y-106917438D02*
X115670112Y-106965057D01*
X115670112Y-106965057D02*
X115717731Y-107060295D01*
X115717731Y-107060295D02*
X115717731Y-107155533D01*
X115717731Y-107155533D02*
X115670112Y-107250771D01*
X115670112Y-107250771D02*
X115622493Y-107298390D01*
X115622493Y-107298390D02*
X115527255Y-107346009D01*
X115527255Y-107346009D02*
X115193922Y-107346009D01*
X116193922Y-106869819D02*
X116193922Y-107679342D01*
X116193922Y-107679342D02*
X116241541Y-107774580D01*
X116241541Y-107774580D02*
X116289160Y-107822200D01*
X116289160Y-107822200D02*
X116384398Y-107869819D01*
X116384398Y-107869819D02*
X116574874Y-107869819D01*
X116574874Y-107869819D02*
X116670112Y-107822200D01*
X116670112Y-107822200D02*
X116717731Y-107774580D01*
X116717731Y-107774580D02*
X116765350Y-107679342D01*
X116765350Y-107679342D02*
X116765350Y-106869819D01*
X117193922Y-107822200D02*
X117336779Y-107869819D01*
X117336779Y-107869819D02*
X117574874Y-107869819D01*
X117574874Y-107869819D02*
X117670112Y-107822200D01*
X117670112Y-107822200D02*
X117717731Y-107774580D01*
X117717731Y-107774580D02*
X117765350Y-107679342D01*
X117765350Y-107679342D02*
X117765350Y-107584104D01*
X117765350Y-107584104D02*
X117717731Y-107488866D01*
X117717731Y-107488866D02*
X117670112Y-107441247D01*
X117670112Y-107441247D02*
X117574874Y-107393628D01*
X117574874Y-107393628D02*
X117384398Y-107346009D01*
X117384398Y-107346009D02*
X117289160Y-107298390D01*
X117289160Y-107298390D02*
X117241541Y-107250771D01*
X117241541Y-107250771D02*
X117193922Y-107155533D01*
X117193922Y-107155533D02*
X117193922Y-107060295D01*
X117193922Y-107060295D02*
X117241541Y-106965057D01*
X117241541Y-106965057D02*
X117289160Y-106917438D01*
X117289160Y-106917438D02*
X117384398Y-106869819D01*
X117384398Y-106869819D02*
X117622493Y-106869819D01*
X117622493Y-106869819D02*
X117765350Y-106917438D01*
X102133803Y-116030270D02*
X102133803Y-115649104D01*
X102362503Y-116106503D02*
X101562054Y-115839687D01*
X101562054Y-115839687D02*
X102362503Y-115572871D01*
X102362503Y-115306054D02*
X101562054Y-115306054D01*
X101562054Y-115306054D02*
X101562054Y-115115471D01*
X101562054Y-115115471D02*
X101600171Y-115001121D01*
X101600171Y-115001121D02*
X101676404Y-114924888D01*
X101676404Y-114924888D02*
X101752637Y-114886772D01*
X101752637Y-114886772D02*
X101905104Y-114848655D01*
X101905104Y-114848655D02*
X102019454Y-114848655D01*
X102019454Y-114848655D02*
X102171920Y-114886772D01*
X102171920Y-114886772D02*
X102248153Y-114924888D01*
X102248153Y-114924888D02*
X102324387Y-115001121D01*
X102324387Y-115001121D02*
X102362503Y-115115471D01*
X102362503Y-115115471D02*
X102362503Y-115306054D01*
X101943220Y-114238789D02*
X101981337Y-114124439D01*
X101981337Y-114124439D02*
X102019454Y-114086323D01*
X102019454Y-114086323D02*
X102095687Y-114048206D01*
X102095687Y-114048206D02*
X102210037Y-114048206D01*
X102210037Y-114048206D02*
X102286270Y-114086323D01*
X102286270Y-114086323D02*
X102324387Y-114124439D01*
X102324387Y-114124439D02*
X102362503Y-114200672D01*
X102362503Y-114200672D02*
X102362503Y-114505605D01*
X102362503Y-114505605D02*
X101562054Y-114505605D01*
X101562054Y-114505605D02*
X101562054Y-114238789D01*
X101562054Y-114238789D02*
X101600171Y-114162556D01*
X101600171Y-114162556D02*
X101638287Y-114124439D01*
X101638287Y-114124439D02*
X101714521Y-114086323D01*
X101714521Y-114086323D02*
X101790754Y-114086323D01*
X101790754Y-114086323D02*
X101866987Y-114124439D01*
X101866987Y-114124439D02*
X101905104Y-114162556D01*
X101905104Y-114162556D02*
X101943220Y-114238789D01*
X101943220Y-114238789D02*
X101943220Y-114505605D01*
X102057570Y-113705156D02*
X102057570Y-113095291D01*
X101943220Y-112447308D02*
X101943220Y-112714124D01*
X102362503Y-112714124D02*
X101562054Y-112714124D01*
X101562054Y-112714124D02*
X101562054Y-112332958D01*
X101943220Y-112028025D02*
X101943220Y-111761209D01*
X102362503Y-111646859D02*
X102362503Y-112028025D01*
X102362503Y-112028025D02*
X101562054Y-112028025D01*
X101562054Y-112028025D02*
X101562054Y-111646859D01*
X102362503Y-111303809D02*
X101562054Y-111303809D01*
X101562054Y-111303809D02*
X102133803Y-111036993D01*
X102133803Y-111036993D02*
X101562054Y-110770177D01*
X101562054Y-110770177D02*
X102362503Y-110770177D01*
X102362503Y-109969728D02*
X102362503Y-110427127D01*
X102362503Y-110198427D02*
X101562054Y-110198427D01*
X101562054Y-110198427D02*
X101676404Y-110274661D01*
X101676404Y-110274661D02*
X101752637Y-110350894D01*
X101752637Y-110350894D02*
X101790754Y-110427127D01*
X118666666Y-115014819D02*
X118666666Y-115729104D01*
X118666666Y-115729104D02*
X118619047Y-115871961D01*
X118619047Y-115871961D02*
X118523809Y-115967200D01*
X118523809Y-115967200D02*
X118380952Y-116014819D01*
X118380952Y-116014819D02*
X118285714Y-116014819D01*
X119095238Y-115110057D02*
X119142857Y-115062438D01*
X119142857Y-115062438D02*
X119238095Y-115014819D01*
X119238095Y-115014819D02*
X119476190Y-115014819D01*
X119476190Y-115014819D02*
X119571428Y-115062438D01*
X119571428Y-115062438D02*
X119619047Y-115110057D01*
X119619047Y-115110057D02*
X119666666Y-115205295D01*
X119666666Y-115205295D02*
X119666666Y-115300533D01*
X119666666Y-115300533D02*
X119619047Y-115443390D01*
X119619047Y-115443390D02*
X119047619Y-116014819D01*
X119047619Y-116014819D02*
X119666666Y-116014819D01*
D11*
%TO.C,ADB-FEM1*%
X100000000Y-119760000D02*
X100000000Y-105760000D01*
X103440000Y-119760000D02*
X100000000Y-119760000D01*
X107620000Y-119730000D02*
X112830000Y-119730000D01*
X112830000Y-119730000D02*
X112830000Y-119760000D01*
X103440000Y-105760000D02*
X100000000Y-105760000D01*
X107620000Y-105760000D02*
X112830000Y-105760000D01*
X112830000Y-105760000D02*
X112830000Y-119730000D01*
D12*
X113410000Y-116160000D02*
G75*
G03*
X113410000Y-116160000I-100000J0D01*
G01*
D13*
%TO.C,J2*%
X120060000Y-114560000D02*
X119000000Y-114560000D01*
X120060000Y-113500000D02*
X120060000Y-114560000D01*
X120060000Y-112500000D02*
X120060000Y-106440000D01*
X120060000Y-112500000D02*
X117940000Y-112500000D01*
X120060000Y-106440000D02*
X117940000Y-106440000D01*
X117940000Y-112500000D02*
X117940000Y-106440000D01*
%TD*%
M02*
