%TF.GenerationSoftware,KiCad,Pcbnew,7.0.9-1.fc39*%
%TF.CreationDate,2023-12-29T10:14:23-08:00*%
%TF.ProjectId,ADB-USB-adapter,4144422d-5553-4422-9d61-646170746572,rev?*%
%TF.SameCoordinates,Original*%
%TF.FileFunction,Copper,L2,Bot*%
%TF.FilePolarity,Positive*%
%FSLAX46Y46*%
G04 Gerber Fmt 4.6, Leading zero omitted, Abs format (unit mm)*
G04 Created by KiCad (PCBNEW 7.0.9-1.fc39) date 2023-12-29 10:14:23*
%MOMM*%
%LPD*%
G01*
G04 APERTURE LIST*
%TA.AperFunction,ComponentPad*%
%ADD10R,1.700000X1.700000*%
%TD*%
%TA.AperFunction,ComponentPad*%
%ADD11C,1.700000*%
%TD*%
%TA.AperFunction,ComponentPad*%
%ADD12C,3.500000*%
%TD*%
%TA.AperFunction,ComponentPad*%
%ADD13R,1.398000X1.398000*%
%TD*%
%TA.AperFunction,ComponentPad*%
%ADD14C,1.398000*%
%TD*%
%TA.AperFunction,ComponentPad*%
%ADD15C,3.306000*%
%TD*%
G04 APERTURE END LIST*
D10*
%TO.P,USB1,1,VBUS*%
%TO.N,Net-(USB1-VBUS)*%
X36576000Y-28702000D03*
D11*
%TO.P,USB1,2,D-*%
%TO.N,Net-(USB1-D-)*%
X36576000Y-31202000D03*
%TO.P,USB1,3,D+*%
%TO.N,Net-(USB1-D+)*%
X38576000Y-31202000D03*
%TO.P,USB1,4,GND*%
%TO.N,GND*%
X38576000Y-28702000D03*
D12*
%TO.P,USB1,5,Shield*%
%TO.N,Net-(USB1-Shield)*%
X41286000Y-23932000D03*
X41286000Y-35972000D03*
%TD*%
D13*
%TO.P,ADB-FEMALE1,1,1*%
%TO.N,Net-(USB1-D+)*%
X28400000Y-33166800D03*
D14*
%TO.P,ADB-FEMALE1,2,2*%
%TO.N,Net-(USB1-VBUS)*%
X28400000Y-26466800D03*
%TO.P,ADB-FEMALE1,3,3*%
%TO.N,Net-(USB1-D-)*%
X30890000Y-33166800D03*
%TO.P,ADB-FEMALE1,4,4*%
%TO.N,GND*%
X30890000Y-26466800D03*
D15*
%TO.P,ADB-FEMALE1,5,SH*%
%TO.N,Net-(USB1-Shield)*%
X24590000Y-29816800D03*
%TO.P,ADB-FEMALE1,6,SH*%
X25400000Y-23056800D03*
%TO.P,ADB-FEMALE1,7,SH*%
X25400000Y-36576800D03*
%TD*%
%TA.AperFunction,Conductor*%
%TO.N,GND*%
G36*
X49531737Y-19050598D02*
G01*
X49565041Y-19052467D01*
X49645603Y-19056992D01*
X49817691Y-19067401D01*
X49824297Y-19068160D01*
X49895907Y-19080327D01*
X49960343Y-19091277D01*
X50053462Y-19108340D01*
X50109227Y-19118560D01*
X50115198Y-19119963D01*
X50252032Y-19159384D01*
X50392850Y-19203265D01*
X50398092Y-19205164D01*
X50531420Y-19260391D01*
X50664609Y-19320334D01*
X50669147Y-19322605D01*
X50742221Y-19362991D01*
X50796422Y-19392947D01*
X50796439Y-19392956D01*
X50920935Y-19468217D01*
X50924739Y-19470711D01*
X51042726Y-19554427D01*
X51045072Y-19556176D01*
X51140416Y-19630874D01*
X51158332Y-19644910D01*
X51161409Y-19647486D01*
X51269430Y-19744018D01*
X51271957Y-19746408D01*
X51373590Y-19848041D01*
X51375980Y-19850568D01*
X51472512Y-19958589D01*
X51475088Y-19961666D01*
X51563811Y-20074912D01*
X51565571Y-20077272D01*
X51649287Y-20195259D01*
X51651781Y-20199063D01*
X51727043Y-20323560D01*
X51797393Y-20450851D01*
X51799668Y-20455398D01*
X51859609Y-20588581D01*
X51914831Y-20721899D01*
X51916744Y-20727183D01*
X51939633Y-20800634D01*
X51960631Y-20868021D01*
X52000032Y-21004790D01*
X52001440Y-21010781D01*
X52028722Y-21159656D01*
X52051835Y-21295683D01*
X52052599Y-21302330D01*
X52063012Y-21474475D01*
X52069402Y-21588263D01*
X52069500Y-21591741D01*
X52069500Y-38098258D01*
X52069402Y-38101736D01*
X52063012Y-38215524D01*
X52052599Y-38387668D01*
X52051835Y-38394315D01*
X52028722Y-38530343D01*
X52001440Y-38679217D01*
X52000032Y-38685208D01*
X51960625Y-38822001D01*
X51916744Y-38962815D01*
X51914831Y-38968099D01*
X51859609Y-39101418D01*
X51799668Y-39234600D01*
X51797394Y-39239147D01*
X51727043Y-39366439D01*
X51651781Y-39490936D01*
X51649287Y-39494739D01*
X51565571Y-39612726D01*
X51563811Y-39615086D01*
X51475088Y-39728332D01*
X51472512Y-39731409D01*
X51375980Y-39839430D01*
X51373590Y-39841957D01*
X51271957Y-39943590D01*
X51269430Y-39945980D01*
X51161409Y-40042512D01*
X51158332Y-40045088D01*
X51045086Y-40133811D01*
X51042726Y-40135571D01*
X50924739Y-40219287D01*
X50920936Y-40221781D01*
X50796439Y-40297043D01*
X50669147Y-40367394D01*
X50664600Y-40369668D01*
X50531418Y-40429609D01*
X50398099Y-40484831D01*
X50392815Y-40486744D01*
X50275231Y-40523385D01*
X50251990Y-40530627D01*
X50115208Y-40570032D01*
X50109217Y-40571440D01*
X49960343Y-40598722D01*
X49824315Y-40621835D01*
X49817668Y-40622599D01*
X49645524Y-40633012D01*
X49531736Y-40639402D01*
X49528258Y-40639500D01*
X22861742Y-40639500D01*
X22858265Y-40639402D01*
X22744475Y-40633012D01*
X22572330Y-40622599D01*
X22565683Y-40621835D01*
X22429656Y-40598722D01*
X22280781Y-40571440D01*
X22274790Y-40570032D01*
X22138021Y-40530631D01*
X22070634Y-40509633D01*
X21997183Y-40486744D01*
X21991899Y-40484831D01*
X21858581Y-40429609D01*
X21725398Y-40369668D01*
X21720851Y-40367393D01*
X21593560Y-40297043D01*
X21469063Y-40221781D01*
X21465259Y-40219287D01*
X21347272Y-40135571D01*
X21344912Y-40133811D01*
X21231666Y-40045088D01*
X21228589Y-40042512D01*
X21120568Y-39945980D01*
X21118041Y-39943590D01*
X21016408Y-39841957D01*
X21014018Y-39839430D01*
X20917486Y-39731409D01*
X20914910Y-39728332D01*
X20861552Y-39660226D01*
X20826176Y-39615072D01*
X20824427Y-39612726D01*
X20805499Y-39586050D01*
X20740710Y-39494738D01*
X20738217Y-39490935D01*
X20683458Y-39400353D01*
X20662956Y-39366439D01*
X20594733Y-39242998D01*
X20592605Y-39239147D01*
X20590330Y-39234600D01*
X20584385Y-39221391D01*
X20530387Y-39101411D01*
X20496539Y-39019696D01*
X20475164Y-38968092D01*
X20473265Y-38962850D01*
X20429375Y-38822001D01*
X20389963Y-38685198D01*
X20388560Y-38679227D01*
X20376002Y-38610698D01*
X20361277Y-38530343D01*
X20350327Y-38465907D01*
X20338160Y-38394297D01*
X20337401Y-38387691D01*
X20326992Y-38215603D01*
X20322626Y-38137867D01*
X20320598Y-38101736D01*
X20320500Y-38098259D01*
X20320500Y-36576800D01*
X23241468Y-36576800D01*
X23261572Y-36870714D01*
X23261572Y-36870718D01*
X23261573Y-36870720D01*
X23279503Y-36957004D01*
X23321512Y-37159167D01*
X23321513Y-37159170D01*
X23414451Y-37420671D01*
X23420170Y-37436762D01*
X23555708Y-37698339D01*
X23725602Y-37939024D01*
X23725606Y-37939028D01*
X23725606Y-37939029D01*
X23773467Y-37990275D01*
X23926687Y-38154333D01*
X24155217Y-38340256D01*
X24155219Y-38340257D01*
X24155220Y-38340258D01*
X24406936Y-38493330D01*
X24406940Y-38493332D01*
X24677147Y-38610698D01*
X24677152Y-38610700D01*
X24960834Y-38690184D01*
X25217427Y-38725452D01*
X25252696Y-38730300D01*
X25252697Y-38730300D01*
X25547304Y-38730300D01*
X25578769Y-38725974D01*
X25839166Y-38690184D01*
X26122848Y-38610700D01*
X26312597Y-38528281D01*
X26393059Y-38493332D01*
X26393063Y-38493330D01*
X26429356Y-38471260D01*
X26644783Y-38340256D01*
X26873313Y-38154333D01*
X27074398Y-37939024D01*
X27244292Y-37698339D01*
X27379830Y-37436762D01*
X27478488Y-37159165D01*
X27538427Y-36870720D01*
X27558532Y-36576800D01*
X27538427Y-36282880D01*
X27478488Y-35994435D01*
X27470517Y-35972007D01*
X39030671Y-35972007D01*
X39049964Y-36266363D01*
X39049965Y-36266373D01*
X39049966Y-36266380D01*
X39104346Y-36539772D01*
X39107518Y-36555716D01*
X39107521Y-36555730D01*
X39202349Y-36835080D01*
X39332825Y-37099660D01*
X39332829Y-37099667D01*
X39496725Y-37344955D01*
X39691241Y-37566758D01*
X39913044Y-37761274D01*
X40158332Y-37925170D01*
X40158335Y-37925172D01*
X40422923Y-38055652D01*
X40702278Y-38150481D01*
X40991620Y-38208034D01*
X41017389Y-38209723D01*
X41285993Y-38227329D01*
X41286000Y-38227329D01*
X41286007Y-38227329D01*
X41521675Y-38211881D01*
X41580380Y-38208034D01*
X41869722Y-38150481D01*
X42018433Y-38100000D01*
X46458411Y-38100000D01*
X46466287Y-38205110D01*
X46466460Y-38209723D01*
X46466460Y-38234414D01*
X46470138Y-38258820D01*
X46470657Y-38263425D01*
X46478532Y-38368509D01*
X46478532Y-38368512D01*
X46478533Y-38368513D01*
X46486680Y-38404207D01*
X46501984Y-38471260D01*
X46502846Y-38475814D01*
X46505487Y-38493330D01*
X46506525Y-38500219D01*
X46506526Y-38500221D01*
X46506528Y-38500229D01*
X46513797Y-38523798D01*
X46514996Y-38528273D01*
X46538450Y-38631026D01*
X46538451Y-38631031D01*
X46576954Y-38729137D01*
X46578485Y-38733512D01*
X46585757Y-38757087D01*
X46585759Y-38757092D01*
X46596472Y-38779340D01*
X46598325Y-38783587D01*
X46636824Y-38881680D01*
X46689522Y-38972955D01*
X46691682Y-38977042D01*
X46696019Y-38986048D01*
X46702392Y-38999282D01*
X46702393Y-38999283D01*
X46702394Y-38999285D01*
X46703356Y-39000696D01*
X46716292Y-39019670D01*
X46718759Y-39023596D01*
X46771458Y-39114873D01*
X46800871Y-39151755D01*
X46837169Y-39197271D01*
X46839917Y-39200995D01*
X46848580Y-39213700D01*
X46853822Y-39221389D01*
X46853824Y-39221391D01*
X46853832Y-39221401D01*
X46870605Y-39239478D01*
X46873630Y-39242993D01*
X46939339Y-39325389D01*
X46939341Y-39325391D01*
X46939342Y-39325392D01*
X46983575Y-39366434D01*
X47016596Y-39397073D01*
X47019863Y-39400339D01*
X47036662Y-39418444D01*
X47036664Y-39418446D01*
X47055956Y-39433831D01*
X47059471Y-39436856D01*
X47117755Y-39490935D01*
X47136728Y-39508539D01*
X47223833Y-39567926D01*
X47227514Y-39570643D01*
X47241453Y-39581759D01*
X47246833Y-39586050D01*
X47246835Y-39586051D01*
X47258652Y-39592872D01*
X47268215Y-39598394D01*
X47272094Y-39600830D01*
X47357151Y-39658821D01*
X47359203Y-39660220D01*
X47359213Y-39660226D01*
X47407236Y-39683352D01*
X47454165Y-39705952D01*
X47458242Y-39708107D01*
X47479630Y-39720455D01*
X47502611Y-39729474D01*
X47506842Y-39731319D01*
X47601806Y-39777052D01*
X47702542Y-39808124D01*
X47706859Y-39809636D01*
X47729862Y-39818664D01*
X47753955Y-39824163D01*
X47758380Y-39825348D01*
X47859109Y-39856419D01*
X47963327Y-39872127D01*
X47967853Y-39872983D01*
X47991937Y-39878480D01*
X48016595Y-39880327D01*
X48021108Y-39880836D01*
X48125367Y-39896551D01*
X48125373Y-39896551D01*
X48230754Y-39896551D01*
X48235371Y-39896723D01*
X48260000Y-39898569D01*
X48284628Y-39896723D01*
X48289246Y-39896551D01*
X48394627Y-39896551D01*
X48394633Y-39896551D01*
X48498880Y-39880838D01*
X48503435Y-39880325D01*
X48528063Y-39878480D01*
X48552141Y-39872984D01*
X48556682Y-39872126D01*
X48660884Y-39856420D01*
X48660883Y-39856420D01*
X48660891Y-39856419D01*
X48761619Y-39825348D01*
X48766044Y-39824163D01*
X48790138Y-39818664D01*
X48813166Y-39809626D01*
X48817439Y-39808130D01*
X48918194Y-39777052D01*
X49013150Y-39731323D01*
X49017367Y-39729482D01*
X49040370Y-39720455D01*
X49061772Y-39708098D01*
X49065792Y-39705972D01*
X49160795Y-39660222D01*
X49247895Y-39600837D01*
X49251786Y-39598392D01*
X49273170Y-39586047D01*
X49292481Y-39570646D01*
X49296160Y-39567930D01*
X49383272Y-39508539D01*
X49460548Y-39436836D01*
X49464025Y-39433844D01*
X49483338Y-39418444D01*
X49500149Y-39400325D01*
X49503361Y-39397112D01*
X49580658Y-39325392D01*
X49646391Y-39242965D01*
X49649365Y-39239508D01*
X49666178Y-39221389D01*
X49680079Y-39200999D01*
X49682831Y-39197271D01*
X49682837Y-39197264D01*
X49748543Y-39114871D01*
X49801254Y-39023572D01*
X49803689Y-39019696D01*
X49817606Y-38999285D01*
X49828325Y-38977026D01*
X49830462Y-38972981D01*
X49883176Y-38881680D01*
X49921690Y-38783546D01*
X49923526Y-38779340D01*
X49934241Y-38757091D01*
X49941519Y-38733496D01*
X49943044Y-38729137D01*
X49981549Y-38631028D01*
X50005004Y-38528266D01*
X50006197Y-38523813D01*
X50013475Y-38500219D01*
X50017155Y-38475802D01*
X50018013Y-38471269D01*
X50018015Y-38471260D01*
X50041467Y-38368513D01*
X50041535Y-38367613D01*
X50043584Y-38340258D01*
X50049345Y-38263385D01*
X50049860Y-38258820D01*
X50053540Y-38234407D01*
X50054180Y-38200140D01*
X50054339Y-38196737D01*
X50061589Y-38100000D01*
X50061458Y-38098258D01*
X50060285Y-38082611D01*
X50054339Y-38003265D01*
X50054180Y-37999855D01*
X50053540Y-37965593D01*
X50049859Y-37941174D01*
X50049344Y-37936608D01*
X50043118Y-37853528D01*
X50041468Y-37831496D01*
X50041467Y-37831490D01*
X50041467Y-37831487D01*
X50018009Y-37728712D01*
X50017154Y-37724191D01*
X50013475Y-37699781D01*
X50006199Y-37676193D01*
X50005001Y-37671722D01*
X49981552Y-37568985D01*
X49981551Y-37568984D01*
X49981549Y-37568972D01*
X49943042Y-37470859D01*
X49941517Y-37466497D01*
X49940966Y-37464712D01*
X49934241Y-37442909D01*
X49923532Y-37420671D01*
X49921678Y-37416422D01*
X49883178Y-37318324D01*
X49883175Y-37318319D01*
X49830457Y-37227008D01*
X49828320Y-37222964D01*
X49817606Y-37200716D01*
X49803703Y-37180325D01*
X49801258Y-37176434D01*
X49748543Y-37085129D01*
X49748539Y-37085125D01*
X49748536Y-37085119D01*
X49711332Y-37038468D01*
X49682822Y-37002718D01*
X49680084Y-36999008D01*
X49666178Y-36978611D01*
X49649395Y-36960523D01*
X49646374Y-36957013D01*
X49637095Y-36945377D01*
X49580658Y-36874608D01*
X49503389Y-36802913D01*
X49500136Y-36799660D01*
X49488591Y-36787217D01*
X49483345Y-36781563D01*
X49483338Y-36781556D01*
X49483332Y-36781551D01*
X49464037Y-36766164D01*
X49460529Y-36763145D01*
X49460524Y-36763140D01*
X49383272Y-36691461D01*
X49296187Y-36632087D01*
X49292456Y-36629332D01*
X49273169Y-36613952D01*
X49251803Y-36601615D01*
X49247877Y-36599149D01*
X49160796Y-36539779D01*
X49160797Y-36539779D01*
X49160795Y-36539778D01*
X49065825Y-36494043D01*
X49061747Y-36491887D01*
X49040370Y-36479545D01*
X49040365Y-36479543D01*
X49017397Y-36470528D01*
X49013149Y-36468674D01*
X48918190Y-36422946D01*
X48866597Y-36407032D01*
X48817479Y-36391881D01*
X48813118Y-36390355D01*
X48790139Y-36381336D01*
X48766063Y-36375840D01*
X48761585Y-36374640D01*
X48660898Y-36343582D01*
X48556678Y-36327872D01*
X48552124Y-36327011D01*
X48528074Y-36321522D01*
X48528068Y-36321521D01*
X48528063Y-36321520D01*
X48524931Y-36321285D01*
X48503451Y-36319674D01*
X48498846Y-36319155D01*
X48394640Y-36303449D01*
X48394633Y-36303449D01*
X48289246Y-36303449D01*
X48284628Y-36303276D01*
X48260000Y-36301431D01*
X48235371Y-36303276D01*
X48230754Y-36303449D01*
X48125356Y-36303449D01*
X48021152Y-36319155D01*
X48016548Y-36319674D01*
X47991932Y-36321520D01*
X47967874Y-36327010D01*
X47963322Y-36327871D01*
X47859101Y-36343582D01*
X47758415Y-36374640D01*
X47753937Y-36375840D01*
X47729862Y-36381336D01*
X47706873Y-36390357D01*
X47702499Y-36391888D01*
X47601806Y-36422948D01*
X47506866Y-36468668D01*
X47502618Y-36470522D01*
X47479632Y-36479543D01*
X47479625Y-36479547D01*
X47458249Y-36491887D01*
X47454152Y-36494052D01*
X47359215Y-36539772D01*
X47359205Y-36539778D01*
X47272128Y-36599146D01*
X47268203Y-36601612D01*
X47246833Y-36613950D01*
X47227527Y-36629344D01*
X47223799Y-36632096D01*
X47136725Y-36691463D01*
X47059473Y-36763140D01*
X47055962Y-36766162D01*
X47036666Y-36781551D01*
X47019873Y-36799648D01*
X47016597Y-36802924D01*
X46939344Y-36874604D01*
X46939340Y-36874609D01*
X46873632Y-36957004D01*
X46870609Y-36960517D01*
X46853827Y-36978605D01*
X46853818Y-36978615D01*
X46839914Y-36999008D01*
X46837161Y-37002737D01*
X46771454Y-37085132D01*
X46718752Y-37176412D01*
X46716287Y-37180335D01*
X46702399Y-37200706D01*
X46702389Y-37200725D01*
X46691691Y-37222939D01*
X46689525Y-37227038D01*
X46636824Y-37318319D01*
X46598326Y-37416411D01*
X46596473Y-37420658D01*
X46585758Y-37442910D01*
X46585756Y-37442916D01*
X46578483Y-37466494D01*
X46576952Y-37470869D01*
X46538451Y-37568968D01*
X46538451Y-37568970D01*
X46514997Y-37671720D01*
X46513799Y-37676193D01*
X46506526Y-37699775D01*
X46506524Y-37699783D01*
X46502844Y-37724191D01*
X46501983Y-37728744D01*
X46478534Y-37831480D01*
X46478533Y-37831484D01*
X46478533Y-37831487D01*
X46478466Y-37832387D01*
X46470657Y-37936576D01*
X46470138Y-37941181D01*
X46466460Y-37965585D01*
X46466460Y-37990275D01*
X46466287Y-37994891D01*
X46460329Y-38074394D01*
X46458542Y-38098258D01*
X46458411Y-38100000D01*
X42018433Y-38100000D01*
X42149077Y-38055652D01*
X42413665Y-37925172D01*
X42658957Y-37761273D01*
X42880758Y-37566758D01*
X43075273Y-37344957D01*
X43239172Y-37099665D01*
X43369652Y-36835077D01*
X43464481Y-36555722D01*
X43522034Y-36266380D01*
X43541329Y-35972000D01*
X43541329Y-35971992D01*
X43522035Y-35677636D01*
X43522034Y-35677620D01*
X43464481Y-35388278D01*
X43369652Y-35108923D01*
X43239172Y-34844336D01*
X43075273Y-34599043D01*
X42956331Y-34463416D01*
X42880758Y-34377241D01*
X42658955Y-34182725D01*
X42413667Y-34018829D01*
X42413660Y-34018825D01*
X42149080Y-33888349D01*
X41869730Y-33793521D01*
X41869724Y-33793519D01*
X41869722Y-33793519D01*
X41580380Y-33735966D01*
X41580373Y-33735965D01*
X41580363Y-33735964D01*
X41286007Y-33716671D01*
X41285993Y-33716671D01*
X40991636Y-33735964D01*
X40991624Y-33735965D01*
X40991620Y-33735966D01*
X40991612Y-33735967D01*
X40991609Y-33735968D01*
X40702283Y-33793518D01*
X40702269Y-33793521D01*
X40422919Y-33888349D01*
X40158334Y-34018828D01*
X39913041Y-34182728D01*
X39691241Y-34377241D01*
X39496728Y-34599041D01*
X39332828Y-34844334D01*
X39202349Y-35108919D01*
X39107521Y-35388269D01*
X39107518Y-35388283D01*
X39049968Y-35677609D01*
X39049964Y-35677636D01*
X39030671Y-35971992D01*
X39030671Y-35972007D01*
X27470517Y-35972007D01*
X27379830Y-35716838D01*
X27244292Y-35455261D01*
X27074398Y-35214576D01*
X27074393Y-35214570D01*
X27007028Y-35142440D01*
X26873313Y-34999267D01*
X26644783Y-34813344D01*
X26644781Y-34813343D01*
X26644779Y-34813341D01*
X26393063Y-34660269D01*
X26393059Y-34660267D01*
X26122852Y-34542901D01*
X25839171Y-34463417D01*
X25839167Y-34463416D01*
X25839166Y-34463416D01*
X25693234Y-34443358D01*
X25547304Y-34423300D01*
X25547303Y-34423300D01*
X25252697Y-34423300D01*
X25252696Y-34423300D01*
X24960834Y-34463416D01*
X24960828Y-34463417D01*
X24677147Y-34542901D01*
X24406940Y-34660267D01*
X24406936Y-34660269D01*
X24155220Y-34813341D01*
X23926690Y-34999264D01*
X23725606Y-35214570D01*
X23725606Y-35214571D01*
X23555708Y-35455260D01*
X23420169Y-35716839D01*
X23321513Y-35994429D01*
X23321512Y-35994432D01*
X23261572Y-36282885D01*
X23241468Y-36576800D01*
X20320500Y-36576800D01*
X20320500Y-33913670D01*
X27200500Y-33913670D01*
X27200501Y-33913676D01*
X27206908Y-33973283D01*
X27257202Y-34108128D01*
X27257206Y-34108135D01*
X27343452Y-34223344D01*
X27343455Y-34223347D01*
X27458664Y-34309593D01*
X27458671Y-34309597D01*
X27593517Y-34359891D01*
X27593516Y-34359891D01*
X27600444Y-34360635D01*
X27653127Y-34366300D01*
X29146872Y-34366299D01*
X29206483Y-34359891D01*
X29341331Y-34309596D01*
X29456546Y-34223346D01*
X29542796Y-34108131D01*
X29593091Y-33973283D01*
X29599500Y-33913673D01*
X29599499Y-33793380D01*
X29619183Y-33726344D01*
X29671987Y-33680589D01*
X29741145Y-33670645D01*
X29804701Y-33699669D01*
X29834499Y-33738111D01*
X29865795Y-33800961D01*
X29999762Y-33978362D01*
X30044153Y-34018829D01*
X30164043Y-34128123D01*
X30353046Y-34245149D01*
X30353047Y-34245149D01*
X30353048Y-34245150D01*
X30422142Y-34271917D01*
X30560335Y-34325453D01*
X30778850Y-34366300D01*
X30778853Y-34366300D01*
X31001147Y-34366300D01*
X31001150Y-34366300D01*
X31219665Y-34325453D01*
X31426954Y-34245149D01*
X31615957Y-34128123D01*
X31780239Y-33978360D01*
X31914205Y-33800961D01*
X32013292Y-33601966D01*
X32074128Y-33388152D01*
X32094639Y-33166800D01*
X32074128Y-32945448D01*
X32013292Y-32731634D01*
X31914205Y-32532639D01*
X31795942Y-32376034D01*
X31780237Y-32355237D01*
X31615958Y-32205478D01*
X31615957Y-32205477D01*
X31426954Y-32088451D01*
X31426952Y-32088450D01*
X31426951Y-32088449D01*
X31219668Y-32008148D01*
X31219667Y-32008147D01*
X31219665Y-32008147D01*
X31001150Y-31967300D01*
X30778850Y-31967300D01*
X30560335Y-32008147D01*
X30560333Y-32008147D01*
X30560331Y-32008148D01*
X30353048Y-32088449D01*
X30353047Y-32088450D01*
X30164041Y-32205478D01*
X29999762Y-32355237D01*
X29865795Y-32532638D01*
X29834499Y-32595489D01*
X29786996Y-32646726D01*
X29719333Y-32664147D01*
X29652992Y-32642221D01*
X29609038Y-32587910D01*
X29599499Y-32540217D01*
X29599499Y-32419929D01*
X29599498Y-32419923D01*
X29599497Y-32419916D01*
X29593091Y-32360317D01*
X29591197Y-32355240D01*
X29542797Y-32225471D01*
X29542793Y-32225464D01*
X29456547Y-32110255D01*
X29456544Y-32110252D01*
X29341335Y-32024006D01*
X29341328Y-32024002D01*
X29206482Y-31973708D01*
X29206483Y-31973708D01*
X29146883Y-31967301D01*
X29146881Y-31967300D01*
X29146873Y-31967300D01*
X29146864Y-31967300D01*
X27653129Y-31967300D01*
X27653123Y-31967301D01*
X27593516Y-31973708D01*
X27458671Y-32024002D01*
X27458664Y-32024006D01*
X27343455Y-32110252D01*
X27343452Y-32110255D01*
X27257206Y-32225464D01*
X27257202Y-32225471D01*
X27206908Y-32360317D01*
X27200501Y-32419916D01*
X27200501Y-32419923D01*
X27200500Y-32419935D01*
X27200500Y-33913670D01*
X20320500Y-33913670D01*
X20320500Y-29816800D01*
X22431468Y-29816800D01*
X22451572Y-30110714D01*
X22511512Y-30399167D01*
X22511513Y-30399170D01*
X22555938Y-30524169D01*
X22610170Y-30676762D01*
X22745708Y-30938339D01*
X22915602Y-31179024D01*
X22915606Y-31179028D01*
X22915606Y-31179029D01*
X22937059Y-31201999D01*
X23116687Y-31394333D01*
X23345217Y-31580256D01*
X23345219Y-31580257D01*
X23345220Y-31580258D01*
X23596936Y-31733330D01*
X23596940Y-31733332D01*
X23867147Y-31850698D01*
X23867152Y-31850700D01*
X24150834Y-31930184D01*
X24407427Y-31965452D01*
X24442696Y-31970300D01*
X24442697Y-31970300D01*
X24737304Y-31970300D01*
X24768769Y-31965974D01*
X25029166Y-31930184D01*
X25312848Y-31850700D01*
X25420934Y-31803751D01*
X25583059Y-31733332D01*
X25583063Y-31733330D01*
X25694350Y-31665655D01*
X25834783Y-31580256D01*
X26063313Y-31394333D01*
X26242940Y-31202000D01*
X35220341Y-31202000D01*
X35240936Y-31437403D01*
X35240938Y-31437413D01*
X35302094Y-31665655D01*
X35302096Y-31665659D01*
X35302097Y-31665663D01*
X35388381Y-31850700D01*
X35401965Y-31879830D01*
X35401967Y-31879834D01*
X35491814Y-32008148D01*
X35537505Y-32073401D01*
X35704599Y-32240495D01*
X35801384Y-32308265D01*
X35898165Y-32376032D01*
X35898167Y-32376033D01*
X35898170Y-32376035D01*
X36112337Y-32475903D01*
X36340592Y-32537063D01*
X36528918Y-32553539D01*
X36575999Y-32557659D01*
X36576000Y-32557659D01*
X36576001Y-32557659D01*
X36615234Y-32554226D01*
X36811408Y-32537063D01*
X37039663Y-32475903D01*
X37253830Y-32376035D01*
X37447401Y-32240495D01*
X37488319Y-32199577D01*
X37549642Y-32166092D01*
X37619334Y-32171076D01*
X37663681Y-32199577D01*
X37704599Y-32240495D01*
X37801384Y-32308265D01*
X37898165Y-32376032D01*
X37898167Y-32376033D01*
X37898170Y-32376035D01*
X38112337Y-32475903D01*
X38340592Y-32537063D01*
X38528918Y-32553539D01*
X38575999Y-32557659D01*
X38576000Y-32557659D01*
X38576001Y-32557659D01*
X38615234Y-32554226D01*
X38811408Y-32537063D01*
X39039663Y-32475903D01*
X39253830Y-32376035D01*
X39447401Y-32240495D01*
X39614495Y-32073401D01*
X39750035Y-31879830D01*
X39849903Y-31665663D01*
X39911063Y-31437408D01*
X39931659Y-31202000D01*
X39911063Y-30966592D01*
X39849903Y-30738337D01*
X39750035Y-30524171D01*
X39662506Y-30399165D01*
X39614494Y-30330597D01*
X39447402Y-30163506D01*
X39447396Y-30163501D01*
X39289968Y-30053269D01*
X39246343Y-29998692D01*
X39239149Y-29929194D01*
X39270672Y-29866839D01*
X39289968Y-29850119D01*
X39337373Y-29816925D01*
X38673020Y-29152572D01*
X38713119Y-29146529D01*
X38838054Y-29086363D01*
X38939705Y-28992045D01*
X39009039Y-28871955D01*
X39025850Y-28798298D01*
X39690925Y-29463373D01*
X39690926Y-29463373D01*
X39749598Y-29379582D01*
X39749600Y-29379578D01*
X39849429Y-29165492D01*
X39849433Y-29165483D01*
X39910567Y-28937326D01*
X39910569Y-28937315D01*
X39931157Y-28702001D01*
X39931157Y-28701998D01*
X39910569Y-28466684D01*
X39910567Y-28466673D01*
X39849433Y-28238516D01*
X39849429Y-28238507D01*
X39749600Y-28024423D01*
X39749599Y-28024421D01*
X39690925Y-27940626D01*
X39690925Y-27940625D01*
X39029779Y-28601772D01*
X39029533Y-28598484D01*
X38978872Y-28469402D01*
X38892414Y-28360987D01*
X38777841Y-28282873D01*
X38673697Y-28250749D01*
X39337373Y-27587073D01*
X39337373Y-27587072D01*
X39253583Y-27528402D01*
X39253579Y-27528400D01*
X39039492Y-27428570D01*
X39039483Y-27428566D01*
X38811326Y-27367432D01*
X38811315Y-27367430D01*
X38576002Y-27346843D01*
X38575998Y-27346843D01*
X38340684Y-27367430D01*
X38340673Y-27367432D01*
X38112516Y-27428566D01*
X38112507Y-27428570D01*
X37921920Y-27517442D01*
X37852842Y-27527934D01*
X37789058Y-27499414D01*
X37784289Y-27495009D01*
X37668335Y-27408206D01*
X37668328Y-27408202D01*
X37533482Y-27357908D01*
X37533483Y-27357908D01*
X37473883Y-27351501D01*
X37473881Y-27351500D01*
X37473873Y-27351500D01*
X37473864Y-27351500D01*
X35678129Y-27351500D01*
X35678123Y-27351501D01*
X35618516Y-27357908D01*
X35483671Y-27408202D01*
X35483664Y-27408206D01*
X35368455Y-27494452D01*
X35368452Y-27494455D01*
X35282206Y-27609664D01*
X35282202Y-27609671D01*
X35231908Y-27744517D01*
X35225501Y-27804116D01*
X35225500Y-27804135D01*
X35225500Y-29599870D01*
X35225501Y-29599876D01*
X35231908Y-29659483D01*
X35282202Y-29794328D01*
X35282206Y-29794335D01*
X35368452Y-29909544D01*
X35368455Y-29909547D01*
X35483664Y-29995793D01*
X35483671Y-29995797D01*
X35585948Y-30033944D01*
X35641882Y-30075815D01*
X35666299Y-30141279D01*
X35651447Y-30209552D01*
X35630296Y-30237807D01*
X35537505Y-30330597D01*
X35401965Y-30524169D01*
X35401964Y-30524171D01*
X35302098Y-30738335D01*
X35302094Y-30738344D01*
X35240938Y-30966586D01*
X35240936Y-30966596D01*
X35220341Y-31201999D01*
X35220341Y-31202000D01*
X26242940Y-31202000D01*
X26264398Y-31179024D01*
X26434292Y-30938339D01*
X26569830Y-30676762D01*
X26668488Y-30399165D01*
X26728427Y-30110720D01*
X26748532Y-29816800D01*
X26728427Y-29522880D01*
X26668488Y-29234435D01*
X26569830Y-28956838D01*
X26434292Y-28695261D01*
X26264398Y-28454576D01*
X26264393Y-28454570D01*
X26165280Y-28348447D01*
X26063313Y-28239267D01*
X25834783Y-28053344D01*
X25834781Y-28053343D01*
X25834779Y-28053341D01*
X25583063Y-27900269D01*
X25583059Y-27900267D01*
X25312852Y-27782901D01*
X25029171Y-27703417D01*
X25029167Y-27703416D01*
X25029166Y-27703416D01*
X24883234Y-27683358D01*
X24737304Y-27663300D01*
X24737303Y-27663300D01*
X24442697Y-27663300D01*
X24442696Y-27663300D01*
X24150834Y-27703416D01*
X24150828Y-27703417D01*
X23867147Y-27782901D01*
X23596940Y-27900267D01*
X23596936Y-27900269D01*
X23345220Y-28053341D01*
X23116690Y-28239264D01*
X22915606Y-28454570D01*
X22915606Y-28454571D01*
X22915603Y-28454573D01*
X22915602Y-28454576D01*
X22847644Y-28550850D01*
X22745708Y-28695260D01*
X22610169Y-28956839D01*
X22511513Y-29234429D01*
X22511512Y-29234432D01*
X22451572Y-29522885D01*
X22431468Y-29816800D01*
X20320500Y-29816800D01*
X20320500Y-26466800D01*
X27195361Y-26466800D01*
X27215871Y-26688151D01*
X27276707Y-26901963D01*
X27276712Y-26901976D01*
X27375795Y-27100961D01*
X27509762Y-27278362D01*
X27597022Y-27357909D01*
X27674043Y-27428123D01*
X27863046Y-27545149D01*
X27863047Y-27545149D01*
X27863048Y-27545150D01*
X27932142Y-27571917D01*
X28070335Y-27625453D01*
X28288850Y-27666300D01*
X28288853Y-27666300D01*
X28511147Y-27666300D01*
X28511150Y-27666300D01*
X28729665Y-27625453D01*
X28936954Y-27545149D01*
X29125957Y-27428123D01*
X29290239Y-27278360D01*
X29424205Y-27100961D01*
X29523292Y-26901966D01*
X29525993Y-26892472D01*
X29563266Y-26833380D01*
X29626574Y-26803819D01*
X29695814Y-26813177D01*
X29749003Y-26858483D01*
X29764524Y-26892463D01*
X29767176Y-26901783D01*
X29767180Y-26901794D01*
X29866224Y-27100700D01*
X29881851Y-27121394D01*
X30450214Y-26553032D01*
X30451257Y-26566940D01*
X30500266Y-26691813D01*
X30583905Y-26796692D01*
X30694741Y-26872259D01*
X30804298Y-26906053D01*
X30237397Y-27472953D01*
X30353268Y-27544698D01*
X30353270Y-27544699D01*
X30560473Y-27624969D01*
X30778899Y-27665800D01*
X31001101Y-27665800D01*
X31219525Y-27624969D01*
X31219535Y-27624966D01*
X31426729Y-27544699D01*
X31426731Y-27544698D01*
X31542601Y-27472953D01*
X30973837Y-26904189D01*
X31022647Y-26896833D01*
X31143509Y-26838629D01*
X31241844Y-26747387D01*
X31308917Y-26631213D01*
X31327323Y-26550570D01*
X31898147Y-27121394D01*
X31913776Y-27100698D01*
X31913783Y-27100686D01*
X32012817Y-26901799D01*
X32012825Y-26901779D01*
X32073633Y-26688061D01*
X32073634Y-26688059D01*
X32094137Y-26466800D01*
X32094137Y-26466799D01*
X32073634Y-26245540D01*
X32073633Y-26245538D01*
X32012825Y-26031820D01*
X32012819Y-26031805D01*
X31913781Y-25832910D01*
X31913776Y-25832903D01*
X31898146Y-25812204D01*
X31329785Y-26380566D01*
X31328743Y-26366660D01*
X31279734Y-26241787D01*
X31196095Y-26136908D01*
X31085259Y-26061341D01*
X30975701Y-26027546D01*
X31542601Y-25460645D01*
X31542600Y-25460644D01*
X31426733Y-25388902D01*
X31426727Y-25388899D01*
X31219526Y-25308630D01*
X31001101Y-25267800D01*
X30778899Y-25267800D01*
X30560474Y-25308630D01*
X30560473Y-25308630D01*
X30353272Y-25388899D01*
X30353266Y-25388903D01*
X30237398Y-25460644D01*
X30237397Y-25460645D01*
X30806163Y-26029410D01*
X30757353Y-26036767D01*
X30636491Y-26094971D01*
X30538156Y-26186213D01*
X30471083Y-26302387D01*
X30452676Y-26383028D01*
X29881852Y-25812204D01*
X29866223Y-25832901D01*
X29767180Y-26031805D01*
X29767174Y-26031822D01*
X29764523Y-26041138D01*
X29727240Y-26100229D01*
X29663928Y-26129783D01*
X29594689Y-26120416D01*
X29541506Y-26075102D01*
X29525994Y-26041133D01*
X29523292Y-26031634D01*
X29518395Y-26021800D01*
X29450362Y-25885170D01*
X29424205Y-25832639D01*
X29290239Y-25655240D01*
X29290237Y-25655237D01*
X29125958Y-25505478D01*
X29125957Y-25505477D01*
X28936954Y-25388451D01*
X28936952Y-25388450D01*
X28936951Y-25388449D01*
X28729668Y-25308148D01*
X28729667Y-25308147D01*
X28729665Y-25308147D01*
X28511150Y-25267300D01*
X28288850Y-25267300D01*
X28070335Y-25308147D01*
X28070333Y-25308147D01*
X28070331Y-25308148D01*
X27863048Y-25388449D01*
X27863047Y-25388450D01*
X27674041Y-25505478D01*
X27509762Y-25655237D01*
X27375795Y-25832638D01*
X27276712Y-26031623D01*
X27276707Y-26031636D01*
X27215871Y-26245448D01*
X27195361Y-26466799D01*
X27195361Y-26466800D01*
X20320500Y-26466800D01*
X20320500Y-23056800D01*
X23241468Y-23056800D01*
X23261572Y-23350714D01*
X23261572Y-23350718D01*
X23261573Y-23350720D01*
X23269438Y-23388569D01*
X23321512Y-23639167D01*
X23321513Y-23639170D01*
X23420169Y-23916760D01*
X23420170Y-23916762D01*
X23555708Y-24178339D01*
X23725602Y-24419024D01*
X23725606Y-24419028D01*
X23725606Y-24419029D01*
X23800343Y-24499052D01*
X23926687Y-24634333D01*
X24155217Y-24820256D01*
X24155219Y-24820257D01*
X24155220Y-24820258D01*
X24406936Y-24973330D01*
X24406940Y-24973332D01*
X24605706Y-25059667D01*
X24677152Y-25090700D01*
X24960834Y-25170184D01*
X25217427Y-25205452D01*
X25252696Y-25210300D01*
X25252697Y-25210300D01*
X25547304Y-25210300D01*
X25578769Y-25205974D01*
X25839166Y-25170184D01*
X26122848Y-25090700D01*
X26230934Y-25043751D01*
X26393059Y-24973332D01*
X26393063Y-24973330D01*
X26393065Y-24973329D01*
X26644783Y-24820256D01*
X26873313Y-24634333D01*
X27074398Y-24419024D01*
X27244292Y-24178339D01*
X27371931Y-23932007D01*
X39030671Y-23932007D01*
X39049964Y-24226363D01*
X39049965Y-24226373D01*
X39049966Y-24226380D01*
X39049968Y-24226390D01*
X39107518Y-24515716D01*
X39107521Y-24515730D01*
X39202349Y-24795080D01*
X39332825Y-25059660D01*
X39332829Y-25059667D01*
X39496725Y-25304955D01*
X39691241Y-25526758D01*
X39837747Y-25655240D01*
X39913043Y-25721273D01*
X40158335Y-25885172D01*
X40422923Y-26015652D01*
X40702278Y-26110481D01*
X40991620Y-26168034D01*
X41019888Y-26169886D01*
X41285993Y-26187329D01*
X41286000Y-26187329D01*
X41286007Y-26187329D01*
X41521675Y-26171881D01*
X41580380Y-26168034D01*
X41869722Y-26110481D01*
X42149077Y-26015652D01*
X42413665Y-25885172D01*
X42658957Y-25721273D01*
X42880758Y-25526758D01*
X43075273Y-25304957D01*
X43239172Y-25059665D01*
X43369652Y-24795077D01*
X43464481Y-24515722D01*
X43522034Y-24226380D01*
X43541329Y-23932000D01*
X43541329Y-23931992D01*
X43522035Y-23637636D01*
X43522034Y-23637620D01*
X43464481Y-23348278D01*
X43369652Y-23068923D01*
X43239172Y-22804336D01*
X43211475Y-22762885D01*
X43160947Y-22687264D01*
X43075273Y-22559043D01*
X43014094Y-22489282D01*
X42880758Y-22337241D01*
X42658955Y-22142725D01*
X42413667Y-21978829D01*
X42413660Y-21978825D01*
X42149080Y-21848349D01*
X41869730Y-21753521D01*
X41869724Y-21753519D01*
X41869722Y-21753519D01*
X41580380Y-21695966D01*
X41580373Y-21695965D01*
X41580363Y-21695964D01*
X41286007Y-21676671D01*
X41285993Y-21676671D01*
X40991636Y-21695964D01*
X40991624Y-21695965D01*
X40991620Y-21695966D01*
X40991612Y-21695967D01*
X40991609Y-21695968D01*
X40702283Y-21753518D01*
X40702269Y-21753521D01*
X40422919Y-21848349D01*
X40158334Y-21978828D01*
X39913041Y-22142728D01*
X39691241Y-22337241D01*
X39496728Y-22559041D01*
X39332828Y-22804334D01*
X39202349Y-23068919D01*
X39107521Y-23348269D01*
X39107518Y-23348283D01*
X39049968Y-23637609D01*
X39049964Y-23637636D01*
X39030671Y-23931992D01*
X39030671Y-23932007D01*
X27371931Y-23932007D01*
X27379830Y-23916762D01*
X27478488Y-23639165D01*
X27538427Y-23350720D01*
X27558532Y-23056800D01*
X27538427Y-22762880D01*
X27478488Y-22474435D01*
X27379830Y-22196838D01*
X27244292Y-21935261D01*
X27074398Y-21694576D01*
X27074393Y-21694570D01*
X27007028Y-21622440D01*
X26976731Y-21590000D01*
X46458411Y-21590000D01*
X46466287Y-21695110D01*
X46466460Y-21699723D01*
X46466460Y-21724414D01*
X46470138Y-21748820D01*
X46470657Y-21753425D01*
X46478532Y-21858509D01*
X46478534Y-21858516D01*
X46501984Y-21961260D01*
X46502846Y-21965814D01*
X46504808Y-21978828D01*
X46506525Y-21990219D01*
X46506526Y-21990221D01*
X46506528Y-21990229D01*
X46513797Y-22013798D01*
X46514996Y-22018273D01*
X46538450Y-22121026D01*
X46538451Y-22121031D01*
X46576954Y-22219137D01*
X46578485Y-22223512D01*
X46585757Y-22247087D01*
X46585759Y-22247092D01*
X46596472Y-22269340D01*
X46598325Y-22273587D01*
X46636824Y-22371680D01*
X46689522Y-22462955D01*
X46691682Y-22467042D01*
X46695240Y-22474429D01*
X46702392Y-22489282D01*
X46702393Y-22489283D01*
X46702394Y-22489285D01*
X46710459Y-22501114D01*
X46716292Y-22509670D01*
X46718759Y-22513596D01*
X46771458Y-22604873D01*
X46800871Y-22641755D01*
X46837169Y-22687271D01*
X46839917Y-22690995D01*
X46848580Y-22703700D01*
X46853822Y-22711389D01*
X46853824Y-22711391D01*
X46853832Y-22711401D01*
X46870605Y-22729478D01*
X46873630Y-22732993D01*
X46939339Y-22815389D01*
X47016596Y-22887073D01*
X47019863Y-22890339D01*
X47036662Y-22908444D01*
X47036664Y-22908446D01*
X47055956Y-22923831D01*
X47059471Y-22926856D01*
X47125479Y-22988101D01*
X47136728Y-22998539D01*
X47223833Y-23057926D01*
X47227514Y-23060643D01*
X47237892Y-23068919D01*
X47246833Y-23076050D01*
X47246835Y-23076051D01*
X47258652Y-23082872D01*
X47268215Y-23088394D01*
X47272094Y-23090830D01*
X47357151Y-23148821D01*
X47359203Y-23150220D01*
X47359213Y-23150226D01*
X47410039Y-23174702D01*
X47454165Y-23195952D01*
X47458242Y-23198107D01*
X47479630Y-23210455D01*
X47502611Y-23219474D01*
X47506842Y-23221319D01*
X47601806Y-23267052D01*
X47702542Y-23298124D01*
X47706859Y-23299636D01*
X47729862Y-23308664D01*
X47753955Y-23314163D01*
X47758380Y-23315348D01*
X47859109Y-23346419D01*
X47963327Y-23362127D01*
X47967853Y-23362983D01*
X47991937Y-23368480D01*
X48016595Y-23370327D01*
X48021108Y-23370836D01*
X48125367Y-23386551D01*
X48125373Y-23386551D01*
X48230754Y-23386551D01*
X48235371Y-23386723D01*
X48260000Y-23388569D01*
X48284628Y-23386723D01*
X48289246Y-23386551D01*
X48394627Y-23386551D01*
X48394633Y-23386551D01*
X48498880Y-23370838D01*
X48503435Y-23370325D01*
X48528063Y-23368480D01*
X48552141Y-23362984D01*
X48556682Y-23362126D01*
X48632356Y-23350720D01*
X48660891Y-23346419D01*
X48761619Y-23315348D01*
X48766044Y-23314163D01*
X48790138Y-23308664D01*
X48813166Y-23299626D01*
X48817439Y-23298130D01*
X48918194Y-23267052D01*
X49013150Y-23221323D01*
X49017367Y-23219482D01*
X49040370Y-23210455D01*
X49061772Y-23198098D01*
X49065792Y-23195972D01*
X49160795Y-23150222D01*
X49247895Y-23090837D01*
X49251786Y-23088392D01*
X49273170Y-23076047D01*
X49292481Y-23060646D01*
X49296160Y-23057930D01*
X49383272Y-22998539D01*
X49460548Y-22926836D01*
X49464025Y-22923844D01*
X49483338Y-22908444D01*
X49500149Y-22890325D01*
X49503361Y-22887112D01*
X49580658Y-22815392D01*
X49646391Y-22732965D01*
X49649365Y-22729508D01*
X49666178Y-22711389D01*
X49680079Y-22690999D01*
X49682831Y-22687271D01*
X49682837Y-22687264D01*
X49748543Y-22604871D01*
X49801254Y-22513572D01*
X49803689Y-22509696D01*
X49817606Y-22489285D01*
X49828325Y-22467026D01*
X49830462Y-22462981D01*
X49883176Y-22371680D01*
X49921690Y-22273546D01*
X49923526Y-22269340D01*
X49934241Y-22247091D01*
X49941519Y-22223496D01*
X49943044Y-22219137D01*
X49981549Y-22121028D01*
X50005004Y-22018266D01*
X50006197Y-22013813D01*
X50013475Y-21990219D01*
X50017155Y-21965802D01*
X50018013Y-21961269D01*
X50018015Y-21961260D01*
X50041467Y-21858513D01*
X50041535Y-21857613D01*
X50043241Y-21834828D01*
X50049345Y-21753385D01*
X50049860Y-21748820D01*
X50053540Y-21724407D01*
X50054180Y-21690140D01*
X50054339Y-21686737D01*
X50061589Y-21590000D01*
X50054339Y-21493265D01*
X50054180Y-21489855D01*
X50053540Y-21455593D01*
X50049859Y-21431174D01*
X50049344Y-21426608D01*
X50043118Y-21343528D01*
X50041468Y-21321496D01*
X50041467Y-21321490D01*
X50041467Y-21321487D01*
X50018009Y-21218712D01*
X50017154Y-21214191D01*
X50013475Y-21189781D01*
X50006199Y-21166193D01*
X50005001Y-21161722D01*
X50004529Y-21159656D01*
X49981549Y-21058972D01*
X49943042Y-20960859D01*
X49941517Y-20956497D01*
X49937482Y-20943417D01*
X49934241Y-20932909D01*
X49923532Y-20910671D01*
X49921678Y-20906422D01*
X49883178Y-20808324D01*
X49878738Y-20800634D01*
X49830457Y-20717008D01*
X49828320Y-20712964D01*
X49817606Y-20690716D01*
X49803703Y-20670325D01*
X49801258Y-20666434D01*
X49748543Y-20575129D01*
X49748539Y-20575125D01*
X49748536Y-20575119D01*
X49711332Y-20528468D01*
X49682822Y-20492718D01*
X49680084Y-20489008D01*
X49666178Y-20468611D01*
X49649395Y-20450523D01*
X49646374Y-20447013D01*
X49637095Y-20435377D01*
X49580658Y-20364608D01*
X49503389Y-20292913D01*
X49500136Y-20289660D01*
X49488591Y-20277217D01*
X49483345Y-20271563D01*
X49483338Y-20271556D01*
X49483332Y-20271551D01*
X49464037Y-20256164D01*
X49460529Y-20253145D01*
X49402242Y-20199063D01*
X49383272Y-20181461D01*
X49296187Y-20122087D01*
X49292456Y-20119332D01*
X49273169Y-20103952D01*
X49251803Y-20091615D01*
X49247877Y-20089149D01*
X49160796Y-20029779D01*
X49160797Y-20029779D01*
X49160795Y-20029778D01*
X49065825Y-19984043D01*
X49061747Y-19981887D01*
X49040370Y-19969545D01*
X49040365Y-19969543D01*
X49017397Y-19960528D01*
X49013149Y-19958674D01*
X48918190Y-19912946D01*
X48866597Y-19897032D01*
X48817479Y-19881881D01*
X48813118Y-19880355D01*
X48790139Y-19871336D01*
X48766063Y-19865840D01*
X48761585Y-19864640D01*
X48660898Y-19833582D01*
X48556678Y-19817872D01*
X48552124Y-19817011D01*
X48528074Y-19811522D01*
X48528068Y-19811521D01*
X48528063Y-19811520D01*
X48524931Y-19811285D01*
X48503451Y-19809674D01*
X48498846Y-19809155D01*
X48394640Y-19793449D01*
X48394633Y-19793449D01*
X48289246Y-19793449D01*
X48284628Y-19793276D01*
X48260000Y-19791431D01*
X48235371Y-19793276D01*
X48230754Y-19793449D01*
X48125356Y-19793449D01*
X48021152Y-19809155D01*
X48016548Y-19809674D01*
X47991932Y-19811520D01*
X47967874Y-19817010D01*
X47963322Y-19817871D01*
X47859101Y-19833582D01*
X47758415Y-19864640D01*
X47753937Y-19865840D01*
X47729862Y-19871336D01*
X47706873Y-19880357D01*
X47702499Y-19881888D01*
X47601806Y-19912948D01*
X47506866Y-19958668D01*
X47502618Y-19960522D01*
X47479632Y-19969543D01*
X47479625Y-19969547D01*
X47458249Y-19981887D01*
X47454152Y-19984052D01*
X47359215Y-20029772D01*
X47359205Y-20029778D01*
X47272128Y-20089146D01*
X47268203Y-20091612D01*
X47246833Y-20103950D01*
X47227527Y-20119344D01*
X47223799Y-20122096D01*
X47136725Y-20181463D01*
X47059473Y-20253140D01*
X47055962Y-20256162D01*
X47036666Y-20271551D01*
X47019873Y-20289648D01*
X47016597Y-20292924D01*
X46939344Y-20364604D01*
X46939340Y-20364609D01*
X46873632Y-20447004D01*
X46870609Y-20450517D01*
X46853827Y-20468605D01*
X46853818Y-20468615D01*
X46839914Y-20489008D01*
X46837161Y-20492737D01*
X46771454Y-20575132D01*
X46718752Y-20666412D01*
X46716287Y-20670335D01*
X46702399Y-20690706D01*
X46702389Y-20690725D01*
X46691691Y-20712939D01*
X46689525Y-20717038D01*
X46636824Y-20808319D01*
X46598326Y-20906411D01*
X46596473Y-20910658D01*
X46585758Y-20932910D01*
X46585756Y-20932916D01*
X46578483Y-20956494D01*
X46576952Y-20960869D01*
X46538451Y-21058968D01*
X46538451Y-21058970D01*
X46514997Y-21161720D01*
X46513799Y-21166193D01*
X46506526Y-21189775D01*
X46506524Y-21189783D01*
X46502844Y-21214191D01*
X46501983Y-21218744D01*
X46478534Y-21321480D01*
X46478533Y-21321484D01*
X46478533Y-21321487D01*
X46478466Y-21322387D01*
X46470657Y-21426576D01*
X46470138Y-21431181D01*
X46466460Y-21455585D01*
X46466460Y-21480275D01*
X46466287Y-21484891D01*
X46458411Y-21590000D01*
X26976731Y-21590000D01*
X26873313Y-21479267D01*
X26644783Y-21293344D01*
X26644781Y-21293343D01*
X26644779Y-21293341D01*
X26393063Y-21140269D01*
X26393059Y-21140267D01*
X26122852Y-21022901D01*
X25839171Y-20943417D01*
X25839167Y-20943416D01*
X25839166Y-20943416D01*
X25600931Y-20910671D01*
X25547304Y-20903300D01*
X25547303Y-20903300D01*
X25252697Y-20903300D01*
X25252696Y-20903300D01*
X24960834Y-20943416D01*
X24960828Y-20943417D01*
X24677147Y-21022901D01*
X24406940Y-21140267D01*
X24406936Y-21140269D01*
X24155220Y-21293341D01*
X23926690Y-21479264D01*
X23926687Y-21479266D01*
X23926687Y-21479267D01*
X23913590Y-21493290D01*
X23725606Y-21694570D01*
X23725606Y-21694571D01*
X23725603Y-21694573D01*
X23725602Y-21694576D01*
X23683994Y-21753521D01*
X23555708Y-21935260D01*
X23420169Y-22196839D01*
X23321513Y-22474429D01*
X23321512Y-22474432D01*
X23261572Y-22762885D01*
X23241468Y-23056800D01*
X20320500Y-23056800D01*
X20320500Y-21591740D01*
X20320598Y-21588263D01*
X20322140Y-21560782D01*
X20326995Y-21474333D01*
X20337401Y-21302304D01*
X20338160Y-21295706D01*
X20353072Y-21207941D01*
X20361277Y-21159656D01*
X20379725Y-21058985D01*
X20388562Y-21010763D01*
X20389961Y-21004810D01*
X20429387Y-20867956D01*
X20473270Y-20727135D01*
X20475158Y-20721921D01*
X20530397Y-20588565D01*
X20590343Y-20455370D01*
X20592599Y-20450861D01*
X20662958Y-20323557D01*
X20738228Y-20199044D01*
X20740693Y-20195286D01*
X20824461Y-20077226D01*
X20826145Y-20074967D01*
X20914932Y-19961638D01*
X20917472Y-19958605D01*
X21014052Y-19850531D01*
X21016373Y-19848077D01*
X21118077Y-19746373D01*
X21120531Y-19744052D01*
X21228605Y-19647472D01*
X21231638Y-19644932D01*
X21344967Y-19556145D01*
X21347226Y-19554461D01*
X21465286Y-19470693D01*
X21469044Y-19468228D01*
X21593561Y-19392956D01*
X21720861Y-19322599D01*
X21725370Y-19320343D01*
X21858565Y-19260397D01*
X21991921Y-19205158D01*
X21997135Y-19203270D01*
X22137956Y-19159387D01*
X22274810Y-19119961D01*
X22280763Y-19118562D01*
X22363324Y-19103432D01*
X22429656Y-19091277D01*
X22477941Y-19083072D01*
X22565706Y-19068160D01*
X22572304Y-19067401D01*
X22744333Y-19056995D01*
X22830782Y-19052140D01*
X22858263Y-19050598D01*
X22861740Y-19050500D01*
X49528260Y-19050500D01*
X49531737Y-19050598D01*
G37*
%TD.AperFunction*%
%TD*%
M02*
