%TF.GenerationSoftware,KiCad,Pcbnew,7.0.9-1.fc39*%
%TF.CreationDate,2023-12-29T10:14:27-08:00*%
%TF.ProjectId,ADB-USB-adapter,4144422d-5553-4422-9d61-646170746572,rev?*%
%TF.SameCoordinates,Original*%
%TF.FileFunction,Drillmap*%
%TF.FilePolarity,Positive*%
%FSLAX45Y45*%
G04 Gerber Fmt 4.5, Leading zero omitted, Abs format (unit mm)*
G04 Created by KiCad (PCBNEW 7.0.9-1.fc39) date 2023-12-29 10:14:27*
%MOMM*%
%LPD*%
G01*
G04 APERTURE LIST*
%ADD10C,0.100000*%
%ADD11C,0.200000*%
G04 APERTURE END LIST*
D10*
X5005605Y-3810000D02*
G75*
G03*
X5005605Y-3810000I-179605J0D01*
G01*
X2286000Y-1905000D02*
G75*
G03*
X2032000Y-2159000I0J-254000D01*
G01*
X4953000Y-4064000D02*
X2286000Y-4064000D01*
X5207000Y-2159000D02*
X5207000Y-3810000D01*
X2032000Y-3810000D02*
X2032000Y-2159000D01*
X5005605Y-2159000D02*
G75*
G03*
X5005605Y-2159000I-179605J0D01*
G01*
X5207000Y-2159000D02*
G75*
G03*
X4953000Y-1905000I-254000J0D01*
G01*
X4953000Y-4064000D02*
G75*
G03*
X5207000Y-3810000I0J254000D01*
G01*
X2032000Y-3810000D02*
G75*
G03*
X2286000Y-4064000I254000J0D01*
G01*
X2286000Y-1905000D02*
X4953000Y-1905000D01*
D11*
X2287777Y-4380484D02*
X2287777Y-4180484D01*
X2287777Y-4180484D02*
X2335396Y-4180484D01*
X2335396Y-4180484D02*
X2363967Y-4190008D01*
X2363967Y-4190008D02*
X2383015Y-4209055D01*
X2383015Y-4209055D02*
X2392539Y-4228103D01*
X2392539Y-4228103D02*
X2402063Y-4266198D01*
X2402063Y-4266198D02*
X2402063Y-4294770D01*
X2402063Y-4294770D02*
X2392539Y-4332865D01*
X2392539Y-4332865D02*
X2383015Y-4351912D01*
X2383015Y-4351912D02*
X2363967Y-4370960D01*
X2363967Y-4370960D02*
X2335396Y-4380484D01*
X2335396Y-4380484D02*
X2287777Y-4380484D01*
X2487777Y-4380484D02*
X2487777Y-4247150D01*
X2487777Y-4285246D02*
X2497301Y-4266198D01*
X2497301Y-4266198D02*
X2506824Y-4256674D01*
X2506824Y-4256674D02*
X2525872Y-4247150D01*
X2525872Y-4247150D02*
X2544920Y-4247150D01*
X2611586Y-4380484D02*
X2611586Y-4247150D01*
X2611586Y-4180484D02*
X2602063Y-4190008D01*
X2602063Y-4190008D02*
X2611586Y-4199531D01*
X2611586Y-4199531D02*
X2621110Y-4190008D01*
X2621110Y-4190008D02*
X2611586Y-4180484D01*
X2611586Y-4180484D02*
X2611586Y-4199531D01*
X2735396Y-4380484D02*
X2716348Y-4370960D01*
X2716348Y-4370960D02*
X2706824Y-4351912D01*
X2706824Y-4351912D02*
X2706824Y-4180484D01*
X2840158Y-4380484D02*
X2821110Y-4370960D01*
X2821110Y-4370960D02*
X2811586Y-4351912D01*
X2811586Y-4351912D02*
X2811586Y-4180484D01*
X3068729Y-4380484D02*
X3068729Y-4180484D01*
X3068729Y-4180484D02*
X3135396Y-4323341D01*
X3135396Y-4323341D02*
X3202062Y-4180484D01*
X3202062Y-4180484D02*
X3202062Y-4380484D01*
X3383015Y-4380484D02*
X3383015Y-4275722D01*
X3383015Y-4275722D02*
X3373491Y-4256674D01*
X3373491Y-4256674D02*
X3354443Y-4247150D01*
X3354443Y-4247150D02*
X3316348Y-4247150D01*
X3316348Y-4247150D02*
X3297301Y-4256674D01*
X3383015Y-4370960D02*
X3363967Y-4380484D01*
X3363967Y-4380484D02*
X3316348Y-4380484D01*
X3316348Y-4380484D02*
X3297301Y-4370960D01*
X3297301Y-4370960D02*
X3287777Y-4351912D01*
X3287777Y-4351912D02*
X3287777Y-4332865D01*
X3287777Y-4332865D02*
X3297301Y-4313817D01*
X3297301Y-4313817D02*
X3316348Y-4304293D01*
X3316348Y-4304293D02*
X3363967Y-4304293D01*
X3363967Y-4304293D02*
X3383015Y-4294770D01*
X3478253Y-4247150D02*
X3478253Y-4447150D01*
X3478253Y-4256674D02*
X3497301Y-4247150D01*
X3497301Y-4247150D02*
X3535396Y-4247150D01*
X3535396Y-4247150D02*
X3554443Y-4256674D01*
X3554443Y-4256674D02*
X3563967Y-4266198D01*
X3563967Y-4266198D02*
X3573491Y-4285246D01*
X3573491Y-4285246D02*
X3573491Y-4342389D01*
X3573491Y-4342389D02*
X3563967Y-4361436D01*
X3563967Y-4361436D02*
X3554443Y-4370960D01*
X3554443Y-4370960D02*
X3535396Y-4380484D01*
X3535396Y-4380484D02*
X3497301Y-4380484D01*
X3497301Y-4380484D02*
X3478253Y-4370960D01*
X3659205Y-4361436D02*
X3668729Y-4370960D01*
X3668729Y-4370960D02*
X3659205Y-4380484D01*
X3659205Y-4380484D02*
X3649682Y-4370960D01*
X3649682Y-4370960D02*
X3659205Y-4361436D01*
X3659205Y-4361436D02*
X3659205Y-4380484D01*
X3659205Y-4256674D02*
X3668729Y-4266198D01*
X3668729Y-4266198D02*
X3659205Y-4275722D01*
X3659205Y-4275722D02*
X3649682Y-4266198D01*
X3649682Y-4266198D02*
X3659205Y-4256674D01*
X3659205Y-4256674D02*
X3659205Y-4275722D01*
M02*
