%TF.GenerationSoftware,KiCad,Pcbnew,7.0.9-1.fc39*%
%TF.CreationDate,2023-12-29T10:14:23-08:00*%
%TF.ProjectId,ADB-USB-adapter,4144422d-5553-4422-9d61-646170746572,rev?*%
%TF.SameCoordinates,Original*%
%TF.FileFunction,Legend,Bot*%
%TF.FilePolarity,Positive*%
%FSLAX46Y46*%
G04 Gerber Fmt 4.6, Leading zero omitted, Abs format (unit mm)*
G04 Created by KiCad (PCBNEW 7.0.9-1.fc39) date 2023-12-29 10:14:23*
%MOMM*%
%LPD*%
G01*
G04 APERTURE LIST*
%ADD10C,0.150000*%
G04 APERTURE END LIST*
D10*
X49193220Y-28708152D02*
X49193220Y-29565295D01*
X49193220Y-29565295D02*
X49240839Y-29660533D01*
X49240839Y-29660533D02*
X49336077Y-29708152D01*
X49336077Y-29708152D02*
X49383696Y-29708152D01*
X49193220Y-28374819D02*
X49240839Y-28422438D01*
X49240839Y-28422438D02*
X49193220Y-28470057D01*
X49193220Y-28470057D02*
X49145601Y-28422438D01*
X49145601Y-28422438D02*
X49193220Y-28374819D01*
X49193220Y-28374819D02*
X49193220Y-28470057D01*
X48574173Y-29374819D02*
X48669411Y-29327200D01*
X48669411Y-29327200D02*
X48717030Y-29279580D01*
X48717030Y-29279580D02*
X48764649Y-29184342D01*
X48764649Y-29184342D02*
X48764649Y-28898628D01*
X48764649Y-28898628D02*
X48717030Y-28803390D01*
X48717030Y-28803390D02*
X48669411Y-28755771D01*
X48669411Y-28755771D02*
X48574173Y-28708152D01*
X48574173Y-28708152D02*
X48431316Y-28708152D01*
X48431316Y-28708152D02*
X48336078Y-28755771D01*
X48336078Y-28755771D02*
X48288459Y-28803390D01*
X48288459Y-28803390D02*
X48240840Y-28898628D01*
X48240840Y-28898628D02*
X48240840Y-29184342D01*
X48240840Y-29184342D02*
X48288459Y-29279580D01*
X48288459Y-29279580D02*
X48336078Y-29327200D01*
X48336078Y-29327200D02*
X48431316Y-29374819D01*
X48431316Y-29374819D02*
X48574173Y-29374819D01*
X47383697Y-29374819D02*
X47383697Y-28851009D01*
X47383697Y-28851009D02*
X47431316Y-28755771D01*
X47431316Y-28755771D02*
X47526554Y-28708152D01*
X47526554Y-28708152D02*
X47717030Y-28708152D01*
X47717030Y-28708152D02*
X47812268Y-28755771D01*
X47383697Y-29327200D02*
X47478935Y-29374819D01*
X47478935Y-29374819D02*
X47717030Y-29374819D01*
X47717030Y-29374819D02*
X47812268Y-29327200D01*
X47812268Y-29327200D02*
X47859887Y-29231961D01*
X47859887Y-29231961D02*
X47859887Y-29136723D01*
X47859887Y-29136723D02*
X47812268Y-29041485D01*
X47812268Y-29041485D02*
X47717030Y-28993866D01*
X47717030Y-28993866D02*
X47478935Y-28993866D01*
X47478935Y-28993866D02*
X47383697Y-28946247D01*
X46907506Y-28708152D02*
X46907506Y-29374819D01*
X46907506Y-28803390D02*
X46859887Y-28755771D01*
X46859887Y-28755771D02*
X46764649Y-28708152D01*
X46764649Y-28708152D02*
X46621792Y-28708152D01*
X46621792Y-28708152D02*
X46526554Y-28755771D01*
X46526554Y-28755771D02*
X46478935Y-28851009D01*
X46478935Y-28851009D02*
X46478935Y-29374819D01*
X46002744Y-28708152D02*
X46002744Y-29374819D01*
X46002744Y-28803390D02*
X45955125Y-28755771D01*
X45955125Y-28755771D02*
X45859887Y-28708152D01*
X45859887Y-28708152D02*
X45717030Y-28708152D01*
X45717030Y-28708152D02*
X45621792Y-28755771D01*
X45621792Y-28755771D02*
X45574173Y-28851009D01*
X45574173Y-28851009D02*
X45574173Y-29374819D01*
X44717030Y-29327200D02*
X44812268Y-29374819D01*
X44812268Y-29374819D02*
X45002744Y-29374819D01*
X45002744Y-29374819D02*
X45097982Y-29327200D01*
X45097982Y-29327200D02*
X45145601Y-29231961D01*
X45145601Y-29231961D02*
X45145601Y-28851009D01*
X45145601Y-28851009D02*
X45097982Y-28755771D01*
X45097982Y-28755771D02*
X45002744Y-28708152D01*
X45002744Y-28708152D02*
X44812268Y-28708152D01*
X44812268Y-28708152D02*
X44717030Y-28755771D01*
X44717030Y-28755771D02*
X44669411Y-28851009D01*
X44669411Y-28851009D02*
X44669411Y-28946247D01*
X44669411Y-28946247D02*
X45145601Y-29041485D01*
X44240839Y-28993866D02*
X43478935Y-28993866D01*
X42859887Y-29374819D02*
X42955125Y-29327200D01*
X42955125Y-29327200D02*
X43002744Y-29231961D01*
X43002744Y-29231961D02*
X43002744Y-28374819D01*
X42050363Y-29374819D02*
X42050363Y-28851009D01*
X42050363Y-28851009D02*
X42097982Y-28755771D01*
X42097982Y-28755771D02*
X42193220Y-28708152D01*
X42193220Y-28708152D02*
X42383696Y-28708152D01*
X42383696Y-28708152D02*
X42478934Y-28755771D01*
X42050363Y-29327200D02*
X42145601Y-29374819D01*
X42145601Y-29374819D02*
X42383696Y-29374819D01*
X42383696Y-29374819D02*
X42478934Y-29327200D01*
X42478934Y-29327200D02*
X42526553Y-29231961D01*
X42526553Y-29231961D02*
X42526553Y-29136723D01*
X42526553Y-29136723D02*
X42478934Y-29041485D01*
X42478934Y-29041485D02*
X42383696Y-28993866D01*
X42383696Y-28993866D02*
X42145601Y-28993866D01*
X42145601Y-28993866D02*
X42050363Y-28946247D01*
X41574172Y-29374819D02*
X41574172Y-28374819D01*
X41574172Y-28755771D02*
X41478934Y-28708152D01*
X41478934Y-28708152D02*
X41288458Y-28708152D01*
X41288458Y-28708152D02*
X41193220Y-28755771D01*
X41193220Y-28755771D02*
X41145601Y-28803390D01*
X41145601Y-28803390D02*
X41097982Y-28898628D01*
X41097982Y-28898628D02*
X41097982Y-29184342D01*
X41097982Y-29184342D02*
X41145601Y-29279580D01*
X41145601Y-29279580D02*
X41193220Y-29327200D01*
X41193220Y-29327200D02*
X41288458Y-29374819D01*
X41288458Y-29374819D02*
X41478934Y-29374819D01*
X41478934Y-29374819D02*
X41574172Y-29327200D01*
X49193220Y-30984819D02*
X49193220Y-30318152D01*
X49193220Y-30508628D02*
X49145601Y-30413390D01*
X49145601Y-30413390D02*
X49097982Y-30365771D01*
X49097982Y-30365771D02*
X49002744Y-30318152D01*
X49002744Y-30318152D02*
X48907506Y-30318152D01*
X48193220Y-30937200D02*
X48288458Y-30984819D01*
X48288458Y-30984819D02*
X48478934Y-30984819D01*
X48478934Y-30984819D02*
X48574172Y-30937200D01*
X48574172Y-30937200D02*
X48621791Y-30841961D01*
X48621791Y-30841961D02*
X48621791Y-30461009D01*
X48621791Y-30461009D02*
X48574172Y-30365771D01*
X48574172Y-30365771D02*
X48478934Y-30318152D01*
X48478934Y-30318152D02*
X48288458Y-30318152D01*
X48288458Y-30318152D02*
X48193220Y-30365771D01*
X48193220Y-30365771D02*
X48145601Y-30461009D01*
X48145601Y-30461009D02*
X48145601Y-30556247D01*
X48145601Y-30556247D02*
X48621791Y-30651485D01*
X47812267Y-30318152D02*
X47574172Y-30984819D01*
X47574172Y-30984819D02*
X47336077Y-30318152D01*
X46240838Y-30080057D02*
X46193219Y-30032438D01*
X46193219Y-30032438D02*
X46097981Y-29984819D01*
X46097981Y-29984819D02*
X45859886Y-29984819D01*
X45859886Y-29984819D02*
X45764648Y-30032438D01*
X45764648Y-30032438D02*
X45717029Y-30080057D01*
X45717029Y-30080057D02*
X45669410Y-30175295D01*
X45669410Y-30175295D02*
X45669410Y-30270533D01*
X45669410Y-30270533D02*
X45717029Y-30413390D01*
X45717029Y-30413390D02*
X46288457Y-30984819D01*
X46288457Y-30984819D02*
X45669410Y-30984819D01*
X45240838Y-30889580D02*
X45193219Y-30937200D01*
X45193219Y-30937200D02*
X45240838Y-30984819D01*
X45240838Y-30984819D02*
X45288457Y-30937200D01*
X45288457Y-30937200D02*
X45240838Y-30889580D01*
X45240838Y-30889580D02*
X45240838Y-30984819D01*
X44574172Y-29984819D02*
X44478934Y-29984819D01*
X44478934Y-29984819D02*
X44383696Y-30032438D01*
X44383696Y-30032438D02*
X44336077Y-30080057D01*
X44336077Y-30080057D02*
X44288458Y-30175295D01*
X44288458Y-30175295D02*
X44240839Y-30365771D01*
X44240839Y-30365771D02*
X44240839Y-30603866D01*
X44240839Y-30603866D02*
X44288458Y-30794342D01*
X44288458Y-30794342D02*
X44336077Y-30889580D01*
X44336077Y-30889580D02*
X44383696Y-30937200D01*
X44383696Y-30937200D02*
X44478934Y-30984819D01*
X44478934Y-30984819D02*
X44574172Y-30984819D01*
X44574172Y-30984819D02*
X44669410Y-30937200D01*
X44669410Y-30937200D02*
X44717029Y-30889580D01*
X44717029Y-30889580D02*
X44764648Y-30794342D01*
X44764648Y-30794342D02*
X44812267Y-30603866D01*
X44812267Y-30603866D02*
X44812267Y-30365771D01*
X44812267Y-30365771D02*
X44764648Y-30175295D01*
X44764648Y-30175295D02*
X44717029Y-30080057D01*
X44717029Y-30080057D02*
X44669410Y-30032438D01*
X44669410Y-30032438D02*
X44574172Y-29984819D01*
X31308561Y-24539411D02*
X31356180Y-24634649D01*
X31356180Y-24634649D02*
X31356180Y-24777506D01*
X31356180Y-24777506D02*
X31308561Y-24920363D01*
X31308561Y-24920363D02*
X31213323Y-25015601D01*
X31213323Y-25015601D02*
X31118085Y-25063220D01*
X31118085Y-25063220D02*
X30927609Y-25110839D01*
X30927609Y-25110839D02*
X30784752Y-25110839D01*
X30784752Y-25110839D02*
X30594276Y-25063220D01*
X30594276Y-25063220D02*
X30499038Y-25015601D01*
X30499038Y-25015601D02*
X30403800Y-24920363D01*
X30403800Y-24920363D02*
X30356180Y-24777506D01*
X30356180Y-24777506D02*
X30356180Y-24682268D01*
X30356180Y-24682268D02*
X30403800Y-24539411D01*
X30403800Y-24539411D02*
X30451419Y-24491792D01*
X30451419Y-24491792D02*
X30784752Y-24491792D01*
X30784752Y-24491792D02*
X30784752Y-24682268D01*
X30356180Y-24063220D02*
X31356180Y-24063220D01*
X31356180Y-24063220D02*
X30356180Y-23491792D01*
X30356180Y-23491792D02*
X31356180Y-23491792D01*
X30356180Y-23015601D02*
X31356180Y-23015601D01*
X31356180Y-23015601D02*
X31356180Y-22777506D01*
X31356180Y-22777506D02*
X31308561Y-22634649D01*
X31308561Y-22634649D02*
X31213323Y-22539411D01*
X31213323Y-22539411D02*
X31118085Y-22491792D01*
X31118085Y-22491792D02*
X30927609Y-22444173D01*
X30927609Y-22444173D02*
X30784752Y-22444173D01*
X30784752Y-22444173D02*
X30594276Y-22491792D01*
X30594276Y-22491792D02*
X30499038Y-22539411D01*
X30499038Y-22539411D02*
X30403800Y-22634649D01*
X30403800Y-22634649D02*
X30356180Y-22777506D01*
X30356180Y-22777506D02*
X30356180Y-23015601D01*
X31365819Y-34880779D02*
X30365819Y-34880779D01*
X30365819Y-34880779D02*
X30365819Y-35118874D01*
X30365819Y-35118874D02*
X30413438Y-35261731D01*
X30413438Y-35261731D02*
X30508676Y-35356969D01*
X30508676Y-35356969D02*
X30603914Y-35404588D01*
X30603914Y-35404588D02*
X30794390Y-35452207D01*
X30794390Y-35452207D02*
X30937247Y-35452207D01*
X30937247Y-35452207D02*
X31127723Y-35404588D01*
X31127723Y-35404588D02*
X31222961Y-35356969D01*
X31222961Y-35356969D02*
X31318200Y-35261731D01*
X31318200Y-35261731D02*
X31365819Y-35118874D01*
X31365819Y-35118874D02*
X31365819Y-34880779D01*
X30984866Y-35880779D02*
X30984866Y-36642684D01*
X31365819Y-36261731D02*
X30603914Y-36261731D01*
X28816180Y-24952077D02*
X27816180Y-24618744D01*
X27816180Y-24618744D02*
X28816180Y-24285411D01*
X28339990Y-23618744D02*
X28292371Y-23475887D01*
X28292371Y-23475887D02*
X28244752Y-23428268D01*
X28244752Y-23428268D02*
X28149514Y-23380649D01*
X28149514Y-23380649D02*
X28006657Y-23380649D01*
X28006657Y-23380649D02*
X27911419Y-23428268D01*
X27911419Y-23428268D02*
X27863800Y-23475887D01*
X27863800Y-23475887D02*
X27816180Y-23571125D01*
X27816180Y-23571125D02*
X27816180Y-23952077D01*
X27816180Y-23952077D02*
X28816180Y-23952077D01*
X28816180Y-23952077D02*
X28816180Y-23618744D01*
X28816180Y-23618744D02*
X28768561Y-23523506D01*
X28768561Y-23523506D02*
X28720942Y-23475887D01*
X28720942Y-23475887D02*
X28625704Y-23428268D01*
X28625704Y-23428268D02*
X28530466Y-23428268D01*
X28530466Y-23428268D02*
X28435228Y-23475887D01*
X28435228Y-23475887D02*
X28387609Y-23523506D01*
X28387609Y-23523506D02*
X28339990Y-23618744D01*
X28339990Y-23618744D02*
X28339990Y-23952077D01*
X28816180Y-22952077D02*
X28006657Y-22952077D01*
X28006657Y-22952077D02*
X27911419Y-22904458D01*
X27911419Y-22904458D02*
X27863800Y-22856839D01*
X27863800Y-22856839D02*
X27816180Y-22761601D01*
X27816180Y-22761601D02*
X27816180Y-22571125D01*
X27816180Y-22571125D02*
X27863800Y-22475887D01*
X27863800Y-22475887D02*
X27911419Y-22428268D01*
X27911419Y-22428268D02*
X28006657Y-22380649D01*
X28006657Y-22380649D02*
X28816180Y-22380649D01*
X27863800Y-21952077D02*
X27816180Y-21809220D01*
X27816180Y-21809220D02*
X27816180Y-21571125D01*
X27816180Y-21571125D02*
X27863800Y-21475887D01*
X27863800Y-21475887D02*
X27911419Y-21428268D01*
X27911419Y-21428268D02*
X28006657Y-21380649D01*
X28006657Y-21380649D02*
X28101895Y-21380649D01*
X28101895Y-21380649D02*
X28197133Y-21428268D01*
X28197133Y-21428268D02*
X28244752Y-21475887D01*
X28244752Y-21475887D02*
X28292371Y-21571125D01*
X28292371Y-21571125D02*
X28339990Y-21761601D01*
X28339990Y-21761601D02*
X28387609Y-21856839D01*
X28387609Y-21856839D02*
X28435228Y-21904458D01*
X28435228Y-21904458D02*
X28530466Y-21952077D01*
X28530466Y-21952077D02*
X28625704Y-21952077D01*
X28625704Y-21952077D02*
X28720942Y-21904458D01*
X28720942Y-21904458D02*
X28768561Y-21856839D01*
X28768561Y-21856839D02*
X28816180Y-21761601D01*
X28816180Y-21761601D02*
X28816180Y-21523506D01*
X28816180Y-21523506D02*
X28768561Y-21380649D01*
X28825819Y-34880779D02*
X27825819Y-34880779D01*
X27825819Y-34880779D02*
X27825819Y-35118874D01*
X27825819Y-35118874D02*
X27873438Y-35261731D01*
X27873438Y-35261731D02*
X27968676Y-35356969D01*
X27968676Y-35356969D02*
X28063914Y-35404588D01*
X28063914Y-35404588D02*
X28254390Y-35452207D01*
X28254390Y-35452207D02*
X28397247Y-35452207D01*
X28397247Y-35452207D02*
X28587723Y-35404588D01*
X28587723Y-35404588D02*
X28682961Y-35356969D01*
X28682961Y-35356969D02*
X28778200Y-35261731D01*
X28778200Y-35261731D02*
X28825819Y-35118874D01*
X28825819Y-35118874D02*
X28825819Y-34880779D01*
X28444866Y-35880779D02*
X28444866Y-36642684D01*
M02*
