%TF.GenerationSoftware,KiCad,Pcbnew,7.0.9-1.fc39*%
%TF.CreationDate,2023-12-29T10:16:04-08:00*%
%TF.ProjectId,M0116,4d303131-362e-46b6-9963-61645f706362,rev?*%
%TF.SameCoordinates,Original*%
%TF.FileFunction,Copper,L2,Bot*%
%TF.FilePolarity,Positive*%
%FSLAX46Y46*%
G04 Gerber Fmt 4.6, Leading zero omitted, Abs format (unit mm)*
G04 Created by KiCad (PCBNEW 7.0.9-1.fc39) date 2023-12-29 10:16:04*
%MOMM*%
%LPD*%
G01*
G04 APERTURE LIST*
%TA.AperFunction,ComponentPad*%
%ADD10R,1.350000X1.350000*%
%TD*%
%TA.AperFunction,ComponentPad*%
%ADD11O,1.350000X1.350000*%
%TD*%
%TA.AperFunction,ComponentPad*%
%ADD12R,1.398000X1.398000*%
%TD*%
%TA.AperFunction,ComponentPad*%
%ADD13C,1.398000*%
%TD*%
%TA.AperFunction,ComponentPad*%
%ADD14C,3.306000*%
%TD*%
G04 APERTURE END LIST*
D10*
%TO.P,J2,1,Pin_1*%
%TO.N,GND*%
X133000000Y-112000000D03*
D11*
%TO.P,J2,2,Pin_2*%
%TO.N,JST-D-*%
X133000000Y-110000000D03*
%TO.P,J2,3,Pin_3*%
%TO.N,JST-D+*%
X133000000Y-108000000D03*
%TO.P,J2,4,Pin_4*%
%TO.N,VBUS*%
X133000000Y-106000000D03*
%TD*%
D12*
%TO.P,ADB-FEM1,1,1*%
%TO.N,JST-D+*%
X108510000Y-111700000D03*
D13*
%TO.P,ADB-FEM1,2,2*%
%TO.N,VBUS*%
X108510000Y-105000000D03*
%TO.P,ADB-FEM1,3,3*%
%TO.N,JST-D-*%
X111000000Y-111700000D03*
%TO.P,ADB-FEM1,4,4*%
%TO.N,GND*%
X111000000Y-105000000D03*
D14*
%TO.P,ADB-FEM1,5,SH*%
%TO.N,unconnected-(ADB-FEM1-SH-Pad5)*%
X104700000Y-108350000D03*
%TO.P,ADB-FEM1,6,SH*%
X105510000Y-101590000D03*
%TO.P,ADB-FEM1,7,SH*%
X105510000Y-115110000D03*
%TD*%
%TA.AperFunction,Conductor*%
%TO.N,GND*%
G36*
X103829425Y-100020185D02*
G01*
X103875180Y-100072989D01*
X103885124Y-100142147D01*
X103856099Y-100205703D01*
X103853010Y-100209136D01*
X103835606Y-100227771D01*
X103665708Y-100468460D01*
X103530169Y-100730039D01*
X103431513Y-101007629D01*
X103431512Y-101007632D01*
X103371572Y-101296085D01*
X103351468Y-101590000D01*
X103371572Y-101883914D01*
X103431512Y-102172367D01*
X103431513Y-102172370D01*
X103530169Y-102449960D01*
X103530170Y-102449962D01*
X103665708Y-102711539D01*
X103835602Y-102952224D01*
X103835606Y-102952228D01*
X103835606Y-102952229D01*
X103910343Y-103032252D01*
X104036687Y-103167533D01*
X104265217Y-103353456D01*
X104265219Y-103353457D01*
X104265220Y-103353458D01*
X104516936Y-103506530D01*
X104516940Y-103506532D01*
X104787147Y-103623898D01*
X104787152Y-103623900D01*
X105070834Y-103703384D01*
X105327427Y-103738652D01*
X105362696Y-103743500D01*
X105362697Y-103743500D01*
X105657304Y-103743500D01*
X105688769Y-103739174D01*
X105949166Y-103703384D01*
X106232848Y-103623900D01*
X106340934Y-103576951D01*
X106503059Y-103506532D01*
X106503063Y-103506530D01*
X106503065Y-103506529D01*
X106754783Y-103353456D01*
X106983313Y-103167533D01*
X107184398Y-102952224D01*
X107354292Y-102711539D01*
X107489830Y-102449962D01*
X107588488Y-102172365D01*
X107648427Y-101883920D01*
X107668532Y-101590000D01*
X107648427Y-101296080D01*
X107588488Y-101007635D01*
X107489830Y-100730038D01*
X107354292Y-100468461D01*
X107184398Y-100227776D01*
X107178092Y-100221024D01*
X107166990Y-100209136D01*
X107135618Y-100146706D01*
X107142980Y-100077225D01*
X107186736Y-100022754D01*
X107252996Y-100000586D01*
X107257614Y-100000500D01*
X113875500Y-100000500D01*
X113942539Y-100020185D01*
X113988294Y-100072989D01*
X113999500Y-100124500D01*
X113999500Y-101975467D01*
X113999416Y-101975889D01*
X113999459Y-102000001D01*
X113999500Y-102000099D01*
X113999616Y-102000382D01*
X113999618Y-102000384D01*
X113999808Y-102000462D01*
X114000000Y-102000541D01*
X114000002Y-102000539D01*
X114024616Y-102000524D01*
X114024616Y-102000528D01*
X114024760Y-102000500D01*
X137875500Y-102000500D01*
X137942539Y-102020185D01*
X137988294Y-102072989D01*
X137999500Y-102124500D01*
X137999500Y-116875500D01*
X137979815Y-116942539D01*
X137927011Y-116988294D01*
X137875500Y-116999500D01*
X106948756Y-116999500D01*
X106881717Y-116979815D01*
X106835962Y-116927011D01*
X106826018Y-116857853D01*
X106855043Y-116794297D01*
X106870501Y-116779312D01*
X106983313Y-116687533D01*
X107184398Y-116472224D01*
X107354292Y-116231539D01*
X107489830Y-115969962D01*
X107588488Y-115692365D01*
X107648427Y-115403920D01*
X107668532Y-115110000D01*
X107648427Y-114816080D01*
X107588488Y-114527635D01*
X107489830Y-114250038D01*
X107354292Y-113988461D01*
X107184398Y-113747776D01*
X107184393Y-113747770D01*
X107117028Y-113675640D01*
X106983313Y-113532467D01*
X106754783Y-113346544D01*
X106754781Y-113346543D01*
X106754779Y-113346541D01*
X106503063Y-113193469D01*
X106503059Y-113193467D01*
X106232852Y-113076101D01*
X105949171Y-112996617D01*
X105949167Y-112996616D01*
X105949166Y-112996616D01*
X105803234Y-112976558D01*
X105657304Y-112956500D01*
X105657303Y-112956500D01*
X105362697Y-112956500D01*
X105362696Y-112956500D01*
X105070834Y-112996616D01*
X105070828Y-112996617D01*
X104787147Y-113076101D01*
X104516940Y-113193467D01*
X104516936Y-113193469D01*
X104265220Y-113346541D01*
X104036690Y-113532464D01*
X103835606Y-113747770D01*
X103835606Y-113747771D01*
X103665708Y-113988460D01*
X103530169Y-114250039D01*
X103431513Y-114527629D01*
X103431512Y-114527632D01*
X103371572Y-114816085D01*
X103351468Y-115110000D01*
X103371572Y-115403914D01*
X103431512Y-115692367D01*
X103431513Y-115692370D01*
X103530169Y-115969960D01*
X103530170Y-115969962D01*
X103665708Y-116231539D01*
X103835602Y-116472224D01*
X103835606Y-116472228D01*
X103835606Y-116472229D01*
X103910343Y-116552252D01*
X104036687Y-116687533D01*
X104149499Y-116779312D01*
X104189079Y-116836889D01*
X104191248Y-116906725D01*
X104155317Y-116966647D01*
X104092693Y-116997631D01*
X104071244Y-116999500D01*
X100124500Y-116999500D01*
X100057461Y-116979815D01*
X100011706Y-116927011D01*
X100000500Y-116875500D01*
X100000500Y-112446870D01*
X107310500Y-112446870D01*
X107310501Y-112446876D01*
X107316908Y-112506483D01*
X107367202Y-112641328D01*
X107367206Y-112641335D01*
X107453452Y-112756544D01*
X107453455Y-112756547D01*
X107568664Y-112842793D01*
X107568671Y-112842797D01*
X107703517Y-112893091D01*
X107703516Y-112893091D01*
X107710444Y-112893835D01*
X107763127Y-112899500D01*
X109256872Y-112899499D01*
X109316483Y-112893091D01*
X109451331Y-112842796D01*
X109566546Y-112756546D01*
X109652796Y-112641331D01*
X109703091Y-112506483D01*
X109709500Y-112446873D01*
X109709499Y-112326580D01*
X109729183Y-112259544D01*
X109781987Y-112213789D01*
X109851145Y-112203845D01*
X109914701Y-112232869D01*
X109944499Y-112271311D01*
X109975795Y-112334161D01*
X110109762Y-112511562D01*
X110251088Y-112640397D01*
X110274043Y-112661323D01*
X110463046Y-112778349D01*
X110463047Y-112778349D01*
X110463048Y-112778350D01*
X110532142Y-112805117D01*
X110670335Y-112858653D01*
X110888850Y-112899500D01*
X110888853Y-112899500D01*
X111111147Y-112899500D01*
X111111150Y-112899500D01*
X111329665Y-112858653D01*
X111536954Y-112778349D01*
X111725957Y-112661323D01*
X111890239Y-112511560D01*
X112024205Y-112334161D01*
X112123292Y-112135166D01*
X112184128Y-111921352D01*
X112204639Y-111700000D01*
X112184128Y-111478648D01*
X112123292Y-111264834D01*
X112099782Y-111217620D01*
X112051726Y-111121110D01*
X112024205Y-111065839D01*
X111930752Y-110942088D01*
X111890237Y-110888437D01*
X111725958Y-110738678D01*
X111725957Y-110738677D01*
X111536954Y-110621651D01*
X111536952Y-110621650D01*
X111536951Y-110621649D01*
X111329668Y-110541348D01*
X111329667Y-110541347D01*
X111329665Y-110541347D01*
X111111150Y-110500500D01*
X110888850Y-110500500D01*
X110670335Y-110541347D01*
X110670333Y-110541347D01*
X110670331Y-110541348D01*
X110463048Y-110621649D01*
X110463047Y-110621650D01*
X110274041Y-110738678D01*
X110109762Y-110888437D01*
X109975795Y-111065838D01*
X109944499Y-111128689D01*
X109896996Y-111179926D01*
X109829333Y-111197347D01*
X109762992Y-111175421D01*
X109719038Y-111121110D01*
X109709499Y-111073417D01*
X109709499Y-110953129D01*
X109709498Y-110953123D01*
X109709497Y-110953116D01*
X109703091Y-110893517D01*
X109701197Y-110888440D01*
X109652797Y-110758671D01*
X109652793Y-110758664D01*
X109566547Y-110643455D01*
X109566544Y-110643452D01*
X109451335Y-110557206D01*
X109451328Y-110557202D01*
X109316482Y-110506908D01*
X109316483Y-110506908D01*
X109256883Y-110500501D01*
X109256881Y-110500500D01*
X109256873Y-110500500D01*
X109256864Y-110500500D01*
X107763129Y-110500500D01*
X107763123Y-110500501D01*
X107703516Y-110506908D01*
X107568671Y-110557202D01*
X107568664Y-110557206D01*
X107453455Y-110643452D01*
X107453452Y-110643455D01*
X107367206Y-110758664D01*
X107367202Y-110758671D01*
X107316908Y-110893517D01*
X107315810Y-110903735D01*
X107310501Y-110953123D01*
X107310500Y-110953135D01*
X107310500Y-112446870D01*
X100000500Y-112446870D01*
X100000500Y-108350000D01*
X102541468Y-108350000D01*
X102561572Y-108643914D01*
X102621512Y-108932367D01*
X102621513Y-108932370D01*
X102718291Y-109204675D01*
X102720170Y-109209962D01*
X102855708Y-109471539D01*
X103025602Y-109712224D01*
X103025606Y-109712228D01*
X103025606Y-109712229D01*
X103091774Y-109783077D01*
X103226687Y-109927533D01*
X103455217Y-110113456D01*
X103455219Y-110113457D01*
X103455220Y-110113458D01*
X103706936Y-110266530D01*
X103706940Y-110266532D01*
X103977147Y-110383898D01*
X103977152Y-110383900D01*
X104260834Y-110463384D01*
X104517427Y-110498652D01*
X104552696Y-110503500D01*
X104552697Y-110503500D01*
X104847304Y-110503500D01*
X104878769Y-110499174D01*
X105139166Y-110463384D01*
X105422848Y-110383900D01*
X105530934Y-110336951D01*
X105693059Y-110266532D01*
X105693063Y-110266530D01*
X105693065Y-110266529D01*
X105944783Y-110113456D01*
X106084239Y-110000000D01*
X131819464Y-110000000D01*
X131839564Y-110216918D01*
X131839564Y-110216920D01*
X131839565Y-110216923D01*
X131887074Y-110383900D01*
X131899184Y-110426462D01*
X131937545Y-110503500D01*
X131996288Y-110621472D01*
X132012886Y-110643452D01*
X132078049Y-110729741D01*
X132102741Y-110795102D01*
X132088176Y-110863437D01*
X132053406Y-110903735D01*
X131967809Y-110967813D01*
X131881649Y-111082906D01*
X131881645Y-111082913D01*
X131831403Y-111217620D01*
X131831401Y-111217627D01*
X131825000Y-111277155D01*
X131825000Y-111750000D01*
X132684314Y-111750000D01*
X132672359Y-111761955D01*
X132614835Y-111874852D01*
X132595014Y-112000000D01*
X132614835Y-112125148D01*
X132672359Y-112238045D01*
X132684314Y-112250000D01*
X131825000Y-112250000D01*
X131825000Y-112722844D01*
X131831401Y-112782372D01*
X131831403Y-112782379D01*
X131881645Y-112917086D01*
X131881649Y-112917093D01*
X131967809Y-113032187D01*
X131967812Y-113032190D01*
X132082906Y-113118350D01*
X132082913Y-113118354D01*
X132217620Y-113168596D01*
X132217627Y-113168598D01*
X132277155Y-113174999D01*
X132277172Y-113175000D01*
X132750000Y-113175000D01*
X132750000Y-112315686D01*
X132761955Y-112327641D01*
X132874852Y-112385165D01*
X132968519Y-112400000D01*
X133031481Y-112400000D01*
X133125148Y-112385165D01*
X133238045Y-112327641D01*
X133250000Y-112315686D01*
X133250000Y-113175000D01*
X133722828Y-113175000D01*
X133722844Y-113174999D01*
X133782372Y-113168598D01*
X133782379Y-113168596D01*
X133917086Y-113118354D01*
X133917093Y-113118350D01*
X134032187Y-113032190D01*
X134032190Y-113032187D01*
X134118350Y-112917093D01*
X134118354Y-112917086D01*
X134168596Y-112782379D01*
X134168598Y-112782372D01*
X134174999Y-112722844D01*
X134175000Y-112722827D01*
X134175000Y-112250000D01*
X133315686Y-112250000D01*
X133327641Y-112238045D01*
X133385165Y-112125148D01*
X133404986Y-112000000D01*
X133385165Y-111874852D01*
X133327641Y-111761955D01*
X133315686Y-111750000D01*
X134175000Y-111750000D01*
X134175000Y-111277172D01*
X134174999Y-111277155D01*
X134168598Y-111217627D01*
X134168596Y-111217620D01*
X134118354Y-111082913D01*
X134118350Y-111082906D01*
X134032190Y-110967812D01*
X133946593Y-110903733D01*
X133904723Y-110847799D01*
X133899739Y-110778107D01*
X133921951Y-110729741D01*
X134003712Y-110621472D01*
X134100817Y-110426459D01*
X134160435Y-110216923D01*
X134180536Y-110000000D01*
X134160435Y-109783077D01*
X134100817Y-109573541D01*
X134003712Y-109378528D01*
X133872427Y-109204678D01*
X133748423Y-109091634D01*
X133712145Y-109031927D01*
X133713905Y-108962079D01*
X133748423Y-108908365D01*
X133872427Y-108795322D01*
X134003712Y-108621472D01*
X134100817Y-108426459D01*
X134160435Y-108216923D01*
X134180536Y-108000000D01*
X134160435Y-107783077D01*
X134100817Y-107573541D01*
X134003712Y-107378528D01*
X133872427Y-107204678D01*
X133748423Y-107091634D01*
X133712145Y-107031927D01*
X133713905Y-106962079D01*
X133748423Y-106908365D01*
X133872427Y-106795322D01*
X134003712Y-106621472D01*
X134100817Y-106426459D01*
X134160435Y-106216923D01*
X134180536Y-106000000D01*
X134160435Y-105783077D01*
X134100817Y-105573541D01*
X134003712Y-105378528D01*
X133872427Y-105204678D01*
X133711432Y-105057912D01*
X133711428Y-105057909D01*
X133711423Y-105057906D01*
X133526213Y-104943229D01*
X133526207Y-104943226D01*
X133414265Y-104899860D01*
X133323069Y-104864530D01*
X133108926Y-104824500D01*
X132891074Y-104824500D01*
X132676931Y-104864530D01*
X132628130Y-104883435D01*
X132473792Y-104943226D01*
X132473786Y-104943229D01*
X132288576Y-105057906D01*
X132288566Y-105057913D01*
X132127574Y-105204676D01*
X131996288Y-105378527D01*
X131899184Y-105573537D01*
X131839564Y-105783081D01*
X131819464Y-105999999D01*
X131819464Y-106000000D01*
X131839564Y-106216918D01*
X131839564Y-106216920D01*
X131839565Y-106216923D01*
X131867784Y-106316101D01*
X131899184Y-106426462D01*
X131996288Y-106621472D01*
X132127574Y-106795324D01*
X132251572Y-106908363D01*
X132287854Y-106968074D01*
X132286093Y-107037922D01*
X132251572Y-107091637D01*
X132127574Y-107204675D01*
X131996288Y-107378527D01*
X131899184Y-107573537D01*
X131899183Y-107573541D01*
X131843960Y-107767632D01*
X131839564Y-107783081D01*
X131819464Y-107999999D01*
X131819464Y-108000000D01*
X131839564Y-108216918D01*
X131899184Y-108426462D01*
X131996288Y-108621472D01*
X132127574Y-108795324D01*
X132251572Y-108908363D01*
X132287854Y-108968074D01*
X132286093Y-109037922D01*
X132251572Y-109091637D01*
X132127574Y-109204675D01*
X131996288Y-109378527D01*
X131899184Y-109573537D01*
X131839564Y-109783081D01*
X131819464Y-109999999D01*
X131819464Y-110000000D01*
X106084239Y-110000000D01*
X106173313Y-109927533D01*
X106374398Y-109712224D01*
X106544292Y-109471539D01*
X106679830Y-109209962D01*
X106778488Y-108932365D01*
X106838427Y-108643920D01*
X106858532Y-108350000D01*
X106838427Y-108056080D01*
X106778488Y-107767635D01*
X106679830Y-107490038D01*
X106544292Y-107228461D01*
X106374398Y-106987776D01*
X106374393Y-106987770D01*
X106300230Y-106908362D01*
X106173313Y-106772467D01*
X105944783Y-106586544D01*
X105944781Y-106586543D01*
X105944779Y-106586541D01*
X105693063Y-106433469D01*
X105693059Y-106433467D01*
X105422852Y-106316101D01*
X105139171Y-106236617D01*
X105139167Y-106236616D01*
X105139166Y-106236616D01*
X104993234Y-106216558D01*
X104847304Y-106196500D01*
X104847303Y-106196500D01*
X104552697Y-106196500D01*
X104552696Y-106196500D01*
X104260834Y-106236616D01*
X104260828Y-106236617D01*
X103977147Y-106316101D01*
X103706940Y-106433467D01*
X103706936Y-106433469D01*
X103455220Y-106586541D01*
X103226690Y-106772464D01*
X103025606Y-106987770D01*
X103025606Y-106987771D01*
X103025603Y-106987773D01*
X103025602Y-106987776D01*
X102994437Y-107031927D01*
X102855708Y-107228460D01*
X102720169Y-107490039D01*
X102621513Y-107767629D01*
X102621512Y-107767632D01*
X102561572Y-108056085D01*
X102541468Y-108350000D01*
X100000500Y-108350000D01*
X100000500Y-105000000D01*
X107305361Y-105000000D01*
X107325871Y-105221351D01*
X107386707Y-105435163D01*
X107386712Y-105435176D01*
X107485795Y-105634161D01*
X107619762Y-105811562D01*
X107761088Y-105940397D01*
X107784043Y-105961323D01*
X107973046Y-106078349D01*
X107973047Y-106078349D01*
X107973048Y-106078350D01*
X108042142Y-106105117D01*
X108180335Y-106158653D01*
X108398850Y-106199500D01*
X108398853Y-106199500D01*
X108621147Y-106199500D01*
X108621150Y-106199500D01*
X108839665Y-106158653D01*
X109046954Y-106078349D01*
X109235957Y-105961323D01*
X109400239Y-105811560D01*
X109534205Y-105634161D01*
X109633292Y-105435166D01*
X109635993Y-105425672D01*
X109673266Y-105366580D01*
X109736574Y-105337019D01*
X109805814Y-105346377D01*
X109859003Y-105391683D01*
X109874524Y-105425663D01*
X109877176Y-105434983D01*
X109877180Y-105434994D01*
X109976224Y-105633900D01*
X109991851Y-105654594D01*
X110560214Y-105086232D01*
X110561257Y-105100140D01*
X110610266Y-105225013D01*
X110693905Y-105329892D01*
X110804741Y-105405459D01*
X110914298Y-105439253D01*
X110347397Y-106006153D01*
X110463268Y-106077898D01*
X110463270Y-106077899D01*
X110670473Y-106158169D01*
X110888899Y-106199000D01*
X111111101Y-106199000D01*
X111329525Y-106158169D01*
X111329535Y-106158166D01*
X111536729Y-106077899D01*
X111536731Y-106077898D01*
X111652601Y-106006153D01*
X111083837Y-105437389D01*
X111132647Y-105430033D01*
X111253509Y-105371829D01*
X111351844Y-105280587D01*
X111418917Y-105164413D01*
X111437323Y-105083770D01*
X112008147Y-105654594D01*
X112023776Y-105633898D01*
X112023783Y-105633886D01*
X112122817Y-105434999D01*
X112122825Y-105434979D01*
X112183633Y-105221261D01*
X112183634Y-105221259D01*
X112204137Y-105000000D01*
X112204137Y-104999999D01*
X112183634Y-104778740D01*
X112183633Y-104778738D01*
X112122825Y-104565020D01*
X112122819Y-104565005D01*
X112023781Y-104366110D01*
X112023776Y-104366103D01*
X112008146Y-104345404D01*
X111439785Y-104913766D01*
X111438743Y-104899860D01*
X111389734Y-104774987D01*
X111306095Y-104670108D01*
X111195259Y-104594541D01*
X111085701Y-104560746D01*
X111652601Y-103993845D01*
X111652600Y-103993844D01*
X111536733Y-103922102D01*
X111536727Y-103922099D01*
X111329526Y-103841830D01*
X111111101Y-103801000D01*
X110888899Y-103801000D01*
X110670474Y-103841830D01*
X110670473Y-103841830D01*
X110463272Y-103922099D01*
X110463266Y-103922103D01*
X110347398Y-103993844D01*
X110347397Y-103993845D01*
X110916163Y-104562610D01*
X110867353Y-104569967D01*
X110746491Y-104628171D01*
X110648156Y-104719413D01*
X110581083Y-104835587D01*
X110562676Y-104916228D01*
X109991852Y-104345404D01*
X109976223Y-104366101D01*
X109877180Y-104565005D01*
X109877174Y-104565022D01*
X109874523Y-104574338D01*
X109837240Y-104633429D01*
X109773928Y-104662983D01*
X109704689Y-104653616D01*
X109651506Y-104608302D01*
X109635994Y-104574333D01*
X109633292Y-104564834D01*
X109628395Y-104555000D01*
X109584997Y-104467845D01*
X109534205Y-104365839D01*
X109400239Y-104188440D01*
X109400237Y-104188437D01*
X109235958Y-104038678D01*
X109235957Y-104038677D01*
X109046954Y-103921651D01*
X109046952Y-103921650D01*
X109046951Y-103921649D01*
X108839668Y-103841348D01*
X108839667Y-103841347D01*
X108839665Y-103841347D01*
X108621150Y-103800500D01*
X108398850Y-103800500D01*
X108180335Y-103841347D01*
X108180333Y-103841347D01*
X108180331Y-103841348D01*
X107973048Y-103921649D01*
X107973047Y-103921650D01*
X107784041Y-104038678D01*
X107619762Y-104188437D01*
X107485795Y-104365838D01*
X107386712Y-104564823D01*
X107386707Y-104564836D01*
X107325871Y-104778648D01*
X107305361Y-104999999D01*
X107305361Y-105000000D01*
X100000500Y-105000000D01*
X100000500Y-100124500D01*
X100020185Y-100057461D01*
X100072989Y-100011706D01*
X100124500Y-100000500D01*
X103762386Y-100000500D01*
X103829425Y-100020185D01*
G37*
%TD.AperFunction*%
%TD*%
M02*
