%TF.GenerationSoftware,KiCad,Pcbnew,7.0.9-1.fc39*%
%TF.CreationDate,2023-12-29T10:11:49-08:00*%
%TF.ProjectId,M0116,4d303131-362e-46b6-9963-61645f706362,rev?*%
%TF.SameCoordinates,Original*%
%TF.FileFunction,Drillmap*%
%TF.FilePolarity,Positive*%
%FSLAX45Y45*%
G04 Gerber Fmt 4.5, Leading zero omitted, Abs format (unit mm)*
G04 Created by KiCad (PCBNEW 7.0.9-1.fc39) date 2023-12-29 10:11:49*
%MOMM*%
%LPD*%
G01*
G04 APERTURE LIST*
%ADD10C,0.100000*%
%ADD11C,0.200000*%
G04 APERTURE END LIST*
D10*
X10000000Y-11700000D02*
X13800000Y-11700000D01*
X13800000Y-11700000D02*
X13800000Y-10200000D01*
X11400000Y-10000000D02*
X10000000Y-10000000D01*
X10000000Y-10000000D02*
X10000000Y-11700000D01*
X13800000Y-10200000D02*
X11400000Y-10200000D01*
X11400000Y-10200000D02*
X11400000Y-10000000D01*
D11*
X10255777Y-12016484D02*
X10255777Y-11816484D01*
X10255777Y-11816484D02*
X10303396Y-11816484D01*
X10303396Y-11816484D02*
X10331967Y-11826008D01*
X10331967Y-11826008D02*
X10351015Y-11845055D01*
X10351015Y-11845055D02*
X10360539Y-11864103D01*
X10360539Y-11864103D02*
X10370063Y-11902198D01*
X10370063Y-11902198D02*
X10370063Y-11930769D01*
X10370063Y-11930769D02*
X10360539Y-11968865D01*
X10360539Y-11968865D02*
X10351015Y-11987912D01*
X10351015Y-11987912D02*
X10331967Y-12006960D01*
X10331967Y-12006960D02*
X10303396Y-12016484D01*
X10303396Y-12016484D02*
X10255777Y-12016484D01*
X10455777Y-12016484D02*
X10455777Y-11883150D01*
X10455777Y-11921246D02*
X10465301Y-11902198D01*
X10465301Y-11902198D02*
X10474824Y-11892674D01*
X10474824Y-11892674D02*
X10493872Y-11883150D01*
X10493872Y-11883150D02*
X10512920Y-11883150D01*
X10579586Y-12016484D02*
X10579586Y-11883150D01*
X10579586Y-11816484D02*
X10570063Y-11826008D01*
X10570063Y-11826008D02*
X10579586Y-11835531D01*
X10579586Y-11835531D02*
X10589110Y-11826008D01*
X10589110Y-11826008D02*
X10579586Y-11816484D01*
X10579586Y-11816484D02*
X10579586Y-11835531D01*
X10703396Y-12016484D02*
X10684348Y-12006960D01*
X10684348Y-12006960D02*
X10674824Y-11987912D01*
X10674824Y-11987912D02*
X10674824Y-11816484D01*
X10808158Y-12016484D02*
X10789110Y-12006960D01*
X10789110Y-12006960D02*
X10779586Y-11987912D01*
X10779586Y-11987912D02*
X10779586Y-11816484D01*
X11036729Y-12016484D02*
X11036729Y-11816484D01*
X11036729Y-11816484D02*
X11103396Y-11959341D01*
X11103396Y-11959341D02*
X11170063Y-11816484D01*
X11170063Y-11816484D02*
X11170063Y-12016484D01*
X11351015Y-12016484D02*
X11351015Y-11911722D01*
X11351015Y-11911722D02*
X11341491Y-11892674D01*
X11341491Y-11892674D02*
X11322443Y-11883150D01*
X11322443Y-11883150D02*
X11284348Y-11883150D01*
X11284348Y-11883150D02*
X11265301Y-11892674D01*
X11351015Y-12006960D02*
X11331967Y-12016484D01*
X11331967Y-12016484D02*
X11284348Y-12016484D01*
X11284348Y-12016484D02*
X11265301Y-12006960D01*
X11265301Y-12006960D02*
X11255777Y-11987912D01*
X11255777Y-11987912D02*
X11255777Y-11968865D01*
X11255777Y-11968865D02*
X11265301Y-11949817D01*
X11265301Y-11949817D02*
X11284348Y-11940293D01*
X11284348Y-11940293D02*
X11331967Y-11940293D01*
X11331967Y-11940293D02*
X11351015Y-11930769D01*
X11446253Y-11883150D02*
X11446253Y-12083150D01*
X11446253Y-11892674D02*
X11465301Y-11883150D01*
X11465301Y-11883150D02*
X11503396Y-11883150D01*
X11503396Y-11883150D02*
X11522443Y-11892674D01*
X11522443Y-11892674D02*
X11531967Y-11902198D01*
X11531967Y-11902198D02*
X11541491Y-11921246D01*
X11541491Y-11921246D02*
X11541491Y-11978388D01*
X11541491Y-11978388D02*
X11531967Y-11997436D01*
X11531967Y-11997436D02*
X11522443Y-12006960D01*
X11522443Y-12006960D02*
X11503396Y-12016484D01*
X11503396Y-12016484D02*
X11465301Y-12016484D01*
X11465301Y-12016484D02*
X11446253Y-12006960D01*
X11627205Y-11997436D02*
X11636729Y-12006960D01*
X11636729Y-12006960D02*
X11627205Y-12016484D01*
X11627205Y-12016484D02*
X11617682Y-12006960D01*
X11617682Y-12006960D02*
X11627205Y-11997436D01*
X11627205Y-11997436D02*
X11627205Y-12016484D01*
X11627205Y-11892674D02*
X11636729Y-11902198D01*
X11636729Y-11902198D02*
X11627205Y-11911722D01*
X11627205Y-11911722D02*
X11617682Y-11902198D01*
X11617682Y-11902198D02*
X11627205Y-11892674D01*
X11627205Y-11892674D02*
X11627205Y-11911722D01*
M02*
