%TF.GenerationSoftware,KiCad,Pcbnew,7.0.7-2.fc38*%
%TF.CreationDate,2023-10-09T11:55:23-07:00*%
%TF.ProjectId,M0116,4d303131-362e-46b6-9963-61645f706362,rev?*%
%TF.SameCoordinates,Original*%
%TF.FileFunction,Copper,L1,Top*%
%TF.FilePolarity,Positive*%
%FSLAX46Y46*%
G04 Gerber Fmt 4.6, Leading zero omitted, Abs format (unit mm)*
G04 Created by KiCad (PCBNEW 7.0.7-2.fc38) date 2023-10-09 11:55:23*
%MOMM*%
%LPD*%
G01*
G04 APERTURE LIST*
%TA.AperFunction,ComponentPad*%
%ADD10R,1.350000X1.350000*%
%TD*%
%TA.AperFunction,ComponentPad*%
%ADD11O,1.350000X1.350000*%
%TD*%
%TA.AperFunction,ComponentPad*%
%ADD12R,1.398000X1.398000*%
%TD*%
%TA.AperFunction,ComponentPad*%
%ADD13C,1.398000*%
%TD*%
%TA.AperFunction,ComponentPad*%
%ADD14C,3.306000*%
%TD*%
%TA.AperFunction,Conductor*%
%ADD15C,0.300000*%
%TD*%
%TA.AperFunction,Conductor*%
%ADD16C,0.500000*%
%TD*%
G04 APERTURE END LIST*
D10*
%TO.P,J2,1,Pin_1*%
%TO.N,GND*%
X133000000Y-112000000D03*
D11*
%TO.P,J2,2,Pin_2*%
%TO.N,JST-D-*%
X133000000Y-110000000D03*
%TO.P,J2,3,Pin_3*%
%TO.N,JST-D+*%
X133000000Y-108000000D03*
%TO.P,J2,4,Pin_4*%
%TO.N,VBUS*%
X133000000Y-106000000D03*
%TD*%
D12*
%TO.P,ADB-FEM1,1,1*%
%TO.N,JST-D+*%
X108510000Y-111700000D03*
D13*
%TO.P,ADB-FEM1,2,2*%
%TO.N,VBUS*%
X108510000Y-105000000D03*
%TO.P,ADB-FEM1,3,3*%
%TO.N,JST-D-*%
X111000000Y-111700000D03*
%TO.P,ADB-FEM1,4,4*%
%TO.N,GND*%
X111000000Y-105000000D03*
D14*
%TO.P,ADB-FEM1,5,SH*%
X104700000Y-108350000D03*
%TO.P,ADB-FEM1,6,SH*%
X105510000Y-101590000D03*
%TO.P,ADB-FEM1,7,SH*%
X105510000Y-115110000D03*
%TD*%
D15*
%TO.N,JST-D+*%
X114826295Y-108000000D02*
X133000000Y-108000000D01*
X110360000Y-109850000D02*
X108510000Y-111700000D01*
X114826295Y-107999998D02*
G75*
G03*
X110360000Y-109850000I5J-6316302D01*
G01*
%TO.N,JST-D-*%
X111850000Y-110850000D02*
X111000000Y-111700000D01*
X113902081Y-110000000D02*
X133000000Y-110000000D01*
X113902081Y-109999993D02*
G75*
G03*
X111850000Y-110850000I19J-2902107D01*
G01*
D16*
%TO.N,VBUS*%
X132662500Y-106337500D02*
X133000000Y-106000000D01*
X109347500Y-105837500D02*
X108510000Y-105000000D01*
X111369403Y-106675000D02*
X131847702Y-106675000D01*
X131847702Y-106675001D02*
G75*
G03*
X132662500Y-106337500I-2J1152301D01*
G01*
X109347499Y-105837501D02*
G75*
G03*
X111369403Y-106675000I2021901J2021901D01*
G01*
%TD*%
%TA.AperFunction,Conductor*%
%TO.N,JST-D-*%
G36*
X132746180Y-109387185D02*
G01*
X132746250Y-109387350D01*
X132999132Y-109995508D01*
X132999144Y-110004461D01*
X132999134Y-110004487D01*
X132999132Y-110004492D01*
X132746250Y-110612649D01*
X132739910Y-110618973D01*
X132730955Y-110618960D01*
X132730790Y-110618890D01*
X131657042Y-110153055D01*
X131650817Y-110146619D01*
X131650000Y-110142327D01*
X131650000Y-109857674D01*
X131653426Y-109849404D01*
X131657038Y-109846946D01*
X132730791Y-109381108D01*
X132739744Y-109380960D01*
X132746180Y-109387185D01*
G37*
%TD.AperFunction*%
%TD*%
%TA.AperFunction,Conductor*%
%TO.N,JST-D+*%
G36*
X109602840Y-110406306D02*
G01*
X109803693Y-110607159D01*
X109807120Y-110615432D01*
X109806145Y-110620109D01*
X109213584Y-111979019D01*
X109207136Y-111985232D01*
X109198395Y-111985157D01*
X108513788Y-111702562D01*
X108507448Y-111696238D01*
X108507437Y-111696211D01*
X108224842Y-111011603D01*
X108224853Y-111002648D01*
X108230978Y-110996415D01*
X109589892Y-110403853D01*
X109598844Y-110403689D01*
X109602840Y-110406306D01*
G37*
%TD.AperFunction*%
%TD*%
%TA.AperFunction,Conductor*%
%TO.N,JST-D-*%
G36*
X111884300Y-110608362D02*
G01*
X111887874Y-110610804D01*
X112089195Y-110812125D01*
X112092622Y-110820398D01*
X112091821Y-110824652D01*
X111650128Y-111956385D01*
X111643928Y-111962846D01*
X111634975Y-111963030D01*
X111634766Y-111962946D01*
X111003789Y-111702562D01*
X110997449Y-111696239D01*
X110997437Y-111696210D01*
X110737053Y-111065231D01*
X110737065Y-111056278D01*
X110743405Y-111049955D01*
X110743529Y-111049904D01*
X111875348Y-110608178D01*
X111884300Y-110608362D01*
G37*
%TD.AperFunction*%
%TD*%
%TA.AperFunction,Conductor*%
%TO.N,VBUS*%
G36*
X109154533Y-104736730D02*
G01*
X109160583Y-104742458D01*
X109671711Y-105804279D01*
X109672212Y-105813220D01*
X109669442Y-105817627D01*
X109327627Y-106159442D01*
X109319354Y-106162869D01*
X109314279Y-106161711D01*
X108252458Y-105650583D01*
X108246490Y-105643907D01*
X108246717Y-105635580D01*
X108507438Y-105003787D01*
X108513758Y-104997450D01*
X109145580Y-104736718D01*
X109154533Y-104736730D01*
G37*
%TD.AperFunction*%
%TD*%
%TA.AperFunction,Conductor*%
%TO.N,JST-D+*%
G36*
X132746180Y-107387185D02*
G01*
X132746250Y-107387350D01*
X132999132Y-107995508D01*
X132999144Y-108004461D01*
X132999134Y-108004487D01*
X132999132Y-108004492D01*
X132746250Y-108612649D01*
X132739910Y-108618973D01*
X132730955Y-108618960D01*
X132730790Y-108618890D01*
X131657042Y-108153055D01*
X131650817Y-108146619D01*
X131650000Y-108142327D01*
X131650000Y-107857674D01*
X131653426Y-107849404D01*
X131657038Y-107846946D01*
X132730791Y-107381108D01*
X132739744Y-107380960D01*
X132746180Y-107387185D01*
G37*
%TD.AperFunction*%
%TD*%
%TA.AperFunction,Conductor*%
%TO.N,VBUS*%
G36*
X132385337Y-105745392D02*
G01*
X132996508Y-105998142D01*
X133002844Y-106004470D01*
X133002853Y-106004491D01*
X133253026Y-106610810D01*
X133253013Y-106619765D01*
X133246673Y-106626089D01*
X133244798Y-106626683D01*
X131943882Y-106921759D01*
X131935056Y-106920247D01*
X131929884Y-106912937D01*
X131929594Y-106910349D01*
X131929594Y-106428486D01*
X131931501Y-106422083D01*
X132371077Y-105749800D01*
X132378471Y-105744753D01*
X132385337Y-105745392D01*
G37*
%TD.AperFunction*%
%TD*%
M02*
