%TF.GenerationSoftware,KiCad,Pcbnew,7.0.7-2.fc38*%
%TF.CreationDate,2023-10-09T11:55:23-07:00*%
%TF.ProjectId,M0116,4d303131-362e-46b6-9963-61645f706362,rev?*%
%TF.SameCoordinates,Original*%
%TF.FileFunction,Copper,L2,Bot*%
%TF.FilePolarity,Positive*%
%FSLAX46Y46*%
G04 Gerber Fmt 4.6, Leading zero omitted, Abs format (unit mm)*
G04 Created by KiCad (PCBNEW 7.0.7-2.fc38) date 2023-10-09 11:55:23*
%MOMM*%
%LPD*%
G01*
G04 APERTURE LIST*
%TA.AperFunction,ComponentPad*%
%ADD10R,1.350000X1.350000*%
%TD*%
%TA.AperFunction,ComponentPad*%
%ADD11O,1.350000X1.350000*%
%TD*%
%TA.AperFunction,ComponentPad*%
%ADD12R,1.398000X1.398000*%
%TD*%
%TA.AperFunction,ComponentPad*%
%ADD13C,1.398000*%
%TD*%
%TA.AperFunction,ComponentPad*%
%ADD14C,3.306000*%
%TD*%
G04 APERTURE END LIST*
D10*
%TO.P,J2,1,Pin_1*%
%TO.N,GND*%
X133000000Y-112000000D03*
D11*
%TO.P,J2,2,Pin_2*%
%TO.N,JST-D-*%
X133000000Y-110000000D03*
%TO.P,J2,3,Pin_3*%
%TO.N,JST-D+*%
X133000000Y-108000000D03*
%TO.P,J2,4,Pin_4*%
%TO.N,VBUS*%
X133000000Y-106000000D03*
%TD*%
D12*
%TO.P,ADB-FEM1,1,1*%
%TO.N,JST-D+*%
X108510000Y-111700000D03*
D13*
%TO.P,ADB-FEM1,2,2*%
%TO.N,VBUS*%
X108510000Y-105000000D03*
%TO.P,ADB-FEM1,3,3*%
%TO.N,JST-D-*%
X111000000Y-111700000D03*
%TO.P,ADB-FEM1,4,4*%
%TO.N,GND*%
X111000000Y-105000000D03*
D14*
%TO.P,ADB-FEM1,5,SH*%
X104700000Y-108350000D03*
%TO.P,ADB-FEM1,6,SH*%
X105510000Y-101590000D03*
%TO.P,ADB-FEM1,7,SH*%
X105510000Y-115110000D03*
%TD*%
%TA.AperFunction,Conductor*%
%TO.N,GND*%
G36*
X103830110Y-100020185D02*
G01*
X103875865Y-100072989D01*
X103885809Y-100142147D01*
X103856784Y-100205703D01*
X103853695Y-100209136D01*
X103835995Y-100228087D01*
X103835995Y-100228088D01*
X103666136Y-100468721D01*
X103530629Y-100730239D01*
X103431996Y-101007764D01*
X103431991Y-101007781D01*
X103372069Y-101296145D01*
X103372068Y-101296147D01*
X103351969Y-101590000D01*
X103372068Y-101883852D01*
X103372069Y-101883854D01*
X103431991Y-102172218D01*
X103431996Y-102172235D01*
X103530629Y-102449760D01*
X103666136Y-102711278D01*
X103818838Y-102927606D01*
X104439065Y-102307380D01*
X104500388Y-102273895D01*
X104570080Y-102278879D01*
X104618382Y-102311522D01*
X104735314Y-102439790D01*
X104769101Y-102465305D01*
X104780243Y-102473719D01*
X104821879Y-102529828D01*
X104826570Y-102599540D01*
X104793197Y-102660354D01*
X104174524Y-103279027D01*
X104174524Y-103279028D01*
X104265499Y-103353041D01*
X104265503Y-103353044D01*
X104517172Y-103506088D01*
X104787314Y-103623426D01*
X105070930Y-103702892D01*
X105070936Y-103702893D01*
X105362730Y-103743000D01*
X105657270Y-103743000D01*
X105949063Y-103702893D01*
X105949069Y-103702892D01*
X106232685Y-103623426D01*
X106502827Y-103506088D01*
X106754493Y-103353046D01*
X106845474Y-103279027D01*
X106226801Y-102660354D01*
X106193316Y-102599031D01*
X106198300Y-102529339D01*
X106239753Y-102473721D01*
X106284686Y-102439790D01*
X106401616Y-102311523D01*
X106461327Y-102275242D01*
X106531174Y-102277003D01*
X106580934Y-102307381D01*
X107201160Y-102927606D01*
X107201161Y-102927606D01*
X107353863Y-102711278D01*
X107489370Y-102449760D01*
X107588003Y-102172235D01*
X107588008Y-102172218D01*
X107647930Y-101883854D01*
X107647931Y-101883852D01*
X107668030Y-101590000D01*
X107647931Y-101296147D01*
X107647930Y-101296145D01*
X107588008Y-101007781D01*
X107588003Y-101007764D01*
X107489370Y-100730239D01*
X107353863Y-100468721D01*
X107184004Y-100228088D01*
X107184004Y-100228087D01*
X107166305Y-100209136D01*
X107134933Y-100146706D01*
X107142295Y-100077225D01*
X107186051Y-100022753D01*
X107252311Y-100000586D01*
X107256929Y-100000500D01*
X113875500Y-100000500D01*
X113942539Y-100020185D01*
X113988294Y-100072989D01*
X113999500Y-100124500D01*
X113999500Y-101975467D01*
X113999416Y-101975889D01*
X113999459Y-102000001D01*
X113999500Y-102000099D01*
X113999616Y-102000382D01*
X113999618Y-102000384D01*
X113999808Y-102000462D01*
X114000000Y-102000541D01*
X114000002Y-102000539D01*
X114024616Y-102000524D01*
X114024616Y-102000528D01*
X114024760Y-102000500D01*
X137875500Y-102000500D01*
X137942539Y-102020185D01*
X137988294Y-102072989D01*
X137999500Y-102124500D01*
X137999500Y-116875500D01*
X137979815Y-116942539D01*
X137927011Y-116988294D01*
X137875500Y-116999500D01*
X106947963Y-116999500D01*
X106880924Y-116979815D01*
X106835169Y-116927011D01*
X106825225Y-116857853D01*
X106844637Y-116815344D01*
X106845474Y-116799027D01*
X106226801Y-116180354D01*
X106193316Y-116119031D01*
X106198300Y-116049339D01*
X106239753Y-115993721D01*
X106284686Y-115959790D01*
X106401616Y-115831523D01*
X106461327Y-115795242D01*
X106531174Y-115797003D01*
X106580934Y-115827381D01*
X107201160Y-116447606D01*
X107201161Y-116447606D01*
X107353863Y-116231278D01*
X107489370Y-115969760D01*
X107588003Y-115692235D01*
X107588008Y-115692218D01*
X107647930Y-115403854D01*
X107647931Y-115403852D01*
X107668030Y-115110000D01*
X107647931Y-114816147D01*
X107647930Y-114816145D01*
X107588008Y-114527781D01*
X107588003Y-114527764D01*
X107489370Y-114250239D01*
X107353863Y-113988721D01*
X107201160Y-113772392D01*
X106580933Y-114392618D01*
X106519610Y-114426103D01*
X106449918Y-114421119D01*
X106401615Y-114388475D01*
X106284687Y-114260210D01*
X106239754Y-114226278D01*
X106198119Y-114170169D01*
X106193428Y-114100457D01*
X106226801Y-114039644D01*
X106845474Y-113420971D01*
X106754493Y-113346953D01*
X106502827Y-113193911D01*
X106232685Y-113076573D01*
X105949069Y-112997107D01*
X105949063Y-112997106D01*
X105657270Y-112957000D01*
X105362730Y-112957000D01*
X105070936Y-112997106D01*
X105070930Y-112997107D01*
X104787314Y-113076573D01*
X104517172Y-113193911D01*
X104265506Y-113346953D01*
X104265505Y-113346954D01*
X104174525Y-113420971D01*
X104793198Y-114039645D01*
X104826683Y-114100968D01*
X104821699Y-114170660D01*
X104780244Y-114226280D01*
X104735314Y-114260209D01*
X104618383Y-114388476D01*
X104558671Y-114424757D01*
X104488824Y-114422996D01*
X104439065Y-114392618D01*
X103818838Y-113772391D01*
X103818837Y-113772391D01*
X103666140Y-113988714D01*
X103666136Y-113988720D01*
X103530629Y-114250239D01*
X103431996Y-114527764D01*
X103431991Y-114527781D01*
X103372069Y-114816145D01*
X103372068Y-114816147D01*
X103351969Y-115110000D01*
X103372068Y-115403852D01*
X103372069Y-115403854D01*
X103431991Y-115692218D01*
X103431996Y-115692235D01*
X103530629Y-115969760D01*
X103666136Y-116231278D01*
X103818838Y-116447606D01*
X104439065Y-115827380D01*
X104500388Y-115793895D01*
X104570080Y-115798879D01*
X104618382Y-115831522D01*
X104735314Y-115959790D01*
X104769101Y-115985305D01*
X104780243Y-115993719D01*
X104821879Y-116049828D01*
X104826570Y-116119540D01*
X104793197Y-116180354D01*
X104174524Y-116799027D01*
X104175385Y-116815817D01*
X104189870Y-116836888D01*
X104192039Y-116906724D01*
X104156108Y-116966647D01*
X104093484Y-116997631D01*
X104072035Y-116999500D01*
X100124500Y-116999500D01*
X100057461Y-116979815D01*
X100011706Y-116927011D01*
X100000500Y-116875500D01*
X100000500Y-112446870D01*
X107310500Y-112446870D01*
X107310501Y-112446876D01*
X107316908Y-112506483D01*
X107367202Y-112641328D01*
X107367206Y-112641335D01*
X107453452Y-112756544D01*
X107453455Y-112756547D01*
X107568664Y-112842793D01*
X107568671Y-112842797D01*
X107703517Y-112893091D01*
X107703516Y-112893091D01*
X107710444Y-112893835D01*
X107763127Y-112899500D01*
X109256872Y-112899499D01*
X109316483Y-112893091D01*
X109451331Y-112842796D01*
X109566546Y-112756546D01*
X109652796Y-112641331D01*
X109703091Y-112506483D01*
X109709500Y-112446873D01*
X109709499Y-112326580D01*
X109729183Y-112259544D01*
X109781987Y-112213789D01*
X109851145Y-112203845D01*
X109914701Y-112232869D01*
X109944499Y-112271311D01*
X109975795Y-112334161D01*
X110109762Y-112511562D01*
X110251088Y-112640397D01*
X110274043Y-112661323D01*
X110463046Y-112778349D01*
X110463047Y-112778349D01*
X110463048Y-112778350D01*
X110532142Y-112805116D01*
X110670335Y-112858653D01*
X110888850Y-112899500D01*
X110888853Y-112899500D01*
X111111147Y-112899500D01*
X111111150Y-112899500D01*
X111329665Y-112858653D01*
X111536954Y-112778349D01*
X111725957Y-112661323D01*
X111890239Y-112511560D01*
X112024205Y-112334161D01*
X112123292Y-112135166D01*
X112184128Y-111921352D01*
X112204639Y-111700000D01*
X112184128Y-111478648D01*
X112123292Y-111264834D01*
X112099782Y-111217620D01*
X112051726Y-111121110D01*
X112024205Y-111065839D01*
X111930752Y-110942088D01*
X111890237Y-110888437D01*
X111725958Y-110738678D01*
X111725957Y-110738677D01*
X111536954Y-110621651D01*
X111536952Y-110621650D01*
X111536951Y-110621649D01*
X111329668Y-110541348D01*
X111329667Y-110541347D01*
X111329665Y-110541347D01*
X111111150Y-110500500D01*
X110888850Y-110500500D01*
X110670335Y-110541347D01*
X110670333Y-110541347D01*
X110670331Y-110541348D01*
X110463048Y-110621649D01*
X110463047Y-110621650D01*
X110274041Y-110738678D01*
X110109762Y-110888437D01*
X109975795Y-111065838D01*
X109944499Y-111128689D01*
X109896996Y-111179926D01*
X109829333Y-111197347D01*
X109762992Y-111175421D01*
X109719038Y-111121110D01*
X109709499Y-111073417D01*
X109709499Y-110953129D01*
X109709498Y-110953123D01*
X109709497Y-110953116D01*
X109703091Y-110893517D01*
X109701197Y-110888440D01*
X109652797Y-110758671D01*
X109652793Y-110758664D01*
X109566547Y-110643455D01*
X109566544Y-110643452D01*
X109451335Y-110557206D01*
X109451328Y-110557202D01*
X109316482Y-110506908D01*
X109316483Y-110506908D01*
X109256883Y-110500501D01*
X109256881Y-110500500D01*
X109256873Y-110500500D01*
X109256864Y-110500500D01*
X107763129Y-110500500D01*
X107763123Y-110500501D01*
X107703516Y-110506908D01*
X107568671Y-110557202D01*
X107568664Y-110557206D01*
X107453455Y-110643452D01*
X107453452Y-110643455D01*
X107367206Y-110758664D01*
X107367202Y-110758671D01*
X107316908Y-110893517D01*
X107315810Y-110903735D01*
X107310501Y-110953123D01*
X107310500Y-110953135D01*
X107310500Y-112446870D01*
X100000500Y-112446870D01*
X100000500Y-108350000D01*
X102541969Y-108350000D01*
X102562068Y-108643852D01*
X102562069Y-108643854D01*
X102621991Y-108932218D01*
X102621996Y-108932235D01*
X102720629Y-109209760D01*
X102856136Y-109471278D01*
X103008838Y-109687606D01*
X103629065Y-109067380D01*
X103690388Y-109033895D01*
X103760080Y-109038879D01*
X103808382Y-109071522D01*
X103925314Y-109199790D01*
X103959101Y-109225305D01*
X103970243Y-109233719D01*
X104011879Y-109289828D01*
X104016570Y-109359540D01*
X103983197Y-109420354D01*
X103364524Y-110039027D01*
X103364524Y-110039028D01*
X103455499Y-110113041D01*
X103455503Y-110113044D01*
X103707172Y-110266088D01*
X103977314Y-110383426D01*
X104260930Y-110462892D01*
X104260936Y-110462893D01*
X104552730Y-110503000D01*
X104847270Y-110503000D01*
X105139063Y-110462893D01*
X105139069Y-110462892D01*
X105422685Y-110383426D01*
X105692827Y-110266088D01*
X105944493Y-110113046D01*
X106035474Y-110039027D01*
X105996447Y-110000000D01*
X131819464Y-110000000D01*
X131839564Y-110216918D01*
X131899184Y-110426462D01*
X131937296Y-110503000D01*
X131996288Y-110621472D01*
X132012886Y-110643452D01*
X132078049Y-110729741D01*
X132102741Y-110795102D01*
X132088176Y-110863437D01*
X132053406Y-110903735D01*
X131967809Y-110967813D01*
X131881649Y-111082906D01*
X131881645Y-111082913D01*
X131831403Y-111217620D01*
X131831401Y-111217627D01*
X131825000Y-111277155D01*
X131825000Y-111277172D01*
X131824999Y-111749999D01*
X131825000Y-111750000D01*
X132489424Y-111750000D01*
X132556463Y-111769685D01*
X132602218Y-111822489D01*
X132612162Y-111891647D01*
X132611897Y-111893397D01*
X132595014Y-111999996D01*
X132595014Y-112000003D01*
X132611897Y-112106603D01*
X132602942Y-112175896D01*
X132557946Y-112229348D01*
X132491194Y-112249987D01*
X132489424Y-112250000D01*
X131825000Y-112250000D01*
X131825000Y-112722844D01*
X131831401Y-112782372D01*
X131831403Y-112782379D01*
X131881645Y-112917086D01*
X131881649Y-112917093D01*
X131967809Y-113032187D01*
X131967812Y-113032190D01*
X132082906Y-113118350D01*
X132082913Y-113118354D01*
X132217620Y-113168596D01*
X132217627Y-113168598D01*
X132277155Y-113174999D01*
X132277172Y-113175000D01*
X132750000Y-113175000D01*
X132750000Y-112510575D01*
X132769685Y-112443536D01*
X132822489Y-112397781D01*
X132891647Y-112387837D01*
X132893331Y-112388091D01*
X132925699Y-112393218D01*
X132968515Y-112400000D01*
X132968519Y-112400000D01*
X133031485Y-112400000D01*
X133074300Y-112393218D01*
X133106602Y-112388102D01*
X133175894Y-112397056D01*
X133229347Y-112442052D01*
X133249987Y-112508803D01*
X133250000Y-112510575D01*
X133250000Y-113175000D01*
X133722828Y-113175000D01*
X133722844Y-113174999D01*
X133782372Y-113168598D01*
X133782379Y-113168596D01*
X133917086Y-113118354D01*
X133917093Y-113118350D01*
X134032187Y-113032190D01*
X134032190Y-113032187D01*
X134118350Y-112917093D01*
X134118354Y-112917086D01*
X134168596Y-112782379D01*
X134168598Y-112782372D01*
X134174999Y-112722844D01*
X134175000Y-112722827D01*
X134175000Y-112250000D01*
X133510576Y-112250000D01*
X133443537Y-112230315D01*
X133397782Y-112177511D01*
X133387838Y-112108353D01*
X133388103Y-112106603D01*
X133404986Y-112000003D01*
X133404986Y-111999996D01*
X133388103Y-111893397D01*
X133397058Y-111824104D01*
X133442054Y-111770652D01*
X133508806Y-111750013D01*
X133510576Y-111750000D01*
X134175000Y-111750000D01*
X134175000Y-111277172D01*
X134174999Y-111277155D01*
X134168598Y-111217627D01*
X134168596Y-111217620D01*
X134118354Y-111082913D01*
X134118350Y-111082906D01*
X134032190Y-110967812D01*
X133946593Y-110903733D01*
X133904723Y-110847799D01*
X133899739Y-110778107D01*
X133921951Y-110729741D01*
X134003712Y-110621472D01*
X134100817Y-110426459D01*
X134160435Y-110216923D01*
X134180536Y-110000000D01*
X134160435Y-109783077D01*
X134100817Y-109573541D01*
X134003712Y-109378528D01*
X133872427Y-109204678D01*
X133748423Y-109091634D01*
X133712145Y-109031927D01*
X133713905Y-108962079D01*
X133748423Y-108908365D01*
X133872427Y-108795322D01*
X134003712Y-108621472D01*
X134100817Y-108426459D01*
X134160435Y-108216923D01*
X134180536Y-108000000D01*
X134160435Y-107783077D01*
X134100817Y-107573541D01*
X134003712Y-107378528D01*
X133872427Y-107204678D01*
X133748423Y-107091634D01*
X133712145Y-107031927D01*
X133713905Y-106962079D01*
X133748423Y-106908365D01*
X133872427Y-106795322D01*
X134003712Y-106621472D01*
X134100817Y-106426459D01*
X134160435Y-106216923D01*
X134180536Y-106000000D01*
X134160435Y-105783077D01*
X134100817Y-105573541D01*
X134003712Y-105378528D01*
X133872427Y-105204678D01*
X133855856Y-105189572D01*
X133711433Y-105057913D01*
X133711423Y-105057906D01*
X133526213Y-104943229D01*
X133526207Y-104943226D01*
X133414265Y-104899860D01*
X133323069Y-104864530D01*
X133108926Y-104824500D01*
X132891074Y-104824500D01*
X132676931Y-104864530D01*
X132628130Y-104883435D01*
X132473792Y-104943226D01*
X132473786Y-104943229D01*
X132288576Y-105057906D01*
X132288566Y-105057913D01*
X132127574Y-105204676D01*
X131996288Y-105378527D01*
X131899184Y-105573537D01*
X131839564Y-105783081D01*
X131819464Y-105999999D01*
X131819464Y-106000000D01*
X131839564Y-106216918D01*
X131899184Y-106426462D01*
X131996288Y-106621472D01*
X132127574Y-106795324D01*
X132251572Y-106908363D01*
X132287854Y-106968074D01*
X132286093Y-107037922D01*
X132251572Y-107091637D01*
X132127574Y-107204675D01*
X131996288Y-107378527D01*
X131899184Y-107573537D01*
X131839564Y-107783081D01*
X131819464Y-107999999D01*
X131819464Y-108000000D01*
X131839564Y-108216918D01*
X131899184Y-108426462D01*
X131996288Y-108621472D01*
X132127574Y-108795324D01*
X132251572Y-108908363D01*
X132287854Y-108968074D01*
X132286093Y-109037922D01*
X132251572Y-109091637D01*
X132127574Y-109204675D01*
X131996288Y-109378527D01*
X131899184Y-109573537D01*
X131839564Y-109783081D01*
X131819464Y-109999999D01*
X131819464Y-110000000D01*
X105996447Y-110000000D01*
X105416801Y-109420354D01*
X105383316Y-109359031D01*
X105388300Y-109289339D01*
X105429753Y-109233721D01*
X105474686Y-109199790D01*
X105591616Y-109071523D01*
X105651327Y-109035242D01*
X105721174Y-109037003D01*
X105770934Y-109067381D01*
X106391160Y-109687606D01*
X106391161Y-109687606D01*
X106543863Y-109471278D01*
X106679370Y-109209760D01*
X106778003Y-108932235D01*
X106778008Y-108932218D01*
X106837930Y-108643854D01*
X106837931Y-108643852D01*
X106858030Y-108350000D01*
X106837931Y-108056147D01*
X106837930Y-108056145D01*
X106778008Y-107767781D01*
X106778003Y-107767764D01*
X106679370Y-107490239D01*
X106543863Y-107228721D01*
X106391160Y-107012392D01*
X105770933Y-107632618D01*
X105709610Y-107666103D01*
X105639918Y-107661119D01*
X105591615Y-107628475D01*
X105474687Y-107500210D01*
X105429754Y-107466278D01*
X105388119Y-107410169D01*
X105383428Y-107340457D01*
X105416801Y-107279644D01*
X106035474Y-106660971D01*
X105944493Y-106586953D01*
X105692827Y-106433911D01*
X105422685Y-106316573D01*
X105139069Y-106237107D01*
X105139063Y-106237106D01*
X104847270Y-106197000D01*
X104552730Y-106197000D01*
X104260936Y-106237106D01*
X104260930Y-106237107D01*
X103977314Y-106316573D01*
X103707172Y-106433911D01*
X103455506Y-106586953D01*
X103455505Y-106586954D01*
X103364525Y-106660971D01*
X103983198Y-107279645D01*
X104016683Y-107340968D01*
X104011699Y-107410660D01*
X103970244Y-107466280D01*
X103925314Y-107500209D01*
X103808383Y-107628476D01*
X103748671Y-107664757D01*
X103678824Y-107662996D01*
X103629065Y-107632618D01*
X103008838Y-107012391D01*
X103008837Y-107012391D01*
X102856140Y-107228714D01*
X102856136Y-107228720D01*
X102720629Y-107490239D01*
X102621996Y-107767764D01*
X102621991Y-107767781D01*
X102562069Y-108056145D01*
X102562068Y-108056147D01*
X102541969Y-108350000D01*
X100000500Y-108350000D01*
X100000500Y-105000000D01*
X107305360Y-105000000D01*
X107325871Y-105221351D01*
X107386707Y-105435163D01*
X107386712Y-105435176D01*
X107485795Y-105634161D01*
X107619762Y-105811562D01*
X107761088Y-105940397D01*
X107784043Y-105961323D01*
X107973046Y-106078349D01*
X107973047Y-106078349D01*
X107973048Y-106078350D01*
X108042142Y-106105117D01*
X108180335Y-106158653D01*
X108398850Y-106199500D01*
X108398853Y-106199500D01*
X108621147Y-106199500D01*
X108621150Y-106199500D01*
X108839665Y-106158653D01*
X109046954Y-106078349D01*
X109235957Y-105961323D01*
X109400239Y-105811560D01*
X109534205Y-105634161D01*
X109633292Y-105435166D01*
X109635993Y-105425672D01*
X109673266Y-105366580D01*
X109736574Y-105337019D01*
X109805814Y-105346377D01*
X109859003Y-105391683D01*
X109874524Y-105425663D01*
X109877176Y-105434983D01*
X109877180Y-105434994D01*
X109976224Y-105633900D01*
X109991851Y-105654594D01*
X110428372Y-105218073D01*
X110489695Y-105184588D01*
X110559386Y-105189572D01*
X110612999Y-105228440D01*
X110693905Y-105329892D01*
X110765241Y-105378528D01*
X110766322Y-105379265D01*
X110810624Y-105433294D01*
X110818682Y-105502698D01*
X110787940Y-105565440D01*
X110784151Y-105569400D01*
X110347397Y-106006153D01*
X110463268Y-106077898D01*
X110463270Y-106077899D01*
X110670473Y-106158169D01*
X110888899Y-106199000D01*
X111111101Y-106199000D01*
X111329525Y-106158169D01*
X111329535Y-106158166D01*
X111536729Y-106077899D01*
X111536731Y-106077898D01*
X111652601Y-106006153D01*
X111218311Y-105571864D01*
X111184826Y-105510541D01*
X111189810Y-105440850D01*
X111231681Y-105384916D01*
X111252192Y-105372463D01*
X111253509Y-105371829D01*
X111351844Y-105280587D01*
X111374372Y-105241566D01*
X111424936Y-105193352D01*
X111493543Y-105180128D01*
X111558408Y-105206095D01*
X111569439Y-105215886D01*
X112008147Y-105654594D01*
X112023776Y-105633898D01*
X112023783Y-105633886D01*
X112122817Y-105434999D01*
X112122825Y-105434979D01*
X112183633Y-105221261D01*
X112183634Y-105221259D01*
X112204136Y-105000000D01*
X112204136Y-104999999D01*
X112183634Y-104778740D01*
X112183633Y-104778738D01*
X112122825Y-104565020D01*
X112122819Y-104565005D01*
X112023781Y-104366110D01*
X112023776Y-104366103D01*
X112008146Y-104345404D01*
X111571626Y-104781924D01*
X111510303Y-104815409D01*
X111440611Y-104810425D01*
X111386998Y-104771556D01*
X111376020Y-104757790D01*
X111306095Y-104670108D01*
X111233674Y-104620732D01*
X111189375Y-104566705D01*
X111181315Y-104497302D01*
X111212058Y-104434559D01*
X111215847Y-104430599D01*
X111652601Y-103993845D01*
X111652600Y-103993844D01*
X111536733Y-103922102D01*
X111536727Y-103922099D01*
X111329526Y-103841830D01*
X111111101Y-103801000D01*
X110888899Y-103801000D01*
X110670474Y-103841830D01*
X110670473Y-103841830D01*
X110463272Y-103922099D01*
X110463266Y-103922103D01*
X110347398Y-103993844D01*
X110347397Y-103993845D01*
X110781688Y-104428135D01*
X110815173Y-104489458D01*
X110810189Y-104559149D01*
X110768318Y-104615083D01*
X110747814Y-104627534D01*
X110746489Y-104628171D01*
X110648156Y-104719412D01*
X110625628Y-104758433D01*
X110575060Y-104806648D01*
X110506453Y-104819870D01*
X110441589Y-104793902D01*
X110430560Y-104784113D01*
X109991852Y-104345404D01*
X109976223Y-104366101D01*
X109877180Y-104565005D01*
X109877174Y-104565022D01*
X109874523Y-104574338D01*
X109837240Y-104633429D01*
X109773928Y-104662983D01*
X109704689Y-104653616D01*
X109651506Y-104608302D01*
X109635994Y-104574333D01*
X109633292Y-104564834D01*
X109630461Y-104559149D01*
X109565224Y-104428135D01*
X109534205Y-104365839D01*
X109400239Y-104188440D01*
X109400237Y-104188437D01*
X109235958Y-104038678D01*
X109235957Y-104038677D01*
X109046954Y-103921651D01*
X109046952Y-103921650D01*
X109046951Y-103921649D01*
X108839668Y-103841348D01*
X108839667Y-103841347D01*
X108839665Y-103841347D01*
X108621150Y-103800500D01*
X108398850Y-103800500D01*
X108180335Y-103841347D01*
X108180333Y-103841347D01*
X108180331Y-103841348D01*
X107973048Y-103921649D01*
X107973047Y-103921650D01*
X107784041Y-104038678D01*
X107619762Y-104188437D01*
X107485795Y-104365838D01*
X107386712Y-104564823D01*
X107386707Y-104564836D01*
X107325871Y-104778648D01*
X107305360Y-104999999D01*
X107305360Y-105000000D01*
X100000500Y-105000000D01*
X100000500Y-100124500D01*
X100020185Y-100057461D01*
X100072989Y-100011706D01*
X100124500Y-100000500D01*
X103763071Y-100000500D01*
X103830110Y-100020185D01*
G37*
%TD.AperFunction*%
%TD*%
M02*
