%TF.GenerationSoftware,KiCad,Pcbnew,7.0.7-2.fc38*%
%TF.CreationDate,2023-10-09T11:52:25-07:00*%
%TF.ProjectId,ADB-USB-adapter,4144422d-5553-4422-9d61-646170746572,rev?*%
%TF.SameCoordinates,Original*%
%TF.FileFunction,Legend,Top*%
%TF.FilePolarity,Positive*%
%FSLAX46Y46*%
G04 Gerber Fmt 4.6, Leading zero omitted, Abs format (unit mm)*
G04 Created by KiCad (PCBNEW 7.0.7-2.fc38) date 2023-10-09 11:52:25*
%MOMM*%
%LPD*%
G01*
G04 APERTURE LIST*
%ADD10C,0.150000*%
%ADD11C,0.120000*%
%ADD12C,0.127000*%
%ADD13C,0.200000*%
G04 APERTURE END LIST*
D10*
X48823819Y-31530094D02*
X49633342Y-31530094D01*
X49633342Y-31530094D02*
X49728580Y-31482475D01*
X49728580Y-31482475D02*
X49776200Y-31434856D01*
X49776200Y-31434856D02*
X49823819Y-31339618D01*
X49823819Y-31339618D02*
X49823819Y-31149142D01*
X49823819Y-31149142D02*
X49776200Y-31053904D01*
X49776200Y-31053904D02*
X49728580Y-31006285D01*
X49728580Y-31006285D02*
X49633342Y-30958666D01*
X49633342Y-30958666D02*
X48823819Y-30958666D01*
X49776200Y-30530094D02*
X49823819Y-30387237D01*
X49823819Y-30387237D02*
X49823819Y-30149142D01*
X49823819Y-30149142D02*
X49776200Y-30053904D01*
X49776200Y-30053904D02*
X49728580Y-30006285D01*
X49728580Y-30006285D02*
X49633342Y-29958666D01*
X49633342Y-29958666D02*
X49538104Y-29958666D01*
X49538104Y-29958666D02*
X49442866Y-30006285D01*
X49442866Y-30006285D02*
X49395247Y-30053904D01*
X49395247Y-30053904D02*
X49347628Y-30149142D01*
X49347628Y-30149142D02*
X49300009Y-30339618D01*
X49300009Y-30339618D02*
X49252390Y-30434856D01*
X49252390Y-30434856D02*
X49204771Y-30482475D01*
X49204771Y-30482475D02*
X49109533Y-30530094D01*
X49109533Y-30530094D02*
X49014295Y-30530094D01*
X49014295Y-30530094D02*
X48919057Y-30482475D01*
X48919057Y-30482475D02*
X48871438Y-30434856D01*
X48871438Y-30434856D02*
X48823819Y-30339618D01*
X48823819Y-30339618D02*
X48823819Y-30101523D01*
X48823819Y-30101523D02*
X48871438Y-29958666D01*
X49300009Y-29196761D02*
X49347628Y-29053904D01*
X49347628Y-29053904D02*
X49395247Y-29006285D01*
X49395247Y-29006285D02*
X49490485Y-28958666D01*
X49490485Y-28958666D02*
X49633342Y-28958666D01*
X49633342Y-28958666D02*
X49728580Y-29006285D01*
X49728580Y-29006285D02*
X49776200Y-29053904D01*
X49776200Y-29053904D02*
X49823819Y-29149142D01*
X49823819Y-29149142D02*
X49823819Y-29530094D01*
X49823819Y-29530094D02*
X48823819Y-29530094D01*
X48823819Y-29530094D02*
X48823819Y-29196761D01*
X48823819Y-29196761D02*
X48871438Y-29101523D01*
X48871438Y-29101523D02*
X48919057Y-29053904D01*
X48919057Y-29053904D02*
X49014295Y-29006285D01*
X49014295Y-29006285D02*
X49109533Y-29006285D01*
X49109533Y-29006285D02*
X49204771Y-29053904D01*
X49204771Y-29053904D02*
X49252390Y-29101523D01*
X49252390Y-29101523D02*
X49300009Y-29196761D01*
X49300009Y-29196761D02*
X49300009Y-29530094D01*
X49823819Y-28006285D02*
X49823819Y-28577713D01*
X49823819Y-28291999D02*
X48823819Y-28291999D01*
X48823819Y-28291999D02*
X48966676Y-28387237D01*
X48966676Y-28387237D02*
X49061914Y-28482475D01*
X49061914Y-28482475D02*
X49109533Y-28577713D01*
X21723803Y-33716219D02*
X21723803Y-33335053D01*
X21952503Y-33792452D02*
X21152054Y-33525636D01*
X21152054Y-33525636D02*
X21952503Y-33258820D01*
X21952503Y-32992003D02*
X21152054Y-32992003D01*
X21152054Y-32992003D02*
X21152054Y-32801420D01*
X21152054Y-32801420D02*
X21190171Y-32687070D01*
X21190171Y-32687070D02*
X21266404Y-32610837D01*
X21266404Y-32610837D02*
X21342637Y-32572721D01*
X21342637Y-32572721D02*
X21495104Y-32534604D01*
X21495104Y-32534604D02*
X21609454Y-32534604D01*
X21609454Y-32534604D02*
X21761920Y-32572721D01*
X21761920Y-32572721D02*
X21838153Y-32610837D01*
X21838153Y-32610837D02*
X21914387Y-32687070D01*
X21914387Y-32687070D02*
X21952503Y-32801420D01*
X21952503Y-32801420D02*
X21952503Y-32992003D01*
X21533220Y-31924738D02*
X21571337Y-31810388D01*
X21571337Y-31810388D02*
X21609454Y-31772272D01*
X21609454Y-31772272D02*
X21685687Y-31734155D01*
X21685687Y-31734155D02*
X21800037Y-31734155D01*
X21800037Y-31734155D02*
X21876270Y-31772272D01*
X21876270Y-31772272D02*
X21914387Y-31810388D01*
X21914387Y-31810388D02*
X21952503Y-31886621D01*
X21952503Y-31886621D02*
X21952503Y-32191554D01*
X21952503Y-32191554D02*
X21152054Y-32191554D01*
X21152054Y-32191554D02*
X21152054Y-31924738D01*
X21152054Y-31924738D02*
X21190171Y-31848505D01*
X21190171Y-31848505D02*
X21228287Y-31810388D01*
X21228287Y-31810388D02*
X21304521Y-31772272D01*
X21304521Y-31772272D02*
X21380754Y-31772272D01*
X21380754Y-31772272D02*
X21456987Y-31810388D01*
X21456987Y-31810388D02*
X21495104Y-31848505D01*
X21495104Y-31848505D02*
X21533220Y-31924738D01*
X21533220Y-31924738D02*
X21533220Y-32191554D01*
X21647570Y-31391105D02*
X21647570Y-30781240D01*
X21533220Y-30133257D02*
X21533220Y-30400073D01*
X21952503Y-30400073D02*
X21152054Y-30400073D01*
X21152054Y-30400073D02*
X21152054Y-30018907D01*
X21533220Y-29713974D02*
X21533220Y-29447158D01*
X21952503Y-29332808D02*
X21952503Y-29713974D01*
X21952503Y-29713974D02*
X21152054Y-29713974D01*
X21152054Y-29713974D02*
X21152054Y-29332808D01*
X21952503Y-28989758D02*
X21152054Y-28989758D01*
X21152054Y-28989758D02*
X21723803Y-28722942D01*
X21723803Y-28722942D02*
X21152054Y-28456126D01*
X21152054Y-28456126D02*
X21952503Y-28456126D01*
X21723803Y-28113076D02*
X21723803Y-27731910D01*
X21952503Y-28189309D02*
X21152054Y-27922493D01*
X21152054Y-27922493D02*
X21952503Y-27655677D01*
X21952503Y-27007694D02*
X21952503Y-27388860D01*
X21952503Y-27388860D02*
X21152054Y-27388860D01*
X21533220Y-26740877D02*
X21533220Y-26474061D01*
X21952503Y-26359711D02*
X21952503Y-26740877D01*
X21952503Y-26740877D02*
X21152054Y-26740877D01*
X21152054Y-26740877D02*
X21152054Y-26359711D01*
X21952503Y-25597379D02*
X21952503Y-26054778D01*
X21952503Y-25826078D02*
X21152054Y-25826078D01*
X21152054Y-25826078D02*
X21266404Y-25902312D01*
X21266404Y-25902312D02*
X21342637Y-25978545D01*
X21342637Y-25978545D02*
X21380754Y-26054778D01*
D11*
%TO.C,USB1*%
X34256000Y-28202000D02*
X34256000Y-29202000D01*
X34256000Y-29202000D02*
X34756000Y-28702000D01*
X34756000Y-28702000D02*
X34256000Y-28202000D01*
X34976000Y-23792000D02*
X34976000Y-36112000D01*
X34976000Y-36112000D02*
X39236000Y-36112000D01*
X39236000Y-23792000D02*
X34976000Y-23792000D01*
X43336000Y-23792000D02*
X51696000Y-23792000D01*
X51696000Y-23792000D02*
X51696000Y-36112000D01*
X51696000Y-36112000D02*
X43336000Y-36112000D01*
D12*
%TO.C,ADB-FEMALE1*%
X19890000Y-36816800D02*
X19890000Y-22816800D01*
X23330000Y-36816800D02*
X19890000Y-36816800D01*
X27510000Y-36786800D02*
X32720000Y-36786800D01*
X32720000Y-36786800D02*
X32720000Y-36816800D01*
X23330000Y-22816800D02*
X19890000Y-22816800D01*
X27510000Y-22816800D02*
X32720000Y-22816800D01*
X32720000Y-22816800D02*
X32720000Y-36786800D01*
D13*
X33300000Y-33216800D02*
G75*
G03*
X33300000Y-33216800I-100000J0D01*
G01*
%TD*%
M02*
